G04 Layer_Physical_Order=1*
G04 Layer_Color=25308*
%FSLAX42Y42*%
%MOMM*%
G71*
G01*
G75*
%ADD10C,1.00*%
%ADD11C,0.80*%
%ADD12C,1.78*%
%ADD13R,1.78X1.78*%
G04:AMPARAMS|DCode=14|XSize=1.78mm|YSize=1.78mm|CornerRadius=0.44mm|HoleSize=0mm|Usage=FLASHONLY|Rotation=180.000|XOffset=0mm|YOffset=0mm|HoleType=Round|Shape=RoundedRectangle|*
%AMROUNDEDRECTD14*
21,1,1.78,0.89,0,0,180.0*
21,1,0.89,1.78,0,0,180.0*
1,1,0.89,-0.44,0.44*
1,1,0.89,0.44,0.44*
1,1,0.89,0.44,-0.44*
1,1,0.89,-0.44,-0.44*
%
%ADD14ROUNDEDRECTD14*%
%ADD15R,1.78X1.78*%
G36*
X-0Y8700D02*
X0Y0D01*
X7729Y-0D01*
X7800Y71D01*
X7800Y8629D01*
X7729Y8700D01*
X-0Y8700D01*
D02*
G37*
%LPC*%
G36*
X6291Y6009D02*
X6609D01*
Y5691D01*
X6571D01*
Y5503D01*
X6583Y5489D01*
X6598Y5461D01*
X6607Y5431D01*
X6610Y5400D01*
X6607Y5369D01*
X6598Y5339D01*
X6583Y5311D01*
X6563Y5287D01*
X6539Y5267D01*
X6511Y5252D01*
X6481Y5243D01*
X6450Y5240D01*
X6419Y5243D01*
X6389Y5252D01*
X6361Y5267D01*
X6337Y5287D01*
X6317Y5311D01*
X6302Y5339D01*
X6293Y5369D01*
X6290Y5400D01*
X6293Y5431D01*
X6302Y5461D01*
X6317Y5489D01*
X6329Y5503D01*
Y5691D01*
X6291D01*
Y6009D01*
D02*
G37*
G36*
X5403Y6903D02*
X5434Y6900D01*
X5464Y6891D01*
X5492Y6876D01*
X5516Y6856D01*
X5536Y6832D01*
X5551Y6805D01*
X5560Y6775D01*
X5563Y6743D01*
X5560Y6712D01*
X5551Y6682D01*
X5536Y6655D01*
X5524Y6640D01*
Y6403D01*
X5536Y6389D01*
X5551Y6361D01*
X5560Y6331D01*
X5563Y6300D01*
X5560Y6269D01*
X5551Y6239D01*
X5536Y6211D01*
X5516Y6187D01*
X5492Y6167D01*
X5464Y6152D01*
X5434Y6143D01*
X5403Y6140D01*
X5372Y6143D01*
X5342Y6152D01*
X5314Y6167D01*
X5290Y6187D01*
X5270Y6211D01*
X5256Y6239D01*
X5247Y6269D01*
X5243Y6300D01*
X5247Y6331D01*
X5256Y6361D01*
X5270Y6389D01*
X5282Y6403D01*
Y6640D01*
X5270Y6655D01*
X5256Y6682D01*
X5247Y6712D01*
X5243Y6743D01*
X5247Y6775D01*
X5256Y6805D01*
X5270Y6832D01*
X5290Y6856D01*
X5314Y6876D01*
X5342Y6891D01*
X5372Y6900D01*
X5403Y6903D01*
D02*
G37*
G36*
X3516Y8581D02*
X6090D01*
X6121Y8577D01*
X6150Y8565D01*
X6175Y8546D01*
X6393Y8328D01*
X6424Y8324D01*
X6514Y8339D01*
X6677Y8501D01*
X6702Y8521D01*
X6731Y8533D01*
X6763Y8537D01*
X7034D01*
X7065Y8533D01*
X7095Y8521D01*
X7120Y8501D01*
X7217Y8405D01*
X7236Y8380D01*
X7248Y8350D01*
X7252Y8319D01*
Y8044D01*
X7254Y8044D01*
X7284Y8032D01*
X7309Y8013D01*
X7349Y7972D01*
X7355Y7967D01*
X7425Y7897D01*
X7433Y7888D01*
X7436Y7886D01*
X7455Y7861D01*
X7467Y7831D01*
X7471Y7800D01*
X7471Y5953D01*
X7483Y5939D01*
X7498Y5911D01*
X7507Y5881D01*
X7510Y5850D01*
X7507Y5819D01*
X7498Y5789D01*
X7483Y5761D01*
X7463Y5737D01*
X7439Y5717D01*
X7411Y5702D01*
X7381Y5693D01*
X7350Y5690D01*
X7319Y5693D01*
X7289Y5702D01*
X7261Y5717D01*
X7237Y5737D01*
X7217Y5761D01*
X7202Y5789D01*
X7193Y5819D01*
X7190Y5850D01*
X7193Y5881D01*
X7202Y5911D01*
X7217Y5939D01*
X7229Y5953D01*
X7229Y7295D01*
X7129Y7336D01*
X6907Y7114D01*
X6882Y7095D01*
X6853Y7083D01*
X6822Y7079D01*
X6731D01*
Y6846D01*
X6742Y6832D01*
X6757Y6805D01*
X6766Y6775D01*
X6769Y6743D01*
X6766Y6712D01*
X6757Y6682D01*
X6742Y6655D01*
X6723Y6631D01*
X6698Y6611D01*
X6671Y6596D01*
X6641Y6587D01*
X6610Y6584D01*
X6578Y6587D01*
X6549Y6596D01*
X6521Y6611D01*
X6497Y6631D01*
X6477Y6655D01*
X6462Y6682D01*
X6453Y6712D01*
X6450Y6743D01*
X6453Y6775D01*
X6462Y6805D01*
X6477Y6832D01*
X6489Y6846D01*
Y7097D01*
X6477Y7111D01*
X6462Y7139D01*
X6453Y7169D01*
X6450Y7200D01*
X6453Y7231D01*
X6462Y7261D01*
X6477Y7289D01*
X6497Y7313D01*
X6521Y7333D01*
X6549Y7348D01*
X6578Y7357D01*
X6610Y7360D01*
X6641Y7357D01*
X6671Y7348D01*
X6698Y7333D01*
X6713Y7321D01*
X6772D01*
X6865Y7414D01*
X6854Y7474D01*
X6830Y7521D01*
X6816Y7525D01*
X6788Y7540D01*
X6764Y7560D01*
X6736D01*
X6712Y7540D01*
X6684Y7525D01*
X6654Y7516D01*
X6623Y7513D01*
X6592Y7516D01*
X6562Y7525D01*
X6534Y7540D01*
X6510Y7560D01*
X6490Y7584D01*
X6475Y7612D01*
X6466Y7642D01*
X6463Y7673D01*
X6465Y7688D01*
X6429Y7733D01*
X6384Y7769D01*
X6369Y7767D01*
X6338Y7770D01*
X6308Y7779D01*
X6280Y7794D01*
X6256Y7814D01*
X6236Y7838D01*
X6221Y7866D01*
X6212Y7896D01*
X6209Y7927D01*
X6212Y7958D01*
X6221Y7988D01*
X6236Y8016D01*
X6248Y8030D01*
Y8131D01*
X6160Y8218D01*
X6094Y8191D01*
X6070Y8168D01*
X6072Y8149D01*
Y7641D01*
X6068Y7610D01*
X6056Y7581D01*
X6037Y7555D01*
X5596Y7114D01*
X5571Y7095D01*
X5541Y7083D01*
X5510Y7079D01*
X5507Y7079D01*
X5492Y7067D01*
X5464Y7052D01*
X5434Y7043D01*
X5403Y7040D01*
X5372Y7043D01*
X5342Y7052D01*
X5314Y7067D01*
X5290Y7087D01*
X5270Y7111D01*
X5256Y7139D01*
X5247Y7169D01*
X5243Y7200D01*
X5247Y7231D01*
X5256Y7261D01*
X5270Y7289D01*
X5290Y7313D01*
X5314Y7333D01*
X5342Y7348D01*
X5372Y7357D01*
X5403Y7360D01*
X5434Y7357D01*
X5464Y7348D01*
X5479Y7340D01*
X5805Y7666D01*
X5798Y7739D01*
X5768Y7757D01*
X5701Y7789D01*
X5681Y7783D01*
X5650Y7780D01*
X5619Y7783D01*
X5589Y7792D01*
X5561Y7807D01*
X5547Y7818D01*
X5369D01*
X5352Y7806D01*
X5324Y7794D01*
X5294Y7790D01*
X5206D01*
X5176Y7794D01*
X5148Y7806D01*
X5124Y7824D01*
X5085Y7817D01*
X5057Y7802D01*
X5027Y7793D01*
X4996Y7790D01*
X4965Y7793D01*
X4935Y7802D01*
X4907Y7817D01*
X4893Y7829D01*
X4650D01*
X4619Y7833D01*
X4609Y7832D01*
X4555Y7809D01*
X4538Y7799D01*
X4514Y7777D01*
X4510Y7763D01*
X4495Y7735D01*
X4480Y7697D01*
X4495Y7659D01*
X4510Y7631D01*
X4519Y7601D01*
X4522Y7570D01*
X4519Y7539D01*
X4510Y7509D01*
X4495Y7481D01*
X4480Y7443D01*
X4495Y7405D01*
X4510Y7377D01*
X4514Y7364D01*
X4520Y7347D01*
X4524Y7316D01*
X4520Y7285D01*
X4514Y7268D01*
X4510Y7255D01*
X4495Y7227D01*
X4480Y7189D01*
X4495Y7151D01*
X4510Y7123D01*
X4519Y7093D01*
X4522Y7062D01*
X4519Y7031D01*
X4513Y7014D01*
X4513Y7012D01*
X4513Y7007D01*
X4515Y6985D01*
X4518Y6973D01*
X4547Y6906D01*
X4549Y6904D01*
X4558Y6895D01*
X4566Y6888D01*
X4574Y6882D01*
X4886Y6570D01*
X4905Y6545D01*
X4917Y6516D01*
X4921Y6485D01*
Y5750D01*
X5262Y5409D01*
X5409D01*
Y5117D01*
X6554D01*
X6585Y5113D01*
X6615Y5101D01*
X6640Y5082D01*
X6950Y4771D01*
X7226D01*
Y5241D01*
X7191D01*
Y5559D01*
X7509D01*
Y5241D01*
X7468D01*
Y4753D01*
X7480Y4739D01*
X7494Y4711D01*
X7504Y4681D01*
X7507Y4650D01*
X7504Y4619D01*
X7494Y4589D01*
X7480Y4561D01*
X7460Y4537D01*
X7436Y4517D01*
X7408Y4502D01*
X7378Y4493D01*
X7347Y4490D01*
X7316Y4493D01*
X7286Y4502D01*
X7258Y4517D01*
X7244Y4529D01*
X7021D01*
Y3898D01*
X7059D01*
Y3585D01*
X7060Y3485D01*
X7135Y3424D01*
X7150Y3418D01*
X7229Y3497D01*
Y3644D01*
X7217Y3658D01*
X7202Y3686D01*
X7193Y3716D01*
X7190Y3747D01*
X7193Y3778D01*
X7202Y3808D01*
X7217Y3836D01*
X7229Y3850D01*
Y4109D01*
X7227Y4111D01*
X7212Y4139D01*
X7203Y4169D01*
X7200Y4200D01*
X7203Y4231D01*
X7212Y4261D01*
X7227Y4289D01*
X7247Y4313D01*
X7271Y4333D01*
X7298Y4348D01*
X7328Y4357D01*
X7360Y4360D01*
X7391Y4357D01*
X7421Y4348D01*
X7448Y4333D01*
X7472Y4313D01*
X7492Y4289D01*
X7507Y4261D01*
X7516Y4231D01*
X7519Y4200D01*
X7516Y4169D01*
X7507Y4139D01*
X7492Y4111D01*
X7472Y4087D01*
X7471Y4086D01*
Y3850D01*
X7483Y3836D01*
X7498Y3808D01*
X7507Y3778D01*
X7510Y3747D01*
X7507Y3716D01*
X7498Y3686D01*
X7483Y3658D01*
X7471Y3644D01*
Y3447D01*
X7467Y3416D01*
X7455Y3386D01*
X7436Y3361D01*
X7220Y3145D01*
X7201Y3131D01*
X7193Y3121D01*
X7174Y3039D01*
X7176Y3015D01*
X7436Y2756D01*
X7455Y2731D01*
X7467Y2701D01*
X7471Y2670D01*
Y2643D01*
X7483Y2629D01*
X7498Y2602D01*
X7507Y2572D01*
X7510Y2540D01*
X7507Y2509D01*
X7498Y2479D01*
X7483Y2452D01*
X7463Y2428D01*
X7439Y2408D01*
X7411Y2393D01*
X7381Y2384D01*
X7350Y2381D01*
X7319Y2384D01*
X7289Y2393D01*
X7261Y2408D01*
X7237Y2428D01*
X7217Y2452D01*
X7202Y2479D01*
X7193Y2509D01*
X7190Y2540D01*
X7193Y2572D01*
X7202Y2602D01*
X7209Y2613D01*
X7162Y2674D01*
X7140Y2692D01*
X7126Y2692D01*
X7048Y2662D01*
X7033Y2634D01*
X7018Y2596D01*
X7033Y2558D01*
X7048Y2530D01*
X7057Y2500D01*
X7060Y2469D01*
X7057Y2438D01*
X7048Y2408D01*
X7033Y2380D01*
X7018Y2342D01*
X7033Y2304D01*
X7048Y2276D01*
X7057Y2246D01*
X7060Y2215D01*
X7057Y2184D01*
X7048Y2154D01*
X7033Y2126D01*
X7018Y2088D01*
X7033Y2050D01*
X7048Y2022D01*
X7057Y1992D01*
X7060Y1961D01*
X7057Y1930D01*
X7048Y1900D01*
X7033Y1872D01*
X7013Y1848D01*
X6989Y1828D01*
X6961Y1813D01*
X6931Y1804D01*
X6913Y1803D01*
X6675Y1564D01*
X6650Y1545D01*
X6620Y1533D01*
X6589Y1529D01*
X6563D01*
X6548Y1517D01*
X6521Y1502D01*
X6491Y1493D01*
X6460Y1490D01*
X6428Y1493D01*
X6398Y1502D01*
X6371Y1517D01*
X6347Y1537D01*
X6327Y1561D01*
X6312Y1589D01*
X6303Y1619D01*
X6300Y1650D01*
X6303Y1681D01*
X6312Y1711D01*
X6327Y1739D01*
X6347Y1763D01*
X6371Y1783D01*
X6398Y1798D01*
X6428Y1807D01*
X6460Y1810D01*
X6491Y1807D01*
X6521Y1798D01*
X6548Y1783D01*
X6550Y1782D01*
X6731Y1963D01*
X6710Y2023D01*
X6673Y2057D01*
X6632Y2046D01*
X6604Y2032D01*
X6592Y2011D01*
X6573Y1987D01*
X6548Y1967D01*
X6521Y1952D01*
X6491Y1943D01*
X6460Y1940D01*
X6428Y1943D01*
X6398Y1952D01*
X6371Y1967D01*
X6357Y1979D01*
X5753D01*
X5412Y1637D01*
X5410Y1619D01*
X5401Y1589D01*
X5386Y1561D01*
X5366Y1537D01*
X5342Y1517D01*
X5314Y1502D01*
X5284Y1493D01*
X5253Y1490D01*
X5222Y1493D01*
X5192Y1502D01*
X5164Y1517D01*
X5140Y1537D01*
X5120Y1561D01*
X5106Y1589D01*
X5096Y1619D01*
X5093Y1650D01*
X5096Y1681D01*
X5106Y1711D01*
X5120Y1739D01*
X5140Y1763D01*
X5164Y1783D01*
X5192Y1798D01*
X5222Y1807D01*
X5223Y1810D01*
X5238Y1847D01*
X5236Y1861D01*
X5192Y1952D01*
X5164Y1967D01*
X5140Y1987D01*
X5120Y2011D01*
X5106Y2039D01*
X5096Y2069D01*
X5093Y2100D01*
X5096Y2131D01*
X5106Y2161D01*
X5120Y2189D01*
X5140Y2213D01*
X5164Y2233D01*
X5192Y2248D01*
X5222Y2257D01*
X5223Y2260D01*
X5238Y2297D01*
X5236Y2311D01*
X5192Y2402D01*
X5164Y2417D01*
X5140Y2437D01*
X5120Y2461D01*
X5106Y2489D01*
X5096Y2519D01*
X5093Y2550D01*
X5096Y2581D01*
X5106Y2611D01*
X5120Y2639D01*
X5140Y2663D01*
X5150Y2752D01*
X5144Y2785D01*
X4950Y2979D01*
X4850Y2937D01*
Y2179D01*
X4846Y2148D01*
X4834Y2118D01*
X4814Y2093D01*
X4448Y1727D01*
X4445Y1694D01*
X4463Y1603D01*
X4483Y1579D01*
X4498Y1552D01*
X4507Y1522D01*
X4510Y1490D01*
X4507Y1459D01*
X4498Y1429D01*
X4483Y1402D01*
X4471Y1387D01*
X4471Y1100D01*
X4621Y951D01*
X4640Y926D01*
X4652Y896D01*
X4656Y865D01*
Y403D01*
X4668Y389D01*
X4683Y361D01*
X4692Y331D01*
X4695Y300D01*
X4692Y269D01*
X4683Y239D01*
X4668Y211D01*
X4648Y187D01*
X4624Y167D01*
X4596Y152D01*
X4566Y143D01*
X4535Y140D01*
X4504Y143D01*
X4474Y152D01*
X4446Y167D01*
X4408Y182D01*
X4370Y167D01*
X4342Y152D01*
X4312Y143D01*
X4281Y140D01*
X4250Y143D01*
X4220Y152D01*
X4192Y167D01*
X4154Y182D01*
X4116Y167D01*
X4088Y152D01*
X4058Y143D01*
X4027Y140D01*
X3996Y143D01*
X3966Y152D01*
X3938Y167D01*
X3900Y182D01*
X3862Y167D01*
X3834Y152D01*
X3804Y143D01*
X3773Y140D01*
X3742Y143D01*
X3712Y152D01*
X3684Y167D01*
X3646Y182D01*
X3608Y167D01*
X3580Y152D01*
X3550Y143D01*
X3519Y140D01*
X3488Y143D01*
X3458Y152D01*
X3430Y167D01*
X3392Y182D01*
X3354Y167D01*
X3354Y167D01*
X3354Y167D01*
X3326Y152D01*
X3326Y152D01*
X3296Y143D01*
X3268Y141D01*
X3265Y140D01*
X3265D01*
X3165Y141D01*
X2852D01*
Y427D01*
X1948Y1331D01*
X1919Y1334D01*
X1889Y1343D01*
X1861Y1358D01*
X1837Y1378D01*
X1817Y1402D01*
X1802Y1429D01*
X1793Y1459D01*
X1790Y1490D01*
X1793Y1522D01*
X1802Y1552D01*
X1817Y1579D01*
X1837Y1603D01*
X1861Y1623D01*
X1889Y1638D01*
X1919Y1647D01*
X1950Y1650D01*
X1981Y1647D01*
X2011Y1638D01*
X2039Y1623D01*
X2063Y1603D01*
X2083Y1579D01*
X2098Y1552D01*
X2101Y1541D01*
X2147Y1520D01*
X2158Y1520D01*
X2252Y1552D01*
X2267Y1579D01*
X2287Y1603D01*
X2311Y1623D01*
X2339Y1638D01*
X2369Y1647D01*
X2400Y1650D01*
X2431Y1647D01*
X2461Y1638D01*
X2489Y1623D01*
X2513Y1603D01*
X2533Y1579D01*
X2548Y1552D01*
X2557Y1522D01*
X2560Y1490D01*
X2557Y1459D01*
X2548Y1429D01*
X2533Y1402D01*
X2527Y1394D01*
X2584Y1337D01*
X2595Y1336D01*
X2692Y1371D01*
X2704Y1426D01*
X2702Y1429D01*
X2693Y1459D01*
X2690Y1490D01*
X2693Y1522D01*
X2702Y1552D01*
X2717Y1579D01*
X2737Y1603D01*
X2761Y1623D01*
X2789Y1638D01*
X2819Y1647D01*
X2850Y1650D01*
X2881Y1647D01*
X2911Y1638D01*
X2939Y1623D01*
X2963Y1603D01*
X2983Y1579D01*
X2998Y1552D01*
X3007Y1522D01*
X3010Y1490D01*
X3007Y1459D01*
X2998Y1429D01*
X2983Y1402D01*
X2971Y1387D01*
Y1250D01*
X3252Y969D01*
X3352Y1011D01*
Y1365D01*
X3337Y1378D01*
X3317Y1402D01*
X3302Y1429D01*
X3293Y1459D01*
X3290Y1490D01*
X3293Y1522D01*
X3302Y1552D01*
X3317Y1579D01*
X3337Y1603D01*
X3361Y1623D01*
X3389Y1638D01*
X3419Y1647D01*
X3450Y1650D01*
X3481Y1647D01*
X3511Y1638D01*
X3539Y1623D01*
X3563Y1603D01*
X3583Y1579D01*
X3598Y1552D01*
X3607Y1522D01*
X3610Y1490D01*
X3607Y1459D01*
X3598Y1429D01*
X3594Y1423D01*
Y971D01*
X3675Y890D01*
X3707Y895D01*
X3774Y933D01*
Y1393D01*
X3767Y1402D01*
X3752Y1429D01*
X3743Y1459D01*
X3740Y1490D01*
X3743Y1522D01*
X3752Y1552D01*
X3767Y1579D01*
X3787Y1603D01*
X3811Y1623D01*
X3839Y1638D01*
X3869Y1647D01*
X3900Y1650D01*
X3931Y1647D01*
X3932Y1647D01*
X3964Y1638D01*
X4021Y1649D01*
X4056Y1677D01*
X4258Y1879D01*
X4216Y1979D01*
X1950D01*
X1919Y1983D01*
X1889Y1995D01*
X1864Y2014D01*
X1564Y2314D01*
X1545Y2339D01*
X1533Y2369D01*
X1529Y2400D01*
Y2850D01*
X1533Y2881D01*
X1545Y2911D01*
X1564Y2936D01*
X1979Y3350D01*
Y6400D01*
X1608Y6771D01*
X1268D01*
X1236Y6775D01*
X1207Y6787D01*
X1182Y6806D01*
X456Y7533D01*
X436Y7558D01*
X424Y7587D01*
X420Y7618D01*
Y7887D01*
X424Y7918D01*
X436Y7947D01*
X456Y7972D01*
X659Y8176D01*
X667Y8186D01*
X692Y8205D01*
X721Y8217D01*
X752Y8221D01*
X1253D01*
X1285Y8217D01*
X1314Y8205D01*
X1339Y8186D01*
X1552Y7972D01*
X1571Y7948D01*
X1573Y7948D01*
X1601Y7933D01*
X1625Y7913D01*
X1645Y7889D01*
X1660Y7861D01*
X1669Y7831D01*
X1672Y7800D01*
X1669Y7769D01*
X1660Y7739D01*
X1650Y7721D01*
X1662Y7682D01*
X1697Y7621D01*
X1900D01*
X2442Y8164D01*
X2467Y8183D01*
X2497Y8195D01*
X2528Y8199D01*
X2735D01*
X2749Y8211D01*
X2777Y8226D01*
X2807Y8235D01*
X2838Y8238D01*
X2869Y8235D01*
X2899Y8226D01*
X2927Y8211D01*
X2951Y8191D01*
X3041Y8182D01*
X3073Y8188D01*
X3430Y8546D01*
X3455Y8565D01*
X3484Y8577D01*
X3516Y8581D01*
D02*
G37*
%LPD*%
G36*
X4523Y5072D02*
X4518Y5063D01*
X4519Y5061D01*
X4522Y5030D01*
X4519Y4999D01*
X4510Y4969D01*
X4495Y4941D01*
X4475Y4917D01*
X4451Y4897D01*
X4423Y4882D01*
X4393Y4873D01*
X4362Y4870D01*
X4331Y4873D01*
X4301Y4882D01*
X4273Y4897D01*
X4271Y4899D01*
X4197Y4875D01*
X4171Y4855D01*
Y4697D01*
X4197Y4677D01*
X4271Y4653D01*
X4273Y4655D01*
X4301Y4670D01*
X4331Y4679D01*
X4362Y4682D01*
X4393Y4679D01*
X4423Y4670D01*
X4451Y4655D01*
X4475Y4635D01*
X4495Y4611D01*
X4510Y4583D01*
X4519Y4553D01*
X4522Y4522D01*
X4519Y4491D01*
X4510Y4461D01*
X4495Y4434D01*
X4584Y4035D01*
X4589Y4033D01*
X4613Y4013D01*
X4633Y3989D01*
X4648Y3961D01*
X4657Y3931D01*
X4660Y3900D01*
X4657Y3869D01*
X4648Y3839D01*
X4633Y3811D01*
X4613Y3787D01*
X4601Y3698D01*
X4607Y3664D01*
X5402Y2870D01*
X5618Y3086D01*
X5643Y3105D01*
X5672Y3117D01*
X5703Y3121D01*
X6272D01*
X6291Y3161D01*
X6309Y3221D01*
X6299Y3239D01*
X6290Y3269D01*
X6287Y3300D01*
X6290Y3331D01*
X6299Y3361D01*
X6314Y3389D01*
X6334Y3413D01*
X6358Y3433D01*
X6386Y3448D01*
X6416Y3457D01*
X6432Y3458D01*
X6457Y3496D01*
X6474Y3557D01*
X6064Y3968D01*
X6045Y3993D01*
X6033Y4022D01*
X6029Y4053D01*
Y4101D01*
X6020Y4111D01*
X6006Y4139D01*
X5996Y4169D01*
X5993Y4200D01*
X5996Y4231D01*
X6006Y4261D01*
X6020Y4289D01*
X6029Y4299D01*
Y4536D01*
X6028Y4537D01*
X6008Y4561D01*
X5993Y4589D01*
X5984Y4619D01*
X5981Y4650D01*
X5984Y4681D01*
X5993Y4711D01*
X6008Y4739D01*
X6028Y4763D01*
X6042Y4775D01*
X6041Y4809D01*
X6012Y4875D01*
X5353D01*
X5339Y4863D01*
X5311Y4848D01*
X5281Y4839D01*
X5250Y4836D01*
X5219Y4839D01*
X5189Y4848D01*
X5161Y4863D01*
X5147Y4875D01*
X4904D01*
X4873Y4879D01*
X4843Y4891D01*
X4818Y4910D01*
X4622Y5107D01*
X4523Y5072D01*
D02*
G37*
G36*
X3476Y7484D02*
X3451Y7465D01*
X3421Y7453D01*
X3390Y7449D01*
X3060D01*
X3032Y7421D01*
X2994Y7349D01*
X2995Y7347D01*
X2998Y7316D01*
X2995Y7285D01*
X2986Y7255D01*
X2971Y7227D01*
X2956Y7189D01*
X2971Y7151D01*
X2986Y7123D01*
X2995Y7093D01*
X2998Y7062D01*
X2995Y7031D01*
X2994Y7029D01*
X3002Y6996D01*
X3030Y6949D01*
X3048Y6928D01*
X3055Y6923D01*
X3080Y6913D01*
X3105Y6894D01*
X3644Y6355D01*
X3736Y6393D01*
Y7475D01*
X3741Y7506D01*
X3753Y7535D01*
X3772Y7560D01*
X4121Y7910D01*
X4146Y7929D01*
X4151Y7931D01*
X4155Y7934D01*
X4188Y7980D01*
X4206Y8037D01*
X4206Y8045D01*
X4205Y8047D01*
X4203Y8070D01*
X4183Y8085D01*
X4105Y8114D01*
X3476Y7484D01*
D02*
G37*
D10*
X4350Y2697D02*
X4053Y2400D01*
X3450D01*
X4800Y6485D02*
X4488Y6796D01*
X4800Y5700D02*
Y6485D01*
X5250Y5250D02*
X4800Y5700D01*
X4616Y5284D02*
X4362D01*
X4904Y4996D02*
X4616Y5284D01*
X5250Y4996D02*
X4904D01*
X1952Y2398D02*
Y2695D01*
X4141Y989D02*
Y1591D01*
X4729Y2179D02*
X4141Y1591D01*
X4729Y2179D02*
Y3071D01*
X3005Y445D02*
X1955Y1495D01*
X3005Y295D02*
Y445D01*
X3265Y300D02*
Y485D01*
X3000Y750D01*
X2400Y1350D02*
Y1490D01*
X3000Y750D02*
X2400Y1350D01*
X2850Y1200D02*
Y1490D01*
X3519Y531D02*
X2850Y1200D01*
X3519Y300D02*
Y531D01*
X3473Y921D02*
Y1490D01*
X3773Y621D02*
X3473Y921D01*
X3773Y300D02*
Y621D01*
X3895Y905D02*
Y1495D01*
X4027Y773D02*
X3895Y905D01*
X4027Y300D02*
Y773D01*
X4281Y849D02*
X4141Y989D01*
X2838Y7062D02*
X1338D01*
X750Y7650D01*
X2838Y7316D02*
X1384D01*
X1350Y7350D01*
X1350D01*
X1004Y7696D01*
X1517Y7500D02*
X1237Y7779D01*
X1950Y7500D02*
X1517D01*
X1268Y6892D02*
X541Y7618D01*
X2528Y8078D02*
X1950Y7500D01*
X2838Y8078D02*
X2528D01*
X4110Y8290D02*
X3390Y7570D01*
X5810Y8290D02*
X4110D01*
X5951Y8149D02*
X5810Y8290D01*
X3516Y8460D02*
X2859Y7803D01*
X6090Y8460D02*
X3516D01*
X6369Y8181D02*
X6090Y8460D01*
X5951Y7641D02*
Y8149D01*
Y7641D02*
X5510Y7200D01*
X5403Y6300D02*
Y6743D01*
X3390Y7570D02*
X2838D01*
X6610Y6743D02*
Y7200D01*
X6822D02*
X6610D01*
X7086Y7464D02*
X6822Y7200D01*
X7086Y7464D02*
Y7628D01*
X7131Y7673D02*
X7086Y7628D01*
X7268Y7882D02*
X7223Y7927D01*
X7270Y7882D02*
X7268D01*
X7340Y7812D02*
X7270Y7882D01*
X7340Y7810D02*
Y7812D01*
X7223Y7927D02*
X7131D01*
X7350Y5850D02*
X7350Y7800D01*
X7347Y4650D02*
X6900D01*
X6554Y4996D02*
X5250D01*
X6900Y4650D02*
X6554Y4996D01*
X4281Y300D02*
Y849D01*
X4350Y1050D02*
X4350Y1490D01*
X4535Y300D02*
Y865D01*
X4350Y1050D01*
Y1050D01*
X5779Y1700D02*
X5713Y1765D01*
X4766Y4776D02*
X4507D01*
X4790Y4800D02*
X4766Y4776D01*
X2270Y2862D02*
X2191Y2783D01*
X2270Y2862D02*
Y6027D01*
X2797Y6554D02*
X2270Y6027D01*
X2100Y6450D02*
X1658Y6892D01*
X2100Y3300D02*
Y6450D01*
Y3300D02*
X1650Y2850D01*
X7347Y4650D02*
Y5397D01*
X6450Y5400D02*
Y5850D01*
X4488Y6796D02*
X4362Y6808D01*
Y7824D02*
X4207D01*
X3019Y6808D02*
X2838D01*
X2624Y2471D02*
X2329D01*
X2850Y2697D02*
X2624Y2471D01*
X3000Y6300D02*
X2838D01*
Y6046D02*
X2606D01*
X2838Y5792D02*
X2768D01*
X2049Y2301D02*
X1952Y2398D01*
X3012Y5538D02*
X2838D01*
X4507Y4776D02*
X4362D01*
X4507Y4691D02*
Y4776D01*
X5713Y1765D02*
X5650D01*
X6900Y3739D02*
Y4650D01*
Y2723D02*
X6877Y2700D01*
X7350Y3447D02*
X7134Y3231D01*
X6900D01*
X7043Y2977D02*
X6900D01*
X7350Y2670D02*
X7043Y2977D01*
X7350Y2540D02*
Y2670D01*
X3229Y5321D02*
X3012Y5538D01*
X3450Y2400D02*
X3229Y2621D01*
X3059Y2551D02*
X3059Y2551D01*
X3059Y2551D02*
X2809Y2301D01*
X2049D01*
X3059Y2551D02*
Y3241D01*
X6900Y3739D02*
X6855Y3694D01*
X6900Y3750D02*
X6844Y3694D01*
X1004Y7696D02*
Y7800D01*
X750Y7650D02*
Y7800D01*
X2455Y2752D02*
X2400Y2697D01*
X2838Y6554D02*
X2797D01*
X2260Y2542D02*
X2191Y2610D01*
Y2783D01*
X2329Y2471D02*
X2250Y2550D01*
X1950Y2100D02*
X1650Y2400D01*
Y2850D01*
X2768Y5792D02*
X2625Y5649D01*
Y3675D02*
Y5649D01*
X3059Y3241D02*
X2625Y3675D01*
X2606Y6046D02*
X2455Y5895D01*
Y2752D02*
Y5895D01*
X3229Y2621D02*
Y5321D01*
X3900Y2697D02*
Y3450D01*
X3858Y3942D02*
Y7475D01*
X4207Y7824D02*
X3858Y7475D01*
X3900Y3450D02*
X3668Y3683D01*
Y6160D01*
X3019Y6808D01*
X3470Y2697D02*
X3453Y2714D01*
Y5847D01*
X3000Y6300D01*
X4350Y2100D02*
X1950D01*
X4403Y7316D02*
X4362D01*
X4480Y2230D02*
X4350Y2100D01*
X4480Y2230D02*
Y2231D01*
X4559Y2310D02*
X4480Y2231D01*
X4729Y3071D02*
X3858Y3942D01*
X4559Y2310D02*
Y2941D01*
X4200Y3300D01*
X6900Y3485D02*
X6715D01*
X7350Y3447D02*
Y3747D01*
Y4190D01*
X6717Y3487D02*
X6150Y4053D01*
Y4637D01*
X6900Y2723D02*
X6727D01*
X6900Y1961D02*
X6589Y1650D01*
X6460D01*
X6900Y2215D02*
X6575D01*
X6460Y2100D01*
X5703D01*
X5253Y1650D01*
X6900Y2469D02*
X6541D01*
X6460Y2550D01*
X5703D01*
X5253Y2100D01*
X6447Y3000D02*
X6447Y3000D01*
X5703D02*
X5253Y2550D01*
X6447Y3000D02*
X5703D01*
X4362Y7316D02*
X4316D01*
X4050Y7050D01*
X5400Y2700D02*
X4050Y4050D01*
Y7050D01*
X6447Y3000D02*
Y3300D01*
X6727Y2723D02*
X6448Y3002D01*
X6877Y7927D02*
Y8207D01*
X6600Y7950D02*
Y8253D01*
X7131Y7927D02*
Y8319D01*
X6369Y7927D02*
Y8181D01*
X1658Y6892D02*
X1268D01*
X1467Y7845D02*
Y7887D01*
X1512Y7800D02*
X1467Y7845D01*
Y7887D02*
X1253Y8100D01*
X752D01*
X541Y7618D02*
Y7887D01*
X752Y8098D02*
X541Y7887D01*
X7034Y8416D02*
X6763D01*
X7131Y8319D02*
X7034Y8416D01*
X6763D02*
X6600Y8253D01*
X4996Y7950D02*
X4650D01*
Y8100D01*
X4384D01*
X5650Y7940D02*
X5260D01*
D11*
X4500Y3900D02*
X4362Y4522D01*
D12*
X5250Y4742D02*
D03*
Y4996D02*
D03*
X6900Y1961D02*
D03*
Y2215D02*
D03*
Y2469D02*
D03*
Y2723D02*
D03*
Y2977D02*
D03*
Y3231D02*
D03*
Y3485D02*
D03*
X7347Y4650D02*
D03*
X6140D02*
D03*
X1512Y7800D02*
D03*
X750D02*
D03*
X1004D02*
D03*
X1258D02*
D03*
X1766D02*
D03*
X4996Y7950D02*
D03*
X6369Y7927D02*
D03*
X6623D02*
D03*
X7131D02*
D03*
X6877Y7673D02*
D03*
X6623D02*
D03*
X6369D02*
D03*
X6877Y7927D02*
D03*
X6450Y5400D02*
D03*
X4362Y4776D02*
D03*
Y5030D02*
D03*
Y5284D02*
D03*
Y5538D02*
D03*
Y5792D02*
D03*
Y6046D02*
D03*
Y6300D02*
D03*
Y6554D02*
D03*
Y6808D02*
D03*
Y7062D02*
D03*
Y7316D02*
D03*
Y7570D02*
D03*
Y7824D02*
D03*
Y8078D02*
D03*
X2838D02*
D03*
Y7824D02*
D03*
Y7570D02*
D03*
Y7316D02*
D03*
Y7062D02*
D03*
Y6808D02*
D03*
Y6554D02*
D03*
Y6300D02*
D03*
Y6046D02*
D03*
Y5792D02*
D03*
Y5538D02*
D03*
Y5284D02*
D03*
X4362Y4522D02*
D03*
X2838Y5030D02*
D03*
Y4776D02*
D03*
X5253Y1650D02*
D03*
X6460D02*
D03*
X6610Y6300D02*
D03*
X5403D02*
D03*
Y6743D02*
D03*
X6610D02*
D03*
X5403Y7200D02*
D03*
X6610D02*
D03*
X4350Y2697D02*
D03*
Y1490D02*
D03*
X3900Y2697D02*
D03*
Y1490D02*
D03*
X3450Y2697D02*
D03*
Y1490D02*
D03*
X2850Y2697D02*
D03*
Y1490D02*
D03*
X2400Y2697D02*
D03*
Y1490D02*
D03*
X1950Y2697D02*
D03*
Y1490D02*
D03*
X6447Y3300D02*
D03*
X5240D02*
D03*
X5253Y2100D02*
D03*
X6460D02*
D03*
X5253Y2550D02*
D03*
X6460D02*
D03*
X7350Y3747D02*
D03*
Y2540D02*
D03*
X6153Y4200D02*
D03*
X7360D02*
D03*
X4789Y300D02*
D03*
X4535D02*
D03*
X4281D02*
D03*
X4027D02*
D03*
X3773D02*
D03*
X3519D02*
D03*
X3265D02*
D03*
X7350Y5850D02*
D03*
X5700Y5400D02*
D03*
Y4650D02*
D03*
X4500Y3900D02*
D03*
X4200Y3300D02*
D03*
X6877Y8207D02*
D03*
X5650Y7940D02*
D03*
D13*
X5250Y5250D02*
D03*
X6900Y3739D02*
D03*
D14*
X5250Y7950D02*
D03*
D15*
X7131Y7673D02*
D03*
X7350Y5400D02*
D03*
X2838Y4522D02*
D03*
X3011Y300D02*
D03*
X6450Y5850D02*
D03*
M02*
