M48
;Layer_Color=6321
;FILE_FORMAT=4:2
METRIC,TZ
;TYPE=PLATED
T1F00S00C1.00
T2F00S00C1.02
%
T01
X3600Y3300
X3300Y3900
X2100Y4650
Y5400
X2150Y7940
X2550Y7950
X2804
X923Y8207
T02
X3011Y300
X3265
X3519
X3773
X4027
X4281
X4535
X4789
X4950Y1490
X5400
X5850
Y2697
X5400
X4950
X4350Y2697
X3900
Y1490
X4350
X4962Y4522
X3438
X3450Y2697
X2547Y2550
Y2100
Y1650
X3450Y1490
X1340Y1650
Y2100
Y2550
X900Y2469
Y2215
Y1961
Y2723
Y2977
Y3231
Y3485
Y3739
X450Y3747
X440Y4200
X1647
X1353Y3300
X2560
X450Y2540
X453Y4650
X450Y5400
X450Y5850
X1350
X1350Y5400
X1660Y4650
X2550Y4742
Y4996
Y5250
X3438Y5284
Y5030
Y4776
Y5538
Y5792
Y6046
Y6300
Y6554
Y6808
Y7062
Y7316
Y7570
Y7824
Y8078
X2397Y7200
X2397Y6743
Y6300
X1190
Y6743
Y7200
X1177Y7673
Y7927
X1431
Y7673
X923
X669
Y7927
X923
X4962Y7824
Y8078
Y7570
Y7316
Y7062
Y6808
Y6554
Y6300
Y6046
Y5792
Y5538
Y5284
Y5030
Y4776
X6034Y7800
X6288
X6542
X6796
X7050
M30
