M48
;Layer_Color=6321
;FILE_FORMAT=4:2
METRIC,LZ
;TYPE=PLATED
T1F00S00C1.00
T2F00S00C1.02
%
T01
X0036Y0033
X0033Y0039
X0021Y00465
Y0054
X00215Y00794
X00255Y00795
X002804
X000923Y008207
T02
X003011Y0003
X003265
X003519
X003773
X004027
X004281
X004535
X004789
X00495Y00149
X0054
X00585
Y002697
X0054
X00495
X00435Y002697
X0039
Y00149
X00435
X004962Y004522
X003438
X00345Y002697
X002547Y00255
Y0021
Y00165
X00345Y00149
X00134Y00165
Y0021
Y00255
X0009Y002469
Y002215
Y001961
Y002723
Y002977
Y003231
Y003485
Y003739
X00045Y003747
X00044Y0042
X001647
X001353Y0033
X00256
X00045Y00254
X000453Y00465
X00045Y0054
X00045Y00585
X00135
X00135Y0054
X00166Y00465
X00255Y004742
Y004996
Y00525
X003438Y005284
Y00503
Y004776
Y005538
Y005792
Y006046
Y0063
Y006554
Y006808
Y007062
Y007316
Y00757
Y007824
Y008078
X002397Y0072
X002397Y006743
Y0063
X00119
Y006743
Y0072
X001177Y007673
Y007927
X001431
Y007673
X000923
X000669
Y007927
X000923
X004962Y007824
Y008078
Y00757
Y007316
Y007062
Y006808
Y006554
Y0063
Y006046
Y005792
Y005538
Y005284
Y00503
Y004776
X006034Y0078
X006288
X006542
X006796
X00705
M30
