  0
SECTION
  2
HEADER
  9
$ACADVER
  1
AC1015
  9
$ACADMAINTVER
 70
     6
  9
$DWGCODEPAGE
  3
ANSI_1252
  9
$INSBASE
 10
0.0
 20
0.0
 30
0.0
  9
$EXTMIN
 10
1.000000000000000E+20
 20
1.000000000000000E+20
 30
1.000000000000000E+20
  9
$EXTMAX
 10
-1.000000000000000E+20
 20
-1.000000000000000E+20
 30
-1.000000000000000E+20
  9
$LIMMIN
 10
0.0
 20
0.0
  9
$LIMMAX
 10
12.0
 20
9.0
  9
$ORTHOMODE
 70
     0
  9
$REGENMODE
 70
     1
  9
$FILLMODE
 70
     1
  9
$QTEXTMODE
 70
     0
  9
$MIRRTEXT
 70
     1
  9
$LTSCALE
 40
1.0
  9
$ATTMODE
 70
     1
  9
$TEXTSIZE
 40
0.2
  9
$TRACEWID
 40
0.05
  9
$TEXTSTYLE
  7
Standard
  9
$CLAYER
  8
0
  9
$CELTYPE
  6
ByLayer
  9
$CECOLOR
 62
   256
  9
$CELTSCALE
 40
1.0
  9
$DISPSILH
 70
     0
  9
$DIMSCALE
 40
1.0
  9
$DIMASZ
 40
0.18
  9
$DIMEXO
 40
0.0625
  9
$DIMDLI
 40
0.38
  9
$DIMRND
 40
0.0
  9
$DIMDLE
 40
0.0
  9
$DIMEXE
 40
0.18
  9
$DIMTP
 40
0.0
  9
$DIMTM
 40
0.0
  9
$DIMTXT
 40
0.18
  9
$DIMCEN
 40
0.09
  9
$DIMTSZ
 40
0.0
  9
$DIMTOL
 70
     0
  9
$DIMLIM
 70
     0
  9
$DIMTIH
 70
     1
  9
$DIMTOH
 70
     1
  9
$DIMSE1
 70
     0
  9
$DIMSE2
 70
     0
  9
$DIMTAD
 70
     0
  9
$DIMZIN
 70
     0
  9
$DIMBLK
  1

  9
$DIMASO
 70
     1
  9
$DIMSHO
 70
     1
  9
$DIMPOST
  1

  9
$DIMAPOST
  1

  9
$DIMALT
 70
     0
  9
$DIMALTD
 70
     2
  9
$DIMALTF
 40
25.4
  9
$DIMLFAC
 40
1.0
  9
$DIMTOFL
 70
     0
  9
$DIMTVP
 40
0.0
  9
$DIMTIX
 70
     0
  9
$DIMSOXD
 70
     0
  9
$DIMSAH
 70
     0
  9
$DIMBLK1
  1

  9
$DIMBLK2
  1

  9
$DIMSTYLE
  2
Standard
  9
$DIMCLRD
 70
     0
  9
$DIMCLRE
 70
     0
  9
$DIMCLRT
 70
     0
  9
$DIMTFAC
 40
1.0
  9
$DIMGAP
 40
0.09
  9
$DIMJUST
 70
     0
  9
$DIMSD1
 70
     0
  9
$DIMSD2
 70
     0
  9
$DIMTOLJ
 70
     1
  9
$DIMTZIN
 70
     0
  9
$DIMALTZ
 70
     0
  9
$DIMALTTZ
 70
     0
  9
$DIMUPT
 70
     0
  9
$DIMDEC
 70
     4
  9
$DIMTDEC
 70
     4
  9
$DIMALTU
 70
     2
  9
$DIMALTTD
 70
     2
  9
$DIMTXSTY
  7
Standard
  9
$DIMAUNIT
 70
     0
  9
$DIMADEC
 70
     0
  9
$DIMALTRND
 40
0.0
  9
$DIMAZIN
 70
     0
  9
$DIMDSEP
 70
    46
  9
$DIMATFIT
 70
     3
  9
$DIMFRAC
 70
     0
  9
$DIMLDRBLK
  1

  9
$DIMLUNIT
 70
     2
  9
$DIMLWD
 70
    -2
  9
$DIMLWE
 70
    -2
  9
$DIMTMOVE
 70
     0
  9
$LUNITS
 70
     2
  9
$LUPREC
 70
     4
  9
$SKETCHINC
 40
0.1
  9
$FILLETRAD
 40
0.5
  9
$AUNITS
 70
     0
  9
$AUPREC
 70
     0
  9
$MENU
  1
.
  9
$ELEVATION
 40
0.0
  9
$PELEVATION
 40
0.0
  9
$THICKNESS
 40
0.0
  9
$LIMCHECK
 70
     0
  9
$CHAMFERA
 40
0.5
  9
$CHAMFERB
 40
0.5
  9
$CHAMFERC
 40
1.0
  9
$CHAMFERD
 40
0.0
  9
$SKPOLY
 70
     0
  9
$TDCREATE
 40
2458010.675798831
  9
$TDUCREATE
 40
2458010.800798831
  9
$TDUPDATE
 40
2458010.675798843
  9
$TDUUPDATE
 40
2458010.800798843
  9
$TDINDWG
 40
0.0000000116
  9
$TDUSRTIMER
 40
0.0000000116
  9
$USRTIMER
 70
     1
  9
$ANGBASE
 50
0.0
  9
$ANGDIR
 70
     0
  9
$PDMODE
 70
     0
  9
$PDSIZE
 40
0.0
  9
$PLINEWID
 40
0.0
  9
$SPLFRAME
 70
     0
  9
$SPLINETYPE
 70
     6
  9
$SPLINESEGS
 70
     8
  9
$HANDSEED
  5
D0
  9
$SURFTAB1
 70
     6
  9
$SURFTAB2
 70
     6
  9
$SURFTYPE
 70
     6
  9
$SURFU
 70
     6
  9
$SURFV
 70
     6
  9
$UCSBASE
  2

  9
$UCSNAME
  2

  9
$UCSORG
 10
0.0
 20
0.0
 30
0.0
  9
$UCSXDIR
 10
1.0
 20
0.0
 30
0.0
  9
$UCSYDIR
 10
0.0
 20
1.0
 30
0.0
  9
$UCSORTHOREF
  2

  9
$UCSORTHOVIEW
 70
     0
  9
$UCSORGTOP
 10
0.0
 20
0.0
 30
0.0
  9
$UCSORGBOTTOM
 10
0.0
 20
0.0
 30
0.0
  9
$UCSORGLEFT
 10
0.0
 20
0.0
 30
0.0
  9
$UCSORGRIGHT
 10
0.0
 20
0.0
 30
0.0
  9
$UCSORGFRONT
 10
0.0
 20
0.0
 30
0.0
  9
$UCSORGBACK
 10
0.0
 20
0.0
 30
0.0
  9
$PUCSBASE
  2

  9
$PUCSNAME
  2

  9
$PUCSORG
 10
0.0
 20
0.0
 30
0.0
  9
$PUCSXDIR
 10
1.0
 20
0.0
 30
0.0
  9
$PUCSYDIR
 10
0.0
 20
1.0
 30
0.0
  9
$PUCSORTHOREF
  2

  9
$PUCSORTHOVIEW
 70
     0
  9
$PUCSORGTOP
 10
0.0
 20
0.0
 30
0.0
  9
$PUCSORGBOTTOM
 10
0.0
 20
0.0
 30
0.0
  9
$PUCSORGLEFT
 10
0.0
 20
0.0
 30
0.0
  9
$PUCSORGRIGHT
 10
0.0
 20
0.0
 30
0.0
  9
$PUCSORGFRONT
 10
0.0
 20
0.0
 30
0.0
  9
$PUCSORGBACK
 10
0.0
 20
0.0
 30
0.0
  9
$USERI1
 70
     0
  9
$USERI2
 70
     0
  9
$USERI3
 70
     0
  9
$USERI4
 70
     0
  9
$USERI5
 70
     0
  9
$USERR1
 40
0.0
  9
$USERR2
 40
0.0
  9
$USERR3
 40
0.0
  9
$USERR4
 40
0.0
  9
$USERR5
 40
0.0
  9
$WORLDVIEW
 70
     1
  9
$SHADEDGE
 70
     3
  9
$SHADEDIF
 70
    70
  9
$TILEMODE
 70
     1
  9
$MAXACTVP
 70
    64
  9
$PINSBASE
 10
0.0
 20
0.0
 30
0.0
  9
$PLIMCHECK
 70
     0
  9
$PEXTMIN
 10
1.000000000000000E+20
 20
1.000000000000000E+20
 30
1.000000000000000E+20
  9
$PEXTMAX
 10
-1.000000000000000E+20
 20
-1.000000000000000E+20
 30
-1.000000000000000E+20
  9
$PLIMMIN
 10
0.0
 20
0.0
  9
$PLIMMAX
 10
12.0
 20
9.0
  9
$UNITMODE
 70
     0
  9
$VISRETAIN
 70
     1
  9
$PLINEGEN
 70
     0
  9
$PSLTSCALE
 70
     1
  9
$TREEDEPTH
 70
  3020
  9
$CMLSTYLE
  2
Standard
  9
$CMLJUST
 70
     0
  9
$CMLSCALE
 40
1.0
  9
$PROXYGRAPHICS
 70
     1
  9
$MEASUREMENT
 70
     0
  9
$CELWEIGHT
370
    -1
  9
$ENDCAPS
280
     0
  9
$JOINSTYLE
280
     0
  9
$LWDISPLAY
290
     1
  9
$INSUNITS
 70
     1
  9
$HYPERLINKBASE
  1

  9
$STYLESHEET
  1

  9
$XEDIT
290
     1
  9
$CEPSNTYPE
380
     0
  9
$PSTYLEMODE
290
     1
  9
$FINGERPRINTGUID
  2
{F3308C22-5A13-4D1A-BB82-0B5282BA37E6}
  9
$VERSIONGUID
  2
{FAEB1C32-E019-11D5-929B-00C0DF256EC4}
  9
$EXTNAMES
290
     1
  9
$PSVPSCALE
 40
0.0
  9
$OLESTARTUP
290
     0
  0
ENDSEC
  0
SECTION
  2
CLASSES
  0
CLASS
  1
ACDBDICTIONARYWDFLT
  2
AcDbDictionaryWithDefault
  3
ObjectDBX Classes
 90
        0
280
     0
281
     0
  0
CLASS
  1
VISUALSTYLE
  2
AcDbVisualStyle
  3
ObjectDBX Classes
 90
     4095
280
     0
281
     0
  0
CLASS
  1
ACDBPLACEHOLDER
  2
AcDbPlaceHolder
  3
ObjectDBX Classes
 90
        0
280
     0
281
     0
  0
CLASS
  1
LAYOUT
  2
AcDbLayout
  3
ObjectDBX Classes
 90
        0
280
     0
281
     0
  0
ENDSEC
  0
SECTION
  2
TABLES
  0
TABLE
  2
VPORT
  5
8
330
0
100
AcDbSymbolTable
 70
     1
  0
VPORT
  5
29
330
8
100
AcDbSymbolTableRecord
100
AcDbViewportTableRecord
  2
*Active
 70
     0
 10
0.0
 20
0.0
 11
1.0
 21
1.0
 12
0.0
 22
0.0
 13
0.0
 23
0.0
 14
0.5
 24
0.5
 15
0.5
 25
0.5
 16
0.0
 26
0.0
 36
1.0
 17
148.5052333884379
 27
105.0077161738349
 37
0.0
 40
87.00002981765972
 41
0.89655015384128
 42
50.0
 43
0.0
 44
0.0
 50
0.0
 51
0.0
 71
     0
 72
   100
 73
     1
 74
     3
 75
     0
 76
     0
 77
     0
 78
     0
281
     0
 65
     1
110
0.0
120
0.0
130
0.0
111
1.0
121
0.0
131
0.0
112
0.0
122
1.0
132
0.0
 79
     0
146
0.0
  0
ENDTAB
  0
TABLE
  2
LTYPE
  5
5
330
0
100
AcDbSymbolTable
 70
     1
  0
LTYPE
  5
14
330
5
100
AcDbSymbolTableRecord
100
AcDbLinetypeTableRecord
  2
ByBlock
 70
     0
  3

 72
    65
 73
     0
 40
0.0
  0
LTYPE
  5
15
330
5
100
AcDbSymbolTableRecord
100
AcDbLinetypeTableRecord
  2
ByLayer
 70
     0
  3

 72
    65
 73
     0
 40
0.0
  0
LTYPE
  5
16
330
5
100
AcDbSymbolTableRecord
100
AcDbLinetypeTableRecord
  2
Continuous
 70
     0
  3
Solid line
 72
    65
 73
     0
 40
0.0
  0
ENDTAB
  0
TABLE
  2
LAYER
  5
2
330
0
100
AcDbSymbolTable
 70
     4
  0
LAYER
  5
10
330
2
100
AcDbSymbolTableRecord
100
AcDbLayerTableRecord
  2
0
 70
     0
 62
     7
  6
Continuous
370
    -3
390
F
  0
LAYER
  5
3B
330
2
100
AcDbSymbolTableRecord
100
AcDbLayerTableRecord
  2
Capa 1
 70
     1
 62
     7
  6
Continuous
370
    -3
390
F
  0
LAYER
  5
3C
330
2
100
AcDbSymbolTableRecord
100
AcDbLayerTableRecord
  2
Capa 2
 70
     0
 62
     7
  6
Continuous
370
    -3
390
F
  0
LAYER
  5
BE
330
2
100
AcDbSymbolTableRecord
100
AcDbLayerTableRecord
  2
Capa 3
 70
     0
 62
     7
  6
Continuous
370
    -3
390
F
  0
ENDTAB
  0
TABLE
  2
STYLE
  5
3
330
0
100
AcDbSymbolTable
 70
     1
  0
STYLE
  5
11
330
3
100
AcDbSymbolTableRecord
100
AcDbTextStyleTableRecord
  2
Standard
 70
     0
 40
0.0
 41
1.0
 50
0.0
 71
     0
 42
0.2
  3
txt
  4

  0
ENDTAB
  0
TABLE
  2
VIEW
  5
6
330
0
100
AcDbSymbolTable
 70
     0
  0
ENDTAB
  0
TABLE
  2
UCS
  5
7
330
0
100
AcDbSymbolTable
 70
     0
  0
ENDTAB
  0
TABLE
  2
APPID
  5
9
330
0
100
AcDbSymbolTable
 70
     1
  0
APPID
  5
12
330
9
100
AcDbSymbolTableRecord
100
AcDbRegAppTableRecord
  2
ACAD
 70
     0
  0
ENDTAB
  0
TABLE
  2
DIMSTYLE
  5
A
330
0
100
AcDbSymbolTable
 70
     1
100
AcDbDimStyleTable
  0
DIMSTYLE
105
27
330
A
100
AcDbSymbolTableRecord
100
AcDbDimStyleTableRecord
  2
Standard
 70
     0
340
11
  0
ENDTAB
  0
TABLE
  2
BLOCK_RECORD
  5
1
330
0
100
AcDbSymbolTable
 70
     4
  0
BLOCK_RECORD
  5
1F
330
1
100
AcDbSymbolTableRecord
100
AcDbBlockTableRecord
  2
*Model_Space
340
22
  0
BLOCK_RECORD
  5
1B
330
1
100
AcDbSymbolTableRecord
100
AcDbBlockTableRecord
  2
*Paper_Space
340
1E
  0
BLOCK_RECORD
  5
23
330
1
100
AcDbSymbolTableRecord
100
AcDbBlockTableRecord
  2
*Paper_Space0
340
26
  0
BLOCK_RECORD
  5
3D
330
1
100
AcDbSymbolTableRecord
100
AcDbBlockTableRecord
  2
block 2
340
0
102
{BLKREFS
331
3E
102
}
  0
BLOCK_RECORD
  5
4E
330
1
100
AcDbSymbolTableRecord
100
AcDbBlockTableRecord
  2
block 3
340
0
102
{BLKREFS
331
4F
102
}
  0
BLOCK_RECORD
  5
C6
330
1
100
AcDbSymbolTableRecord
100
AcDbBlockTableRecord
  2
block 4
340
0
102
{BLKREFS
331
C7
102
}
  0
ENDTAB
  0
ENDSEC
  0
SECTION
  2
BLOCKS
  0
BLOCK
  5
20
330
1F
100
AcDbEntity
  8
0
100
AcDbBlockBegin
  2
*Model_Space
 70
     0
 71
     0
 10
0.0
 20
0.0
 30
0.0
  3
*Model_Space
  1

  0
ENDBLK
  5
21
330
1F
100
AcDbEntity
  8
0
100
AcDbBlockEnd
  0
BLOCK
  5
1C
330
1B
100
AcDbEntity
 67
     1
  8
0
100
AcDbBlockBegin
  2
*Paper_Space
 70
     0
 71
     0
 10
0.0
 20
0.0
 30
0.0
  3
*Paper_Space
  1

  0
ENDBLK
  5
1D
330
1B
100
AcDbEntity
 67
     1
  8
0
100
AcDbBlockEnd
  0
BLOCK
  5
24
330
23
100
AcDbEntity
  8
0
100
AcDbBlockBegin
  2
*Paper_Space0
 70
     0
 71
     0
 10
0.0
 20
0.0
 30
0.0
  3
*Paper_Space0
  1

  0
ENDBLK
  5
25
330
23
100
AcDbEntity
  8
0
100
AcDbBlockEnd
  0
BLOCK
  5
3F
330
3D
100
AcDbEntity
  8
0
100
AcDbBlockBegin
  2
block 2
 70
     0
 71
     0
 10
0.0
 20
0.0
 30
0.0
  3
block 2
  1

  0
POLYLINE
  5
41
330
3D
100
AcDbEntity
  8
Capa 2
370
     0
100
AcDb2dPolyline
 66
     1
 10
0.0
 20
0.0
 30
0.0
  0
VERTEX
  5
42
330
41
100
AcDbEntity
  8
Capa 2
370
     0
100
AcDbVertex
100
AcDb2dVertex
 10
115.5748575557417
 20
74.80611434761792
 30
0.0
  0
VERTEX
  5
43
330
41
100
AcDbEntity
  8
Capa 2
370
     0
100
AcDbVertex
100
AcDb2dVertex
 10
120.0042168211274
 20
84.49510089033456
 30
0.0
  0
VERTEX
  5
44
330
41
100
AcDbEntity
  8
Capa 2
370
     0
100
AcDbVertex
100
AcDb2dVertex
 10
124.4738837036906
 20
74.76546222089198
 30
0.0
  0
SEQEND
  5
45
330
41
100
AcDbEntity
  8
Capa 2
370
     0
  0
SPLINE
  5
46
330
3D
100
AcDbEntity
  8
Capa 2
370
     0
100
AcDbSpline
210
0.0
220
0.0
230
1.0
 70
    11
 71
     3
 72
    17
 73
    13
 74
     0
 42
0.0000000001
 43
0.0000000001
 40
0.0
 40
0.0
 40
0.0
 40
0.0
 40
1.0
 40
1.0
 40
1.0
 40
2.0
 40
2.0
 40
2.0
 40
3.0
 40
3.0
 40
3.0
 40
4.0
 40
4.0
 40
4.0
 40
4.0
 10
120.0245428844904
 20
77.8408989605745
 30
0.0
 10
122.6438489819258
 20
77.8408989605745
 30
0.0
 10
124.7672335842596
 20
75.7173421034665
 30
0.0
 10
124.7672335842596
 20
73.09803600603105
 30
0.0
 10
124.7672335842596
 20
70.4787299085956
 30
0.0
 10
122.6438489819258
 20
68.35586207058465
 30
0.0
 10
120.0245428844904
 20
68.35586207058465
 30
0.0
 10
117.4055812966035
 20
68.35586207058465
 30
0.0
 10
115.2818521847212
 20
70.4787299085956
 30
0.0
 10
115.2818521847212
 20
73.09803600603105
 30
0.0
 10
115.2818521847212
 20
75.7173421034665
 30
0.0
 10
117.4055812966035
 20
77.8408989605745
 30
0.0
 10
120.0245428844904
 20
77.8408989605745
 30
0.0
  0
POLYLINE
  5
47
330
3D
100
AcDbEntity
  8
Capa 2
370
     0
100
AcDb2dPolyline
 66
     1
 10
0.0
 20
0.0
 30
0.0
  0
VERTEX
  5
48
330
47
100
AcDbEntity
  8
Capa 2
370
     0
100
AcDbVertex
100
AcDb2dVertex
 10
123.083615420618
 20
97.20371362587268
 30
0.0
  0
VERTEX
  5
49
330
47
100
AcDbEntity
  8
Capa 2
370
     0
100
AcDbVertex
100
AcDb2dVertex
 10
120.0388400307542
 20
87.45271536442155
 30
0.0
  0
VERTEX
  5
4A
330
47
100
AcDbEntity
  8
Capa 2
370
     0
100
AcDbVertex
100
AcDb2dVertex
 10
116.9651258388143
 20
97.23230791840027
 30
0.0
  0
SEQEND
  5
4B
330
47
100
AcDbEntity
  8
Capa 2
370
     0
  0
SPLINE
  5
4C
330
3D
100
AcDbEntity
  8
Capa 2
370
     0
100
AcDbSpline
210
0.0
220
0.0
230
1.0
 70
    11
 71
     3
 72
    17
 73
    13
 74
     0
 42
0.0000000001
 43
0.0000000001
 40
0.0
 40
0.0
 40
0.0
 40
0.0
 40
1.0
 40
1.0
 40
1.0
 40
2.0
 40
2.0
 40
2.0
 40
3.0
 40
3.0
 40
3.0
 40
4.0
 40
4.0
 40
4.0
 40
4.0
 10
120.0245428844904
 20
95.20796981126746
 30
0.0
 10
118.1852064049155
 20
95.20796981126746
 30
0.0
 10
116.6941690788994
 20
96.69866262773506
 30
0.0
 10
116.6941690788994
 20
98.53834361685847
 30
0.0
 10
116.6941690788994
 20
100.3773355868848
 30
0.0
 10
118.1852064049155
 20
101.8687174224495
 30
0.0
 10
120.0245428844904
 20
101.8687174224495
 30
0.0
 10
121.8635348545168
 20
101.8687174224495
 30
0.0
 10
123.3545721805329
 20
100.3773355868848
 30
0.0
 10
123.3545721805329
 20
98.53834361685847
 30
0.0
 10
123.3545721805329
 20
96.69866262773506
 30
0.0
 10
121.8635348545168
 20
95.20796981126746
 30
0.0
 10
120.0245428844904
 20
95.20796981126746
 30
0.0
  0
SPLINE
  5
4D
330
3D
100
AcDbEntity
  8
Capa 2
370
     0
100
AcDbSpline
210
0.0
220
0.0
230
1.0
 70
    11
 71
     3
 72
    32
 73
    28
 74
     0
 42
0.0000000001
 43
0.0000000001
 40
0.0
 40
0.0
 40
0.0
 40
0.0
 40
1.0
 40
1.0
 40
1.0
 40
2.0
 40
2.0
 40
2.0
 40
3.0
 40
3.0
 40
3.0
 40
4.0
 40
4.0
 40
4.0
 40
5.0
 40
5.0
 40
5.0
 40
6.0
 40
6.0
 40
6.0
 40
7.0
 40
7.0
 40
7.0
 40
8.0
 40
8.0
 40
8.0
 40
9.0
 40
9.0
 40
9.0
 40
9.0
 10
116.5973618957639
 20
88.11589624533214
 30
0.0
 10
116.5973618957639
 20
89.05950789874207
 30
0.0
 10
115.8320339337156
 20
89.82500811556459
 30
0.0
 10
114.8880777707571
 20
89.82500811556459
 30
0.0
 10
113.944293862573
 20
89.82500811556459
 30
0.0
 10
113.1789659005247
 20
89.05950789874207
 30
0.0
 10
113.1789659005247
 20
88.11589624533214
 30
0.0
 10
113.1789659005247
 20
88.04458276878746
 30
0.0
 10
113.1851670723982
 20
87.9746473304369
 30
0.0
 10
113.1930907920142
 20
87.90540091118338
 30
0.0
 10
112.5741793880891
 20
87.51231551631636
 30
0.0
 10
112.1616292037304
 20
86.82226289062082
 30
0.0
 10
112.1616292037304
 20
86.03402504359566
 30
0.0
 10
112.1616292037304
 20
84.83582083382576
 30
0.0
 10
113.1123033028851
 20
83.86223684969417
 30
0.0
 10
114.3005167357478
 20
83.82020668477412
 30
0.0
 10
114.2733004814143
 20
83.72098793479893
 30
0.0
 10
114.2538356919227
 20
83.618668598887
 30
0.0
 10
114.2538356919227
 20
83.5111816197472
 30
0.0
 10
114.2538356919227
 20
82.86350366852024
 30
0.0
 10
114.7783514795519
 20
82.33916013566521
 30
0.0
 10
115.4256849212304
 20
82.33916013566521
 30
0.0
 10
116.0728461081346
 20
82.33916013566521
 30
0.0
 10
116.5973618957639
 20
82.86350366852024
 30
0.0
 10
116.5973618957639
 20
83.5111816197472
 30
0.0
 10
116.5973618957639
 20
83.5111816197472
 30
0.0
 10
116.5973618957639
 20
88.11589624533214
 30
0.0
 10
116.5973618957639
 20
88.11589624533214
 30
0.0
  0
INSERT
  5
4F
330
3D
100
AcDbEntity
  8
Capa 2
100
AcDbBlockReference
  2
block 3
 10
0.0
 20
0.0
 30
0.0
  0
SPLINE
  5
5E
330
3D
100
AcDbEntity
  8
Capa 2
370
     0
100
AcDbSpline
210
0.0
220
0.0
230
1.0
 70
    11
 71
     3
 72
    17
 73
    13
 74
     0
 42
0.0000000001
 43
0.0000000001
 40
0.0
 40
0.0
 40
0.0
 40
0.0
 40
1.0
 40
1.0
 40
1.0
 40
2.0
 40
2.0
 40
2.0
 40
3.0
 40
3.0
 40
3.0
 40
4.0
 40
4.0
 40
4.0
 40
4.0
 10
119.3112358642694
 20
69.74802515617411
 30
0.0
 10
119.4745333902703
 20
69.74802515617411
 30
0.0
 10
119.6068250569039
 20
69.61607799908904
 30
0.0
 10
119.6068250569039
 20
69.4527804730882
 30
0.0
 10
119.6068250569039
 20
69.28982745663588
 30
0.0
 10
119.4745333902703
 20
69.15753579000229
 30
0.0
 10
119.3112358642694
 20
69.15753579000229
 30
0.0
 10
119.1484551025914
 20
69.15753579000229
 30
0.0
 10
119.016335690732
 20
69.28982745663588
 30
0.0
 10
119.016335690732
 20
69.4527804730882
 30
0.0
 10
119.016335690732
 20
69.61607799908904
 30
0.0
 10
119.1484551025914
 20
69.74802515617411
 30
0.0
 10
119.3112358642694
 20
69.74802515617411
 30
0.0
  0
HATCH
  5
5F
330
3D
100
AcDbEntity
  8
Capa 2
 62
     7
100
AcDbHatch
 10
0.0
 20
0.0
 30
0.0
210
0.0
220
0.0
230
1.0
  2
SOLID
 70
     1
 71
     0
 91
        1
 92
        1
 93
        2
 72
     4
 94
        3
 73
     0
 74
     0
 95
       17
 96
       13
 40
0.0
 40
0.0
 40
0.0
 40
0.0
 40
0.3527777776895833
 40
0.3527777776895833
 40
0.3527777776895833
 40
0.7055555553791667
 40
0.7055555553791667
 40
0.7055555553791667
 40
1.05833333306875
 40
1.05833333306875
 40
1.05833333306875
 40
1.411111110758333
 40
1.411111110758333
 40
1.411111110758333
 40
1.411111110758333
 10
119.3112358642694
 20
69.74802515617411
 10
119.4745333902703
 20
69.74802515617411
 10
119.6068250569039
 20
69.61607799908904
 10
119.6068250569039
 20
69.4527804730882
 10
119.6068250569039
 20
69.28982745663588
 10
119.4745333902703
 20
69.15753579000229
 10
119.3112358642694
 20
69.15753579000229
 10
119.1484551025914
 20
69.15753579000229
 10
119.016335690732
 20
69.28982745663588
 10
119.016335690732
 20
69.4527804730882
 10
119.016335690732
 20
69.61607799908904
 10
119.1484551025914
 20
69.74802515617411
 10
119.3112358642694
 20
69.74802515617411
 72
     1
 10
119.3112358642694
 20
69.74802515617411
 11
119.3112358642694
 21
69.74802515617411
 97
        0
 75
     2
 76
     1
 98
        0
  0
SPLINE
  5
60
330
3D
100
AcDbEntity
  8
Capa 2
370
     0
100
AcDbSpline
210
0.0
220
0.0
230
1.0
 70
    11
 71
     3
 72
    17
 73
    13
 74
     0
 42
0.0000000001
 43
0.0000000001
 40
0.0
 40
0.0
 40
0.0
 40
0.0
 40
1.0
 40
1.0
 40
1.0
 40
2.0
 40
2.0
 40
2.0
 40
3.0
 40
3.0
 40
3.0
 40
4.0
 40
4.0
 40
4.0
 40
4.0
 10
117.9378485490746
 20
70.31267630620655
 30
0.0
 10
118.1009738203011
 20
70.31267630620655
 30
0.0
 10
118.2330932321605
 20
70.18038463957296
 30
0.0
 10
118.2330932321605
 20
70.01708711357212
 30
0.0
 10
118.2330932321605
 20
69.85447860666832
 30
0.0
 10
118.1009738203011
 20
69.72218694003473
 30
0.0
 10
117.9378485490746
 20
69.72218694003473
 30
0.0
 10
117.7745510230737
 20
69.72218694003473
 30
0.0
 10
117.6424316112144
 20
69.85447860666832
 30
0.0
 10
117.6424316112144
 20
70.01708711357212
 30
0.0
 10
117.6424316112144
 20
70.18038463957296
 30
0.0
 10
117.7745510230737
 20
70.31267630620655
 30
0.0
 10
117.9378485490746
 20
70.31267630620655
 30
0.0
  0
HATCH
  5
61
330
3D
100
AcDbEntity
  8
Capa 2
 62
     7
100
AcDbHatch
 10
0.0
 20
0.0
 30
0.0
210
0.0
220
0.0
230
1.0
  2
SOLID
 70
     1
 71
     0
 91
        1
 92
        1
 93
        2
 72
     4
 94
        3
 73
     0
 74
     0
 95
       17
 96
       13
 40
0.0
 40
0.0
 40
0.0
 40
0.0
 40
0.3527777776895833
 40
0.3527777776895833
 40
0.3527777776895833
 40
0.7055555553791667
 40
0.7055555553791667
 40
0.7055555553791667
 40
1.05833333306875
 40
1.05833333306875
 40
1.05833333306875
 40
1.411111110758333
 40
1.411111110758333
 40
1.411111110758333
 40
1.411111110758333
 10
117.9378485490746
 20
70.31267630620655
 10
118.1009738203011
 20
70.31267630620655
 10
118.2330932321605
 20
70.18038463957296
 10
118.2330932321605
 20
70.01708711357212
 10
118.2330932321605
 20
69.85447860666832
 10
118.1009738203011
 20
69.72218694003473
 10
117.9378485490746
 20
69.72218694003473
 10
117.7745510230737
 20
69.72218694003473
 10
117.6424316112144
 20
69.85447860666832
 10
117.6424316112144
 20
70.01708711357212
 10
117.6424316112144
 20
70.18038463957296
 10
117.7745510230737
 20
70.31267630620655
 10
117.9378485490746
 20
70.31267630620655
 72
     1
 10
117.9378485490746
 20
70.31267630620655
 11
117.9378485490746
 21
70.31267630620655
 97
        0
 75
     2
 76
     1
 98
        0
  0
SPLINE
  5
62
330
3D
100
AcDbEntity
  8
Capa 2
370
     0
100
AcDbSpline
210
0.0
220
0.0
230
1.0
 70
    11
 71
     3
 72
    17
 73
    13
 74
     0
 42
0.0000000001
 43
0.0000000001
 40
0.0
 40
0.0
 40
0.0
 40
0.0
 40
1.0
 40
1.0
 40
1.0
 40
2.0
 40
2.0
 40
2.0
 40
3.0
 40
3.0
 40
3.0
 40
4.0
 40
4.0
 40
4.0
 40
4.0
 10
116.9127603874385
 20
71.33276907938904
 30
0.0
 10
117.0755411491165
 20
71.33276907938904
 30
0.0
 10
117.2073160514273
 20
71.20013290320692
 30
0.0
 10
117.2073160514273
 20
71.0371798867546
 30
0.0
 10
117.2073160514273
 20
70.8745713798508
 30
0.0
 10
117.0755411491165
 20
70.74193520366869
 30
0.0
 10
116.9127603874385
 20
70.74193520366869
 30
0.0
 10
116.7494628614376
 20
70.74193520366869
 30
0.0
 10
116.617171194804
 20
70.8745713798508
 30
0.0
 10
116.617171194804
 20
71.0371798867546
 30
0.0
 10
116.617171194804
 20
71.20013290320692
 30
0.0
 10
116.7494628614376
 20
71.33276907938904
 30
0.0
 10
116.9127603874385
 20
71.33276907938904
 30
0.0
  0
HATCH
  5
63
330
3D
100
AcDbEntity
  8
Capa 2
 62
     7
100
AcDbHatch
 10
0.0
 20
0.0
 30
0.0
210
0.0
220
0.0
230
1.0
  2
SOLID
 70
     1
 71
     0
 91
        1
 92
        1
 93
        2
 72
     4
 94
        3
 73
     0
 74
     0
 95
       17
 96
       13
 40
0.0
 40
0.0
 40
0.0
 40
0.0
 40
0.3527777776895833
 40
0.3527777776895833
 40
0.3527777776895833
 40
0.7055555553791667
 40
0.7055555553791667
 40
0.7055555553791667
 40
1.05833333306875
 40
1.05833333306875
 40
1.05833333306875
 40
1.411111110758333
 40
1.411111110758333
 40
1.411111110758333
 40
1.411111110758333
 10
116.9127603874385
 20
71.33276907938904
 10
117.0755411491165
 20
71.33276907938904
 10
117.2073160514273
 20
71.20013290320692
 10
117.2073160514273
 20
71.0371798867546
 10
117.2073160514273
 20
70.8745713798508
 10
117.0755411491165
 20
70.74193520366869
 10
116.9127603874385
 20
70.74193520366869
 10
116.7494628614376
 20
70.74193520366869
 10
116.617171194804
 20
70.8745713798508
 10
116.617171194804
 20
71.0371798867546
 10
116.617171194804
 20
71.20013290320692
 10
116.7494628614376
 20
71.33276907938904
 10
116.9127603874385
 20
71.33276907938904
 72
     1
 10
116.9127603874385
 20
71.33276907938904
 11
116.9127603874385
 21
71.33276907938904
 97
        0
 75
     2
 76
     1
 98
        0
  0
SPLINE
  5
64
330
3D
100
AcDbEntity
  8
Capa 2
370
     0
100
AcDbSpline
210
0.0
220
0.0
230
1.0
 70
    11
 71
     3
 72
    17
 73
    13
 74
     0
 42
0.0000000001
 43
0.0000000001
 40
0.0
 40
0.0
 40
0.0
 40
0.0
 40
1.0
 40
1.0
 40
1.0
 40
2.0
 40
2.0
 40
2.0
 40
3.0
 40
3.0
 40
3.0
 40
4.0
 40
4.0
 40
4.0
 40
4.0
 10
116.3403577725642
 20
72.7028835538729
 30
0.0
 10
116.5034830437908
 20
72.7028835538729
 30
0.0
 10
116.6356024556501
 20
72.57093639678783
 30
0.0
 10
116.6356024556501
 20
72.40763887078698
 30
0.0
 10
116.6356024556501
 20
72.24468585433466
 30
0.0
 10
116.5034830437908
 20
72.11239418770107
 30
0.0
 10
116.3403577725642
 20
72.11239418770107
 30
0.0
 10
116.1770602465634
 20
72.11239418770107
 30
0.0
 10
116.0449408347041
 20
72.24468585433466
 30
0.0
 10
116.0449408347041
 20
72.40763887078698
 30
0.0
 10
116.0449408347041
 20
72.57093639678783
 30
0.0
 10
116.1770602465634
 20
72.7028835538729
 30
0.0
 10
116.3403577725642
 20
72.7028835538729
 30
0.0
  0
HATCH
  5
65
330
3D
100
AcDbEntity
  8
Capa 2
 62
     7
100
AcDbHatch
 10
0.0
 20
0.0
 30
0.0
210
0.0
220
0.0
230
1.0
  2
SOLID
 70
     1
 71
     0
 91
        1
 92
        1
 93
        2
 72
     4
 94
        3
 73
     0
 74
     0
 95
       17
 96
       13
 40
0.0
 40
0.0
 40
0.0
 40
0.0
 40
0.3527777776895833
 40
0.3527777776895833
 40
0.3527777776895833
 40
0.7055555553791667
 40
0.7055555553791667
 40
0.7055555553791667
 40
1.05833333306875
 40
1.05833333306875
 40
1.05833333306875
 40
1.411111110758333
 40
1.411111110758333
 40
1.411111110758333
 40
1.411111110758333
 10
116.3403577725642
 20
72.7028835538729
 10
116.5034830437908
 20
72.7028835538729
 10
116.6356024556501
 20
72.57093639678783
 10
116.6356024556501
 20
72.40763887078698
 10
116.6356024556501
 20
72.24468585433466
 10
116.5034830437908
 20
72.11239418770107
 10
116.3403577725642
 20
72.11239418770107
 10
116.1770602465634
 20
72.11239418770107
 10
116.0449408347041
 20
72.24468585433466
 10
116.0449408347041
 20
72.40763887078698
 10
116.0449408347041
 20
72.57093639678783
 10
116.1770602465634
 20
72.7028835538729
 10
116.3403577725642
 20
72.7028835538729
 72
     1
 10
116.3403577725642
 20
72.7028835538729
 11
116.3403577725642
 21
72.7028835538729
 97
        0
 75
     2
 76
     1
 98
        0
  0
SPLINE
  5
66
330
3D
100
AcDbEntity
  8
Capa 2
370
     0
100
AcDbSpline
210
0.0
220
0.0
230
1.0
 70
    11
 71
     3
 72
    17
 73
    13
 74
     0
 42
0.0000000001
 43
0.0000000001
 40
0.0
 40
0.0
 40
0.0
 40
0.0
 40
1.0
 40
1.0
 40
1.0
 40
2.0
 40
2.0
 40
2.0
 40
3.0
 40
3.0
 40
3.0
 40
4.0
 40
4.0
 40
4.0
 40
4.0
 10
116.3363959127562
 20
74.14913463858078
 30
0.0
 10
116.4995211839828
 20
74.14913463858078
 30
0.0
 10
116.6316405958421
 20
74.01753199104424
 30
0.0
 10
116.6316405958421
 20
73.85423446504339
 30
0.0
 10
116.6316405958421
 20
73.69093693904254
 30
0.0
 10
116.4995211839828
 20
73.55898978195748
 30
0.0
 10
116.3363959127562
 20
73.55898978195748
 30
0.0
 10
116.1732706415296
 20
73.55898978195748
 30
0.0
 10
116.0411512296703
 20
73.69093693904254
 30
0.0
 10
116.0411512296703
 20
73.85423446504339
 30
0.0
 10
116.0411512296703
 20
74.01753199104424
 30
0.0
 10
116.1732706415296
 20
74.14913463858078
 30
0.0
 10
116.3363959127562
 20
74.14913463858078
 30
0.0
  0
HATCH
  5
67
330
3D
100
AcDbEntity
  8
Capa 2
 62
     7
100
AcDbHatch
 10
0.0
 20
0.0
 30
0.0
210
0.0
220
0.0
230
1.0
  2
SOLID
 70
     1
 71
     0
 91
        1
 92
        1
 93
        2
 72
     4
 94
        3
 73
     0
 74
     0
 95
       17
 96
       13
 40
0.0
 40
0.0
 40
0.0
 40
0.0
 40
0.3527777776895833
 40
0.3527777776895833
 40
0.3527777776895833
 40
0.7055555553791667
 40
0.7055555553791667
 40
0.7055555553791667
 40
1.05833333306875
 40
1.05833333306875
 40
1.05833333306875
 40
1.411111110758333
 40
1.411111110758333
 40
1.411111110758333
 40
1.411111110758333
 10
116.3363959127562
 20
74.14913463858078
 10
116.4995211839828
 20
74.14913463858078
 10
116.6316405958421
 20
74.01753199104424
 10
116.6316405958421
 20
73.85423446504339
 10
116.6316405958421
 20
73.69093693904254
 10
116.4995211839828
 20
73.55898978195748
 10
116.3363959127562
 20
73.55898978195748
 10
116.1732706415296
 20
73.55898978195748
 10
116.0411512296703
 20
73.69093693904254
 10
116.0411512296703
 20
73.85423446504339
 10
116.0411512296703
 20
74.01753199104424
 10
116.1732706415296
 20
74.14913463858078
 10
116.3363959127562
 20
74.14913463858078
 72
     1
 10
116.3363959127562
 20
74.14913463858078
 11
116.3363959127562
 21
74.14913463858078
 97
        0
 75
     2
 76
     1
 98
        0
  0
SPLINE
  5
68
330
3D
100
AcDbEntity
  8
Capa 2
370
     0
100
AcDbSpline
210
0.0
220
0.0
230
1.0
 70
    11
 71
     3
 72
    17
 73
    13
 74
     0
 42
0.0000000001
 43
0.0000000001
 40
0.0
 40
0.0
 40
0.0
 40
0.0
 40
1.0
 40
1.0
 40
1.0
 40
2.0
 40
2.0
 40
2.0
 40
3.0
 40
3.0
 40
3.0
 40
4.0
 40
4.0
 40
4.0
 40
4.0
 10
116.9010470627886
 20
75.5230387180984
 30
0.0
 10
117.0643445887895
 20
75.5230387180984
 30
0.0
 10
117.1962917458745
 20
75.39040254191629
 30
0.0
 10
117.1962917458745
 20
75.22744952546397
 30
0.0
 10
117.1962917458745
 20
75.06449650901166
 30
0.0
 10
117.0643445887895
 20
74.93254935192658
 30
0.0
 10
116.9010470627886
 20
74.93254935192658
 30
0.0
 10
116.7379217915621
 20
74.93254935192658
 30
0.0
 10
116.6058023797027
 20
75.06449650901166
 30
0.0
 10
116.6058023797027
 20
75.22744952546397
 30
0.0
 10
116.6058023797027
 20
75.39040254191629
 30
0.0
 10
116.7379217915621
 20
75.5230387180984
 30
0.0
 10
116.9010470627886
 20
75.5230387180984
 30
0.0
  0
HATCH
  5
69
330
3D
100
AcDbEntity
  8
Capa 2
 62
     7
100
AcDbHatch
 10
0.0
 20
0.0
 30
0.0
210
0.0
220
0.0
230
1.0
  2
SOLID
 70
     1
 71
     0
 91
        1
 92
        1
 93
        2
 72
     4
 94
        3
 73
     0
 74
     0
 95
       17
 96
       13
 40
0.0
 40
0.0
 40
0.0
 40
0.0
 40
0.3527777776895833
 40
0.3527777776895833
 40
0.3527777776895833
 40
0.7055555553791667
 40
0.7055555553791667
 40
0.7055555553791667
 40
1.05833333306875
 40
1.05833333306875
 40
1.05833333306875
 40
1.411111110758333
 40
1.411111110758333
 40
1.411111110758333
 40
1.411111110758333
 10
116.9010470627886
 20
75.5230387180984
 10
117.0643445887895
 20
75.5230387180984
 10
117.1962917458745
 20
75.39040254191629
 10
117.1962917458745
 20
75.22744952546397
 10
117.1962917458745
 20
75.06449650901166
 10
117.0643445887895
 20
74.93254935192658
 10
116.9010470627886
 20
74.93254935192658
 10
116.7379217915621
 20
74.93254935192658
 10
116.6058023797027
 20
75.06449650901166
 10
116.6058023797027
 20
75.22744952546397
 10
116.6058023797027
 20
75.39040254191629
 10
116.7379217915621
 20
75.5230387180984
 10
116.9010470627886
 20
75.5230387180984
 72
     1
 10
116.9010470627886
 20
75.5230387180984
 11
116.9010470627886
 21
75.5230387180984
 97
        0
 75
     2
 76
     1
 98
        0
  0
SPLINE
  5
6A
330
3D
100
AcDbEntity
  8
Capa 2
370
     0
100
AcDbSpline
210
0.0
220
0.0
230
1.0
 70
    11
 71
     3
 72
    17
 73
    13
 74
     0
 42
0.0000000001
 43
0.0000000001
 40
0.0
 40
0.0
 40
0.0
 40
0.0
 40
1.0
 40
1.0
 40
1.0
 40
2.0
 40
2.0
 40
2.0
 40
3.0
 40
3.0
 40
3.0
 40
4.0
 40
4.0
 40
4.0
 40
4.0
 10
117.9209675811968
 20
76.54795462496024
 30
0.0
 10
118.0840928524234
 20
76.54795462496024
 30
0.0
 10
118.2162122642828
 20
76.41635197742369
 30
0.0
 10
118.2162122642828
 20
76.25270994187433
 30
0.0
 10
118.2162122642828
 20
76.09010143497053
 30
0.0
 10
118.0840928524234
 20
75.95780976833694
 30
0.0
 10
117.9209675811968
 20
75.95780976833694
 30
0.0
 10
117.7578423099703
 20
75.95780976833694
 30
0.0
 10
117.6257228981109
 20
76.09010143497053
 30
0.0
 10
117.6257228981109
 20
76.25270994187433
 30
0.0
 10
117.6257228981109
 20
76.41635197742369
 30
0.0
 10
117.7578423099703
 20
76.54795462496024
 30
0.0
 10
117.9209675811968
 20
76.54795462496024
 30
0.0
  0
HATCH
  5
6B
330
3D
100
AcDbEntity
  8
Capa 2
 62
     7
100
AcDbHatch
 10
0.0
 20
0.0
 30
0.0
210
0.0
220
0.0
230
1.0
  2
SOLID
 70
     1
 71
     0
 91
        1
 92
        1
 93
        2
 72
     4
 94
        3
 73
     0
 74
     0
 95
       17
 96
       13
 40
0.0
 40
0.0
 40
0.0
 40
0.0
 40
0.3527777776895833
 40
0.3527777776895833
 40
0.3527777776895833
 40
0.7055555553791667
 40
0.7055555553791667
 40
0.7055555553791667
 40
1.05833333306875
 40
1.05833333306875
 40
1.05833333306875
 40
1.411111110758333
 40
1.411111110758333
 40
1.411111110758333
 40
1.411111110758333
 10
117.9209675811968
 20
76.54795462496024
 10
118.0840928524234
 20
76.54795462496024
 10
118.2162122642828
 20
76.41635197742369
 10
118.2162122642828
 20
76.25270994187433
 10
118.2162122642828
 20
76.09010143497053
 10
118.0840928524234
 20
75.95780976833694
 10
117.9209675811968
 20
75.95780976833694
 10
117.7578423099703
 20
75.95780976833694
 10
117.6257228981109
 20
76.09010143497053
 10
117.6257228981109
 20
76.25270994187433
 10
117.6257228981109
 20
76.41635197742369
 10
117.7578423099703
 20
76.54795462496024
 10
117.9209675811968
 20
76.54795462496024
 72
     1
 10
117.9209675811968
 20
76.54795462496024
 11
117.9209675811968
 21
76.54795462496024
 97
        0
 75
     2
 76
     1
 98
        0
  0
SPLINE
  5
6C
330
3D
100
AcDbEntity
  8
Capa 2
370
     0
100
AcDbSpline
210
0.0
220
0.0
230
1.0
 70
    11
 71
     3
 72
    17
 73
    13
 74
     0
 42
0.0000000001
 43
0.0000000001
 40
0.0
 40
0.0
 40
0.0
 40
0.0
 40
1.0
 40
1.0
 40
1.0
 40
2.0
 40
2.0
 40
2.0
 40
3.0
 40
3.0
 40
3.0
 40
4.0
 40
4.0
 40
4.0
 40
4.0
 10
120.7721286047896
 20
69.66258678813992
 30
0.0
 10
120.9352538760162
 20
69.66258678813992
 30
0.0
 10
121.0673732878755
 20
69.53098414060337
 30
0.0
 10
121.0673732878755
 20
69.36768661460252
 30
0.0
 10
121.0673732878755
 20
69.20438908860169
 30
0.0
 10
120.9352538760162
 20
69.07244193151662
 30
0.0
 10
120.7721286047896
 20
69.07244193151662
 30
0.0
 10
120.609003333563
 20
69.07244193151662
 30
0.0
 10
120.4765394121552
 20
69.20438908860169
 30
0.0
 10
120.4765394121552
 20
69.36768661460252
 30
0.0
 10
120.4765394121552
 20
69.53098414060337
 30
0.0
 10
120.609003333563
 20
69.66258678813992
 30
0.0
 10
120.7721286047896
 20
69.66258678813992
 30
0.0
  0
HATCH
  5
6D
330
3D
100
AcDbEntity
  8
Capa 2
 62
     7
100
AcDbHatch
 10
0.0
 20
0.0
 30
0.0
210
0.0
220
0.0
230
1.0
  2
SOLID
 70
     1
 71
     0
 91
        1
 92
        1
 93
        2
 72
     4
 94
        3
 73
     0
 74
     0
 95
       17
 96
       13
 40
0.0
 40
0.0
 40
0.0
 40
0.0
 40
0.3527777776895833
 40
0.3527777776895833
 40
0.3527777776895833
 40
0.7055555553791667
 40
0.7055555553791667
 40
0.7055555553791667
 40
1.05833333306875
 40
1.05833333306875
 40
1.05833333306875
 40
1.411111110758333
 40
1.411111110758333
 40
1.411111110758333
 40
1.411111110758333
 10
120.7721286047896
 20
69.66258678813992
 10
120.9352538760162
 20
69.66258678813992
 10
121.0673732878755
 20
69.53098414060337
 10
121.0673732878755
 20
69.36768661460252
 10
121.0673732878755
 20
69.20438908860169
 10
120.9352538760162
 20
69.07244193151662
 10
120.7721286047896
 20
69.07244193151662
 10
120.609003333563
 20
69.07244193151662
 10
120.4765394121552
 20
69.20438908860169
 10
120.4765394121552
 20
69.36768661460252
 10
120.4765394121552
 20
69.53098414060337
 10
120.609003333563
 20
69.66258678813992
 10
120.7721286047896
 20
69.66258678813992
 72
     1
 10
120.7721286047896
 20
69.66258678813992
 11
120.7721286047896
 21
69.66258678813992
 97
        0
 75
     2
 76
     1
 98
        0
  0
SPLINE
  5
6E
330
3D
100
AcDbEntity
  8
Capa 2
370
     0
100
AcDbSpline
210
0.0
220
0.0
230
1.0
 70
    11
 71
     3
 72
    17
 73
    13
 74
     0
 42
0.0000000001
 43
0.0000000001
 40
0.0
 40
0.0
 40
0.0
 40
0.0
 40
1.0
 40
1.0
 40
1.0
 40
2.0
 40
2.0
 40
2.0
 40
3.0
 40
3.0
 40
3.0
 40
4.0
 40
4.0
 40
4.0
 40
4.0
 10
122.128118187784
 20
70.32404512130788
 30
0.0
 10
122.2912434590105
 20
70.32404512130788
 30
0.0
 10
122.4237073804184
 20
70.19209796422281
 30
0.0
 10
122.4237073804184
 20
70.02845592867344
 30
0.0
 10
122.4237073804184
 20
69.86584742176966
 30
0.0
 10
122.2912434590105
 20
69.73355575513605
 30
0.0
 10
122.128118187784
 20
69.73355575513605
 30
0.0
 10
121.9653374261059
 20
69.73355575513605
 30
0.0
 10
121.832873504698
 20
69.86584742176966
 30
0.0
 10
121.832873504698
 20
70.02845592867344
 30
0.0
 10
121.832873504698
 20
70.19209796422281
 30
0.0
 10
121.9653374261059
 20
70.32404512130788
 30
0.0
 10
122.128118187784
 20
70.32404512130788
 30
0.0
  0
HATCH
  5
6F
330
3D
100
AcDbEntity
  8
Capa 2
 62
     7
100
AcDbHatch
 10
0.0
 20
0.0
 30
0.0
210
0.0
220
0.0
230
1.0
  2
SOLID
 70
     1
 71
     0
 91
        1
 92
        1
 93
        2
 72
     4
 94
        3
 73
     0
 74
     0
 95
       17
 96
       13
 40
0.0
 40
0.0
 40
0.0
 40
0.0
 40
0.3527777776895833
 40
0.3527777776895833
 40
0.3527777776895833
 40
0.7055555553791667
 40
0.7055555553791667
 40
0.7055555553791667
 40
1.05833333306875
 40
1.05833333306875
 40
1.05833333306875
 40
1.411111110758333
 40
1.411111110758333
 40
1.411111110758333
 40
1.411111110758333
 10
122.128118187784
 20
70.32404512130788
 10
122.2912434590105
 20
70.32404512130788
 10
122.4237073804184
 20
70.19209796422281
 10
122.4237073804184
 20
70.02845592867344
 10
122.4237073804184
 20
69.86584742176966
 10
122.2912434590105
 20
69.73355575513605
 10
122.128118187784
 20
69.73355575513605
 10
121.9653374261059
 20
69.73355575513605
 10
121.832873504698
 20
69.86584742176966
 10
121.832873504698
 20
70.02845592867344
 10
121.832873504698
 20
70.19209796422281
 10
121.9653374261059
 20
70.32404512130788
 10
122.128118187784
 20
70.32404512130788
 72
     1
 10
122.128118187784
 20
70.32404512130788
 11
122.128118187784
 21
70.32404512130788
 97
        0
 75
     2
 76
     1
 98
        0
  0
SPLINE
  5
70
330
3D
100
AcDbEntity
  8
Capa 2
370
     0
100
AcDbSpline
210
0.0
220
0.0
230
1.0
 70
    11
 71
     3
 72
    17
 73
    13
 74
     0
 42
0.0000000001
 43
0.0000000001
 40
0.0
 40
0.0
 40
0.0
 40
0.0
 40
1.0
 40
1.0
 40
1.0
 40
2.0
 40
2.0
 40
2.0
 40
3.0
 40
3.0
 40
3.0
 40
4.0
 40
4.0
 40
4.0
 40
4.0
 10
123.1480387061922
 20
71.34965004726676
 30
0.0
 10
123.3111639774187
 20
71.34965004726676
 30
0.0
 10
123.4436278988266
 20
71.21735838063316
 30
0.0
 10
123.4436278988266
 20
71.05406085463233
 30
0.0
 10
123.4436278988266
 20
70.89145234772853
 30
0.0
 10
123.3111639774187
 20
70.75916068109494
 30
0.0
 10
123.1480387061922
 20
70.75916068109494
 30
0.0
 10
122.9849134349656
 20
70.75916068109494
 30
0.0
 10
122.8527940231063
 20
70.89145234772853
 30
0.0
 10
122.8527940231063
 20
71.05406085463233
 30
0.0
 10
122.8527940231063
 20
71.21735838063316
 30
0.0
 10
122.9849134349656
 20
71.34965004726676
 30
0.0
 10
123.1480387061922
 20
71.34965004726676
 30
0.0
  0
HATCH
  5
71
330
3D
100
AcDbEntity
  8
Capa 2
 62
     7
100
AcDbHatch
 10
0.0
 20
0.0
 30
0.0
210
0.0
220
0.0
230
1.0
  2
SOLID
 70
     1
 71
     0
 91
        1
 92
        1
 93
        2
 72
     4
 94
        3
 73
     0
 74
     0
 95
       17
 96
       13
 40
0.0
 40
0.0
 40
0.0
 40
0.0
 40
0.3527777776895833
 40
0.3527777776895833
 40
0.3527777776895833
 40
0.7055555553791667
 40
0.7055555553791667
 40
0.7055555553791667
 40
1.05833333306875
 40
1.05833333306875
 40
1.05833333306875
 40
1.411111110758333
 40
1.411111110758333
 40
1.411111110758333
 40
1.411111110758333
 10
123.1480387061922
 20
71.34965004726676
 10
123.3111639774187
 20
71.34965004726676
 10
123.4436278988266
 20
71.21735838063316
 10
123.4436278988266
 20
71.05406085463233
 10
123.4436278988266
 20
70.89145234772853
 10
123.3111639774187
 20
70.75916068109494
 10
123.1480387061922
 20
70.75916068109494
 10
122.9849134349656
 20
70.75916068109494
 10
122.8527940231063
 20
70.89145234772853
 10
122.8527940231063
 20
71.05406085463233
 10
122.8527940231063
 20
71.21735838063316
 10
122.9849134349656
 20
71.34965004726676
 10
123.1480387061922
 20
71.34965004726676
 72
     1
 10
123.1480387061922
 20
71.34965004726676
 11
123.1480387061922
 21
71.34965004726676
 97
        0
 75
     2
 76
     1
 98
        0
  0
SPLINE
  5
72
330
3D
100
AcDbEntity
  8
Capa 2
370
     0
100
AcDbSpline
210
0.0
220
0.0
230
1.0
 70
    11
 71
     3
 72
    17
 73
    13
 74
     0
 42
0.0000000001
 43
0.0000000001
 40
0.0
 40
0.0
 40
0.0
 40
0.0
 40
1.0
 40
1.0
 40
1.0
 40
2.0
 40
2.0
 40
2.0
 40
3.0
 40
3.0
 40
3.0
 40
4.0
 40
4.0
 40
4.0
 40
4.0
 10
123.7126898562246
 20
72.72286510768734
 30
0.0
 10
123.8758151274512
 20
72.72286510768734
 30
0.0
 10
124.0079345393105
 20
72.59091795060228
 30
0.0
 10
124.0079345393105
 20
72.42762042460143
 30
0.0
 10
124.0079345393105
 20
72.26466740814911
 30
0.0
 10
123.8758151274512
 20
72.13237574151552
 30
0.0
 10
123.7126898562246
 20
72.13237574151552
 30
0.0
 10
123.549564584998
 20
72.13237574151552
 30
0.0
 10
123.4174451731387
 20
72.26466740814911
 30
0.0
 10
123.4174451731387
 20
72.42762042460143
 30
0.0
 10
123.4174451731387
 20
72.59091795060228
 30
0.0
 10
123.549564584998
 20
72.72286510768734
 30
0.0
 10
123.7126898562246
 20
72.72286510768734
 30
0.0
  0
HATCH
  5
73
330
3D
100
AcDbEntity
  8
Capa 2
 62
     7
100
AcDbHatch
 10
0.0
 20
0.0
 30
0.0
210
0.0
220
0.0
230
1.0
  2
SOLID
 70
     1
 71
     0
 91
        1
 92
        1
 93
        2
 72
     4
 94
        3
 73
     0
 74
     0
 95
       17
 96
       13
 40
0.0
 40
0.0
 40
0.0
 40
0.0
 40
0.3527777776895833
 40
0.3527777776895833
 40
0.3527777776895833
 40
0.7055555553791667
 40
0.7055555553791667
 40
0.7055555553791667
 40
1.05833333306875
 40
1.05833333306875
 40
1.05833333306875
 40
1.411111110758333
 40
1.411111110758333
 40
1.411111110758333
 40
1.411111110758333
 10
123.7126898562246
 20
72.72286510768734
 10
123.8758151274512
 20
72.72286510768734
 10
124.0079345393105
 20
72.59091795060228
 10
124.0079345393105
 20
72.42762042460143
 10
124.0079345393105
 20
72.26466740814911
 10
123.8758151274512
 20
72.13237574151552
 10
123.7126898562246
 20
72.13237574151552
 10
123.549564584998
 20
72.13237574151552
 10
123.4174451731387
 20
72.26466740814911
 10
123.4174451731387
 20
72.42762042460143
 10
123.4174451731387
 20
72.59091795060228
 10
123.549564584998
 20
72.72286510768734
 10
123.7126898562246
 20
72.72286510768734
 72
     1
 10
123.7126898562246
 20
72.72286510768734
 11
123.7126898562246
 21
72.72286510768734
 97
        0
 75
     2
 76
     1
 98
        0
  0
SPLINE
  5
74
330
3D
100
AcDbEntity
  8
Capa 2
370
     0
100
AcDbSpline
210
0.0
220
0.0
230
1.0
 70
    11
 71
     3
 72
    17
 73
    13
 74
     0
 42
0.0000000001
 43
0.0000000001
 40
0.0
 40
0.0
 40
0.0
 40
0.0
 40
1.0
 40
1.0
 40
1.0
 40
2.0
 40
2.0
 40
2.0
 40
3.0
 40
3.0
 40
3.0
 40
4.0
 40
4.0
 40
4.0
 40
4.0
 10
119.2915988200035
 20
77.12052949460876
 30
0.0
 10
119.4547240912301
 20
77.12052949460876
 30
0.0
 10
119.5864989935409
 20
76.98823782797517
 30
0.0
 10
119.5864989935409
 20
76.82494030197432
 30
0.0
 10
119.5864989935409
 20
76.661987285522
 30
0.0
 10
119.4547240912301
 20
76.53004012843694
 30
0.0
 10
119.2915988200035
 20
76.53004012843694
 30
0.0
 10
119.1283012940027
 20
76.53004012843694
 30
0.0
 10
118.9958373725948
 20
76.661987285522
 30
0.0
 10
118.9958373725948
 20
76.82494030197432
 30
0.0
 10
118.9958373725948
 20
76.98823782797517
 30
0.0
 10
119.1283012940027
 20
77.12052949460876
 30
0.0
 10
119.2915988200035
 20
77.12052949460876
 30
0.0
  0
HATCH
  5
75
330
3D
100
AcDbEntity
  8
Capa 2
 62
     7
100
AcDbHatch
 10
0.0
 20
0.0
 30
0.0
210
0.0
220
0.0
230
1.0
  2
SOLID
 70
     1
 71
     0
 91
        1
 92
        1
 93
        2
 72
     4
 94
        3
 73
     0
 74
     0
 95
       17
 96
       13
 40
0.0
 40
0.0
 40
0.0
 40
0.0
 40
0.3527777776895833
 40
0.3527777776895833
 40
0.3527777776895833
 40
0.7055555553791667
 40
0.7055555553791667
 40
0.7055555553791667
 40
1.05833333306875
 40
1.05833333306875
 40
1.05833333306875
 40
1.411111110758333
 40
1.411111110758333
 40
1.411111110758333
 40
1.411111110758333
 10
119.2915988200035
 20
77.12052949460876
 10
119.4547240912301
 20
77.12052949460876
 10
119.5864989935409
 20
76.98823782797517
 10
119.5864989935409
 20
76.82494030197432
 10
119.5864989935409
 20
76.661987285522
 10
119.4547240912301
 20
76.53004012843694
 10
119.2915988200035
 20
76.53004012843694
 10
119.1283012940027
 20
76.53004012843694
 10
118.9958373725948
 20
76.661987285522
 10
118.9958373725948
 20
76.82494030197432
 10
118.9958373725948
 20
76.98823782797517
 10
119.1283012940027
 20
77.12052949460876
 10
119.2915988200035
 20
77.12052949460876
 72
     1
 10
119.2915988200035
 20
77.12052949460876
 11
119.2915988200035
 21
77.12052949460876
 97
        0
 75
     2
 76
     1
 98
        0
  0
SPLINE
  5
76
330
3D
100
AcDbEntity
  8
Capa 2
370
     0
100
AcDbSpline
210
0.0
220
0.0
230
1.0
 70
    11
 71
     3
 72
    17
 73
    13
 74
     0
 42
0.0000000001
 43
0.0000000001
 40
0.0
 40
0.0
 40
0.0
 40
0.0
 40
1.0
 40
1.0
 40
1.0
 40
2.0
 40
2.0
 40
2.0
 40
3.0
 40
3.0
 40
3.0
 40
4.0
 40
4.0
 40
4.0
 40
4.0
 10
120.7378499047114
 20
77.12431909964253
 30
0.0
 10
120.900975175938
 20
77.12431909964253
 30
0.0
 10
121.0330945877973
 20
76.99202743300894
 30
0.0
 10
121.0330945877973
 20
76.8287299070081
 30
0.0
 10
121.0330945877973
 20
76.66577689055578
 30
0.0
 10
120.900975175938
 20
76.53382973347071
 30
0.0
 10
120.7378499047114
 20
76.53382973347071
 30
0.0
 10
120.5745523787105
 20
76.53382973347071
 30
0.0
 10
120.4422607120769
 20
76.66577689055578
 30
0.0
 10
120.4422607120769
 20
76.8287299070081
 30
0.0
 10
120.4422607120769
 20
76.99202743300894
 30
0.0
 10
120.5745523787105
 20
77.12431909964253
 30
0.0
 10
120.7378499047114
 20
77.12431909964253
 30
0.0
  0
HATCH
  5
77
330
3D
100
AcDbEntity
  8
Capa 2
 62
     7
100
AcDbHatch
 10
0.0
 20
0.0
 30
0.0
210
0.0
220
0.0
230
1.0
  2
SOLID
 70
     1
 71
     0
 91
        1
 92
        1
 93
        2
 72
     4
 94
        3
 73
     0
 74
     0
 95
       17
 96
       13
 40
0.0
 40
0.0
 40
0.0
 40
0.0
 40
0.3527777776895833
 40
0.3527777776895833
 40
0.3527777776895833
 40
0.7055555553791667
 40
0.7055555553791667
 40
0.7055555553791667
 40
1.05833333306875
 40
1.05833333306875
 40
1.05833333306875
 40
1.411111110758333
 40
1.411111110758333
 40
1.411111110758333
 40
1.411111110758333
 10
120.7378499047114
 20
77.12431909964253
 10
120.900975175938
 20
77.12431909964253
 10
121.0330945877973
 20
76.99202743300894
 10
121.0330945877973
 20
76.8287299070081
 10
121.0330945877973
 20
76.66577689055578
 10
120.900975175938
 20
76.53382973347071
 10
120.7378499047114
 20
76.53382973347071
 10
120.5745523787105
 20
76.53382973347071
 10
120.4422607120769
 20
76.66577689055578
 10
120.4422607120769
 20
76.8287299070081
 10
120.4422607120769
 20
76.99202743300894
 10
120.5745523787105
 20
77.12431909964253
 10
120.7378499047114
 20
77.12431909964253
 72
     1
 10
120.7378499047114
 20
77.12431909964253
 11
120.7378499047114
 21
77.12431909964253
 97
        0
 75
     2
 76
     1
 98
        0
  0
SPLINE
  5
78
330
3D
100
AcDbEntity
  8
Capa 2
370
     0
100
AcDbSpline
210
0.0
220
0.0
230
1.0
 70
    11
 71
     3
 72
    17
 73
    13
 74
     0
 42
0.0000000001
 43
0.0000000001
 40
0.0
 40
0.0
 40
0.0
 40
0.0
 40
1.0
 40
1.0
 40
1.0
 40
2.0
 40
2.0
 40
2.0
 40
3.0
 40
3.0
 40
3.0
 40
4.0
 40
4.0
 40
4.0
 40
4.0
 10
122.1112372199062
 20
76.55966794961009
 30
0.0
 10
122.2745347459071
 20
76.55966794961009
 30
0.0
 10
122.4066541577664
 20
76.42772079252502
 30
0.0
 10
122.4066541577664
 20
76.26442326652418
 30
0.0
 10
122.4066541577664
 20
76.10147025007186
 30
0.0
 10
122.2745347459071
 20
75.96917858343826
 30
0.0
 10
122.1112372199062
 20
75.96917858343826
 30
0.0
 10
121.9481119486796
 20
75.96917858343826
 30
0.0
 10
121.8156480272718
 20
76.10147025007186
 30
0.0
 10
121.8156480272718
 20
76.26442326652418
 30
0.0
 10
121.8156480272718
 20
76.42772079252502
 30
0.0
 10
121.9481119486796
 20
76.55966794961009
 30
0.0
 10
122.1112372199062
 20
76.55966794961009
 30
0.0
  0
HATCH
  5
79
330
3D
100
AcDbEntity
  8
Capa 2
 62
     7
100
AcDbHatch
 10
0.0
 20
0.0
 30
0.0
210
0.0
220
0.0
230
1.0
  2
SOLID
 70
     1
 71
     0
 91
        1
 92
        1
 93
        2
 72
     4
 94
        3
 73
     0
 74
     0
 95
       17
 96
       13
 40
0.0
 40
0.0
 40
0.0
 40
0.0
 40
0.3527777776895833
 40
0.3527777776895833
 40
0.3527777776895833
 40
0.7055555553791667
 40
0.7055555553791667
 40
0.7055555553791667
 40
1.05833333306875
 40
1.05833333306875
 40
1.05833333306875
 40
1.411111110758333
 40
1.411111110758333
 40
1.411111110758333
 40
1.411111110758333
 10
122.1112372199062
 20
76.55966794961009
 10
122.2745347459071
 20
76.55966794961009
 10
122.4066541577664
 20
76.42772079252502
 10
122.4066541577664
 20
76.26442326652418
 10
122.4066541577664
 20
76.10147025007186
 10
122.2745347459071
 20
75.96917858343826
 10
122.1112372199062
 20
75.96917858343826
 10
121.9481119486796
 20
75.96917858343826
 10
121.8156480272718
 20
76.10147025007186
 10
121.8156480272718
 20
76.26442326652418
 10
121.8156480272718
 20
76.42772079252502
 10
121.9481119486796
 20
76.55966794961009
 10
122.1112372199062
 20
76.55966794961009
 72
     1
 10
122.1112372199062
 20
76.55966794961009
 11
122.1112372199062
 21
76.55966794961009
 97
        0
 75
     2
 76
     1
 98
        0
  0
SPLINE
  5
7A
330
3D
100
AcDbEntity
  8
Capa 2
370
     0
100
AcDbSpline
210
0.0
220
0.0
230
1.0
 70
    11
 71
     3
 72
    17
 73
    13
 74
     0
 42
0.0000000001
 43
0.0000000001
 40
0.0
 40
0.0
 40
0.0
 40
0.0
 40
1.0
 40
1.0
 40
1.0
 40
2.0
 40
2.0
 40
2.0
 40
3.0
 40
3.0
 40
3.0
 40
4.0
 40
4.0
 40
4.0
 40
4.0
 10
123.1366698910908
 20
75.53991968597613
 30
0.0
 10
123.2997951623174
 20
75.53991968597613
 30
0.0
 10
123.4319145741767
 20
75.40762801934254
 30
0.0
 10
123.4319145741767
 20
75.24467500289022
 30
0.0
 10
123.4319145741767
 20
75.08137747688939
 30
0.0
 10
123.2997951623174
 20
74.94908581025578
 30
0.0
 10
123.1366698910908
 20
74.94908581025578
 30
0.0
 10
122.9738891294128
 20
74.94908581025578
 30
0.0
 10
122.8414252080049
 20
75.08137747688939
 30
0.0
 10
122.8414252080049
 20
75.24467500289022
 30
0.0
 10
122.8414252080049
 20
75.40762801934254
 30
0.0
 10
122.9738891294128
 20
75.53991968597613
 30
0.0
 10
123.1366698910908
 20
75.53991968597613
 30
0.0
  0
HATCH
  5
7B
330
3D
100
AcDbEntity
  8
Capa 2
 62
     7
100
AcDbHatch
 10
0.0
 20
0.0
 30
0.0
210
0.0
220
0.0
230
1.0
  2
SOLID
 70
     1
 71
     0
 91
        1
 92
        1
 93
        2
 72
     4
 94
        3
 73
     0
 74
     0
 95
       17
 96
       13
 40
0.0
 40
0.0
 40
0.0
 40
0.0
 40
0.3527777776895833
 40
0.3527777776895833
 40
0.3527777776895833
 40
0.7055555553791667
 40
0.7055555553791667
 40
0.7055555553791667
 40
1.05833333306875
 40
1.05833333306875
 40
1.05833333306875
 40
1.411111110758333
 40
1.411111110758333
 40
1.411111110758333
 40
1.411111110758333
 10
123.1366698910908
 20
75.53991968597613
 10
123.2997951623174
 20
75.53991968597613
 10
123.4319145741767
 20
75.40762801934254
 10
123.4319145741767
 20
75.24467500289022
 10
123.4319145741767
 20
75.08137747688939
 10
123.2997951623174
 20
74.94908581025578
 10
123.1366698910908
 20
74.94908581025578
 10
122.9738891294128
 20
74.94908581025578
 10
122.8414252080049
 20
75.08137747688939
 10
122.8414252080049
 20
75.24467500289022
 10
122.8414252080049
 20
75.40762801934254
 10
122.9738891294128
 20
75.53991968597613
 10
123.1366698910908
 20
75.53991968597613
 72
     1
 10
123.1366698910908
 20
75.53991968597613
 11
123.1366698910908
 21
75.53991968597613
 97
        0
 75
     2
 76
     1
 98
        0
  0
SPLINE
  5
7C
330
3D
100
AcDbEntity
  8
Capa 2
370
     0
100
AcDbSpline
210
0.0
220
0.0
230
1.0
 70
    11
 71
     3
 72
    17
 73
    13
 74
     0
 42
0.0000000001
 43
0.0000000001
 40
0.0
 40
0.0
 40
0.0
 40
0.0
 40
1.0
 40
1.0
 40
1.0
 40
2.0
 40
2.0
 40
2.0
 40
3.0
 40
3.0
 40
3.0
 40
4.0
 40
4.0
 40
4.0
 40
4.0
 10
123.4704996436115
 20
74.04853785041148
 30
0.0
 10
123.5669623171985
 20
74.1797959883995
 30
0.0
 10
123.7517916899822
 20
74.20839028092708
 30
0.0
 10
123.8833943375187
 20
74.11192760734008
 30
0.0
 10
124.014824730281
 20
74.01615395285013
 30
0.0
 10
124.0435912775829
 20
73.8308078157437
 30
0.0
 10
123.9471286039959
 20
73.6998941873042
 30
0.0
 10
123.8506659304089
 20
73.56794703021913
 30
0.0
 10
123.665664302851
 20
73.53969724724008
 30
0.0
 10
123.5342339100887
 20
73.63581541127854
 30
0.0
 10
123.4024590077779
 20
73.73227808486554
 30
0.0
 10
123.3740369700245
 20
73.91693520287494
 30
0.0
 10
123.4704996436115
 20
74.04853785041148
 30
0.0
  0
HATCH
  5
7D
330
3D
100
AcDbEntity
  8
Capa 2
 62
     7
100
AcDbHatch
 10
0.0
 20
0.0
 30
0.0
210
0.0
220
0.0
230
1.0
  2
SOLID
 70
     1
 71
     0
 91
        1
 92
        1
 93
        2
 72
     4
 94
        3
 73
     0
 74
     0
 95
       17
 96
       13
 40
0.0
 40
0.0
 40
0.0
 40
0.0
 40
0.3527777776895833
 40
0.3527777776895833
 40
0.3527777776895833
 40
0.7055555553791667
 40
0.7055555553791667
 40
0.7055555553791667
 40
1.05833333306875
 40
1.05833333306875
 40
1.05833333306875
 40
1.411111110758333
 40
1.411111110758333
 40
1.411111110758333
 40
1.411111110758333
 10
123.4704996436115
 20
74.04853785041148
 10
123.5669623171985
 20
74.1797959883995
 10
123.7517916899822
 20
74.20839028092708
 10
123.8833943375187
 20
74.11192760734008
 10
124.014824730281
 20
74.01615395285013
 10
124.0435912775829
 20
73.8308078157437
 10
123.9471286039959
 20
73.6998941873042
 10
123.8506659304089
 20
73.56794703021913
 10
123.665664302851
 20
73.53969724724008
 10
123.5342339100887
 20
73.63581541127854
 10
123.4024590077779
 20
73.73227808486554
 10
123.3740369700245
 20
73.91693520287494
 10
123.4704996436115
 20
74.04853785041148
 72
     1
 10
123.4704996436115
 20
74.04853785041148
 11
123.4704996436115
 21
74.04853785041148
 97
        0
 75
     2
 76
     1
 98
        0
  0
SPLINE
  5
7E
330
3D
100
AcDbEntity
  8
Capa 2
370
     0
100
AcDbSpline
210
0.0
220
0.0
230
1.0
 70
    11
 71
     3
 72
    17
 73
    13
 74
     0
 42
0.0000000001
 43
0.0000000001
 40
0.0
 40
0.0
 40
0.0
 40
0.0
 40
1.0
 40
1.0
 40
1.0
 40
2.0
 40
2.0
 40
2.0
 40
3.0
 40
3.0
 40
3.0
 40
4.0
 40
4.0
 40
4.0
 40
4.0
 10
119.5923556558658
 20
71.06784123657332
 30
0.0
 10
119.6910576415182
 20
71.06784123657332
 30
0.0
 10
119.7713283663245
 20
70.987570511767
 30
0.0
 10
119.7713283663245
 20
70.88869627134032
 30
0.0
 10
119.7713283663245
 20
70.79016654046218
 30
0.0
 10
119.6910576415182
 20
70.70989581565587
 30
0.0
 10
119.5923556558658
 20
70.70989581565587
 30
0.0
 10
119.4934814154391
 20
70.70989581565587
 30
0.0
 10
119.4132106906328
 20
70.79016654046218
 30
0.0
 10
119.4132106906328
 20
70.88869627134032
 30
0.0
 10
119.4132106906328
 20
70.987570511767
 30
0.0
 10
119.4934814154391
 20
71.06784123657332
 30
0.0
 10
119.5923556558658
 20
71.06784123657332
 30
0.0
  0
HATCH
  5
7F
330
3D
100
AcDbEntity
  8
Capa 2
 62
     7
100
AcDbHatch
 10
0.0
 20
0.0
 30
0.0
210
0.0
220
0.0
230
1.0
  2
SOLID
 70
     1
 71
     0
 91
        1
 92
        1
 93
        2
 72
     4
 94
        3
 73
     0
 74
     0
 95
       17
 96
       13
 40
0.0
 40
0.0
 40
0.0
 40
0.0
 40
0.3527777776895833
 40
0.3527777776895833
 40
0.3527777776895833
 40
0.7055555553791667
 40
0.7055555553791667
 40
0.7055555553791667
 40
1.05833333306875
 40
1.05833333306875
 40
1.05833333306875
 40
1.411111110758333
 40
1.411111110758333
 40
1.411111110758333
 40
1.411111110758333
 10
119.5923556558658
 20
71.06784123657332
 10
119.6910576415182
 20
71.06784123657332
 10
119.7713283663245
 20
70.987570511767
 10
119.7713283663245
 20
70.88869627134032
 10
119.7713283663245
 20
70.79016654046218
 10
119.6910576415182
 20
70.70989581565587
 10
119.5923556558658
 20
70.70989581565587
 10
119.4934814154391
 20
70.70989581565587
 10
119.4132106906328
 20
70.79016654046218
 10
119.4132106906328
 20
70.88869627134032
 10
119.4132106906328
 20
70.987570511767
 10
119.4934814154391
 20
71.06784123657332
 10
119.5923556558658
 20
71.06784123657332
 72
     1
 10
119.5923556558658
 20
71.06784123657332
 11
119.5923556558658
 21
71.06784123657332
 97
        0
 75
     2
 76
     1
 98
        0
  0
SPLINE
  5
80
330
3D
100
AcDbEntity
  8
Capa 2
370
     0
100
AcDbSpline
210
0.0
220
0.0
230
1.0
 70
    11
 71
     3
 72
    17
 73
    13
 74
     0
 42
0.0000000001
 43
0.0000000001
 40
0.0
 40
0.0
 40
0.0
 40
0.0
 40
1.0
 40
1.0
 40
1.0
 40
2.0
 40
2.0
 40
2.0
 40
3.0
 40
3.0
 40
3.0
 40
4.0
 40
4.0
 40
4.0
 40
4.0
 10
118.7601928414037
 20
71.40993921825863
 30
0.0
 10
118.8585503175076
 20
71.40993921825863
 30
0.0
 10
118.9389932970882
 20
71.33001300300083
 30
0.0
 10
118.9389932970882
 20
71.23113876257416
 30
0.0
 10
118.9389932970882
 20
71.1322645221475
 30
0.0
 10
118.8585503175076
 20
71.05199379734117
 30
0.0
 10
118.7601928414037
 20
71.05199379734117
 30
0.0
 10
118.6611463462028
 20
71.05199379734117
 30
0.0
 10
118.5808756213965
 20
71.1322645221475
 30
0.0
 10
118.5808756213965
 20
71.23113876257416
 30
0.0
 10
118.5808756213965
 20
71.33001300300083
 30
0.0
 10
118.6611463462028
 20
71.40993921825863
 30
0.0
 10
118.7601928414037
 20
71.40993921825863
 30
0.0
  0
HATCH
  5
81
330
3D
100
AcDbEntity
  8
Capa 2
 62
     7
100
AcDbHatch
 10
0.0
 20
0.0
 30
0.0
210
0.0
220
0.0
230
1.0
  2
SOLID
 70
     1
 71
     0
 91
        1
 92
        1
 93
        2
 72
     4
 94
        3
 73
     0
 74
     0
 95
       17
 96
       13
 40
0.0
 40
0.0
 40
0.0
 40
0.0
 40
0.3527777776895833
 40
0.3527777776895833
 40
0.3527777776895833
 40
0.7055555553791667
 40
0.7055555553791667
 40
0.7055555553791667
 40
1.05833333306875
 40
1.05833333306875
 40
1.05833333306875
 40
1.411111110758333
 40
1.411111110758333
 40
1.411111110758333
 40
1.411111110758333
 10
118.7601928414037
 20
71.40993921825863
 10
118.8585503175076
 20
71.40993921825863
 10
118.9389932970882
 20
71.33001300300083
 10
118.9389932970882
 20
71.23113876257416
 10
118.9389932970882
 20
71.1322645221475
 10
118.8585503175076
 20
71.05199379734117
 10
118.7601928414037
 20
71.05199379734117
 10
118.6611463462028
 20
71.05199379734117
 10
118.5808756213965
 20
71.1322645221475
 10
118.5808756213965
 20
71.23113876257416
 10
118.5808756213965
 20
71.33001300300083
 10
118.6611463462028
 20
71.40993921825863
 10
118.7601928414037
 20
71.40993921825863
 72
     1
 10
118.7601928414037
 20
71.40993921825863
 11
118.7601928414037
 21
71.40993921825863
 97
        0
 75
     2
 76
     1
 98
        0
  0
SPLINE
  5
82
330
3D
100
AcDbEntity
  8
Capa 2
370
     0
100
AcDbSpline
210
0.0
220
0.0
230
1.0
 70
    11
 71
     3
 72
    17
 73
    13
 74
     0
 42
0.0000000001
 43
0.0000000001
 40
0.0
 40
0.0
 40
0.0
 40
0.0
 40
1.0
 40
1.0
 40
1.0
 40
2.0
 40
2.0
 40
2.0
 40
3.0
 40
3.0
 40
3.0
 40
4.0
 40
4.0
 40
4.0
 40
4.0
 10
118.1385253610904
 20
72.02798934831245
 30
0.0
 10
118.2372273467428
 20
72.02798934831245
 30
0.0
 10
118.3176703263234
 20
71.94771862350613
 30
0.0
 10
118.3176703263234
 20
71.84918889262798
 30
0.0
 10
118.3176703263234
 20
71.75031465220131
 30
0.0
 10
118.2372273467428
 20
71.67004392739499
 30
0.0
 10
118.1385253610904
 20
71.67004392739499
 30
0.0
 10
118.0394788658894
 20
71.67004392739499
 30
0.0
 10
117.9595526506317
 20
71.75031465220131
 30
0.0
 10
117.9595526506317
 20
71.84918889262798
 30
0.0
 10
117.9595526506317
 20
71.94771862350613
 30
0.0
 10
118.0394788658894
 20
72.02798934831245
 30
0.0
 10
118.1385253610904
 20
72.02798934831245
 30
0.0
  0
HATCH
  5
83
330
3D
100
AcDbEntity
  8
Capa 2
 62
     7
100
AcDbHatch
 10
0.0
 20
0.0
 30
0.0
210
0.0
220
0.0
230
1.0
  2
SOLID
 70
     1
 71
     0
 91
        1
 92
        1
 93
        2
 72
     4
 94
        3
 73
     0
 74
     0
 95
       17
 96
       13
 40
0.0
 40
0.0
 40
0.0
 40
0.0
 40
0.3527777776895833
 40
0.3527777776895833
 40
0.3527777776895833
 40
0.7055555553791667
 40
0.7055555553791667
 40
0.7055555553791667
 40
1.05833333306875
 40
1.05833333306875
 40
1.05833333306875
 40
1.411111110758333
 40
1.411111110758333
 40
1.411111110758333
 40
1.411111110758333
 10
118.1385253610904
 20
72.02798934831245
 10
118.2372273467428
 20
72.02798934831245
 10
118.3176703263234
 20
71.94771862350613
 10
118.3176703263234
 20
71.84918889262798
 10
118.3176703263234
 20
71.75031465220131
 10
118.2372273467428
 20
71.67004392739499
 10
118.1385253610904
 20
71.67004392739499
 10
118.0394788658894
 20
71.67004392739499
 10
117.9595526506317
 20
71.75031465220131
 10
117.9595526506317
 20
71.84918889262798
 10
117.9595526506317
 20
71.94771862350613
 10
118.0394788658894
 20
72.02798934831245
 10
118.1385253610904
 20
72.02798934831245
 72
     1
 10
118.1385253610904
 20
72.02798934831245
 11
118.1385253610904
 21
72.02798934831245
 97
        0
 75
     2
 76
     1
 98
        0
  0
SPLINE
  5
84
330
3D
100
AcDbEntity
  8
Capa 2
370
     0
100
AcDbSpline
210
0.0
220
0.0
230
1.0
 70
    11
 71
     3
 72
    17
 73
    13
 74
     0
 42
0.0000000001
 43
0.0000000001
 40
0.0
 40
0.0
 40
0.0
 40
0.0
 40
1.0
 40
1.0
 40
1.0
 40
2.0
 40
2.0
 40
2.0
 40
3.0
 40
3.0
 40
3.0
 40
4.0
 40
4.0
 40
4.0
 40
4.0
 10
117.7921210100485
 20
72.85860186980618
 30
0.0
 10
117.8904784861524
 20
72.85860186980618
 30
0.0
 10
117.9707492109587
 20
72.7786756545484
 30
0.0
 10
117.9707492109587
 20
72.6794569045732
 30
0.0
 10
117.9707492109587
 20
72.58092717369504
 30
0.0
 10
117.8904784861524
 20
72.50100095843726
 30
0.0
 10
117.7921210100485
 20
72.50100095843726
 30
0.0
 10
117.6930745148476
 20
72.50100095843726
 30
0.0
 10
117.6128037900413
 20
72.58092717369504
 30
0.0
 10
117.6128037900413
 20
72.6794569045732
 30
0.0
 10
117.6128037900413
 20
72.7786756545484
 30
0.0
 10
117.6930745148476
 20
72.85860186980618
 30
0.0
 10
117.7921210100485
 20
72.85860186980618
 30
0.0
  0
HATCH
  5
85
330
3D
100
AcDbEntity
  8
Capa 2
 62
     7
100
AcDbHatch
 10
0.0
 20
0.0
 30
0.0
210
0.0
220
0.0
230
1.0
  2
SOLID
 70
     1
 71
     0
 91
        1
 92
        1
 93
        2
 72
     4
 94
        3
 73
     0
 74
     0
 95
       17
 96
       13
 40
0.0
 40
0.0
 40
0.0
 40
0.0
 40
0.3527777776895833
 40
0.3527777776895833
 40
0.3527777776895833
 40
0.7055555553791667
 40
0.7055555553791667
 40
0.7055555553791667
 40
1.05833333306875
 40
1.05833333306875
 40
1.05833333306875
 40
1.411111110758333
 40
1.411111110758333
 40
1.411111110758333
 40
1.411111110758333
 10
117.7921210100485
 20
72.85860186980618
 10
117.8904784861524
 20
72.85860186980618
 10
117.9707492109587
 20
72.7786756545484
 10
117.9707492109587
 20
72.6794569045732
 10
117.9707492109587
 20
72.58092717369504
 10
117.8904784861524
 20
72.50100095843726
 10
117.7921210100485
 20
72.50100095843726
 10
117.6930745148476
 20
72.50100095843726
 10
117.6128037900413
 20
72.58092717369504
 10
117.6128037900413
 20
72.6794569045732
 10
117.6128037900413
 20
72.7786756545484
 10
117.6930745148476
 20
72.85860186980618
 10
117.7921210100485
 20
72.85860186980618
 72
     1
 10
117.7921210100485
 20
72.85860186980618
 11
117.7921210100485
 21
72.85860186980618
 97
        0
 75
     2
 76
     1
 98
        0
  0
SPLINE
  5
86
330
3D
100
AcDbEntity
  8
Capa 2
370
     0
100
AcDbSpline
210
0.0
220
0.0
230
1.0
 70
    11
 71
     3
 72
    17
 73
    13
 74
     0
 42
0.0000000001
 43
0.0000000001
 40
0.0
 40
0.0
 40
0.0
 40
0.0
 40
1.0
 40
1.0
 40
1.0
 40
2.0
 40
2.0
 40
2.0
 40
3.0
 40
3.0
 40
3.0
 40
4.0
 40
4.0
 40
4.0
 40
4.0
 10
117.7895371884346
 20
73.73503416125375
 30
0.0
 10
117.888239174087
 20
73.73503416125375
 30
0.0
 10
117.9685098988933
 20
73.65476343644742
 30
0.0
 10
117.9685098988933
 20
73.55623370556928
 30
0.0
 10
117.9685098988933
 20
73.4573594651426
 30
0.0
 10
117.888239174087
 20
73.37708874033629
 30
0.0
 10
117.7895371884346
 20
73.37708874033629
 30
0.0
 10
117.6904906932336
 20
73.37708874033629
 30
0.0
 10
117.6103922232016
 20
73.4573594651426
 30
0.0
 10
117.6103922232016
 20
73.55623370556928
 30
0.0
 10
117.6103922232016
 20
73.65476343644742
 30
0.0
 10
117.6904906932336
 20
73.73503416125375
 30
0.0
 10
117.7895371884346
 20
73.73503416125375
 30
0.0
  0
HATCH
  5
87
330
3D
100
AcDbEntity
  8
Capa 2
 62
     7
100
AcDbHatch
 10
0.0
 20
0.0
 30
0.0
210
0.0
220
0.0
230
1.0
  2
SOLID
 70
     1
 71
     0
 91
        1
 92
        1
 93
        2
 72
     4
 94
        3
 73
     0
 74
     0
 95
       17
 96
       13
 40
0.0
 40
0.0
 40
0.0
 40
0.0
 40
0.3527777776895833
 40
0.3527777776895833
 40
0.3527777776895833
 40
0.7055555553791667
 40
0.7055555553791667
 40
0.7055555553791667
 40
1.05833333306875
 40
1.05833333306875
 40
1.05833333306875
 40
1.411111110758333
 40
1.411111110758333
 40
1.411111110758333
 40
1.411111110758333
 10
117.7895371884346
 20
73.73503416125375
 10
117.888239174087
 20
73.73503416125375
 10
117.9685098988933
 20
73.65476343644742
 10
117.9685098988933
 20
73.55623370556928
 10
117.9685098988933
 20
73.4573594651426
 10
117.888239174087
 20
73.37708874033629
 10
117.7895371884346
 20
73.37708874033629
 10
117.6904906932336
 20
73.37708874033629
 10
117.6103922232016
 20
73.4573594651426
 10
117.6103922232016
 20
73.55623370556928
 10
117.6103922232016
 20
73.65476343644742
 10
117.6904906932336
 20
73.73503416125375
 10
117.7895371884346
 20
73.73503416125375
 72
     1
 10
117.7895371884346
 20
73.73503416125375
 11
117.7895371884346
 21
73.73503416125375
 97
        0
 75
     2
 76
     1
 98
        0
  0
SPLINE
  5
88
330
3D
100
AcDbEntity
  8
Capa 2
370
     0
100
AcDbSpline
210
0.0
220
0.0
230
1.0
 70
    11
 71
     3
 72
    17
 73
    13
 74
     0
 42
0.0000000001
 43
0.0000000001
 40
0.0
 40
0.0
 40
0.0
 40
0.0
 40
1.0
 40
1.0
 40
1.0
 40
2.0
 40
2.0
 40
2.0
 40
3.0
 40
3.0
 40
3.0
 40
4.0
 40
4.0
 40
4.0
 40
4.0
 10
118.1318074248941
 20
74.5673692304901
 30
0.0
 10
118.2305094105465
 20
74.5673692304901
 30
0.0
 10
118.3107801353529
 20
74.48744301523232
 30
0.0
 10
118.3107801353529
 20
74.38856877480563
 30
0.0
 10
118.3107801353529
 20
74.2900390439275
 30
0.0
 10
118.2305094105465
 20
74.20976831912117
 30
0.0
 10
118.1318074248941
 20
74.20976831912117
 30
0.0
 10
118.0329331844675
 20
74.20976831912117
 30
0.0
 10
117.9526624596611
 20
74.2900390439275
 30
0.0
 10
117.9526624596611
 20
74.38856877480563
 30
0.0
 10
117.9526624596611
 20
74.48744301523232
 30
0.0
 10
118.0329331844675
 20
74.5673692304901
 30
0.0
 10
118.1318074248941
 20
74.5673692304901
 30
0.0
  0
HATCH
  5
89
330
3D
100
AcDbEntity
  8
Capa 2
 62
     7
100
AcDbHatch
 10
0.0
 20
0.0
 30
0.0
210
0.0
220
0.0
230
1.0
  2
SOLID
 70
     1
 71
     0
 91
        1
 92
        1
 93
        2
 72
     4
 94
        3
 73
     0
 74
     0
 95
       17
 96
       13
 40
0.0
 40
0.0
 40
0.0
 40
0.0
 40
0.3527777776895833
 40
0.3527777776895833
 40
0.3527777776895833
 40
0.7055555553791667
 40
0.7055555553791667
 40
0.7055555553791667
 40
1.05833333306875
 40
1.05833333306875
 40
1.05833333306875
 40
1.411111110758333
 40
1.411111110758333
 40
1.411111110758333
 40
1.411111110758333
 10
118.1318074248941
 20
74.5673692304901
 10
118.2305094105465
 20
74.5673692304901
 10
118.3107801353529
 20
74.48744301523232
 10
118.3107801353529
 20
74.38856877480563
 10
118.3107801353529
 20
74.2900390439275
 10
118.2305094105465
 20
74.20976831912117
 10
118.1318074248941
 20
74.20976831912117
 10
118.0329331844675
 20
74.20976831912117
 10
117.9526624596611
 20
74.2900390439275
 10
117.9526624596611
 20
74.38856877480563
 10
117.9526624596611
 20
74.48744301523232
 10
118.0329331844675
 20
74.5673692304901
 10
118.1318074248941
 20
74.5673692304901
 72
     1
 10
118.1318074248941
 20
74.5673692304901
 11
118.1318074248941
 21
74.5673692304901
 97
        0
 75
     2
 76
     1
 98
        0
  0
SPLINE
  5
8A
330
3D
100
AcDbEntity
  8
Capa 2
370
     0
100
AcDbSpline
210
0.0
220
0.0
230
1.0
 70
    11
 71
     3
 72
    17
 73
    13
 74
     0
 42
0.0000000001
 43
0.0000000001
 40
0.0
 40
0.0
 40
0.0
 40
0.0
 40
1.0
 40
1.0
 40
1.0
 40
2.0
 40
2.0
 40
2.0
 40
3.0
 40
3.0
 40
3.0
 40
4.0
 40
4.0
 40
4.0
 40
4.0
 10
118.749857554948
 20
75.18886445602918
 30
0.0
 10
118.8485595406004
 20
75.18886445602918
 30
0.0
 10
118.9288302654067
 20
75.10859373122285
 30
0.0
 10
118.9288302654067
 20
75.01006400034471
 30
0.0
 10
118.9288302654067
 20
74.91153426946657
 30
0.0
 10
118.8485595406004
 20
74.83126354466025
 30
0.0
 10
118.749857554948
 20
74.83126354466025
 30
0.0
 10
118.650811059747
 20
74.83126354466025
 30
0.0
 10
118.570712589715
 20
74.91153426946657
 30
0.0
 10
118.570712589715
 20
75.01006400034471
 30
0.0
 10
118.570712589715
 20
75.10859373122285
 30
0.0
 10
118.650811059747
 20
75.18886445602918
 30
0.0
 10
118.749857554948
 20
75.18886445602918
 30
0.0
  0
HATCH
  5
8B
330
3D
100
AcDbEntity
  8
Capa 2
 62
     7
100
AcDbHatch
 10
0.0
 20
0.0
 30
0.0
210
0.0
220
0.0
230
1.0
  2
SOLID
 70
     1
 71
     0
 91
        1
 92
        1
 93
        2
 72
     4
 94
        3
 73
     0
 74
     0
 95
       17
 96
       13
 40
0.0
 40
0.0
 40
0.0
 40
0.0
 40
0.3527777776895833
 40
0.3527777776895833
 40
0.3527777776895833
 40
0.7055555553791667
 40
0.7055555553791667
 40
0.7055555553791667
 40
1.05833333306875
 40
1.05833333306875
 40
1.05833333306875
 40
1.411111110758333
 40
1.411111110758333
 40
1.411111110758333
 40
1.411111110758333
 10
118.749857554948
 20
75.18886445602918
 10
118.8485595406004
 20
75.18886445602918
 10
118.9288302654067
 20
75.10859373122285
 10
118.9288302654067
 20
75.01006400034471
 10
118.9288302654067
 20
74.91153426946657
 10
118.8485595406004
 20
74.83126354466025
 10
118.749857554948
 20
74.83126354466025
 10
118.650811059747
 20
74.83126354466025
 10
118.570712589715
 20
74.91153426946657
 10
118.570712589715
 20
75.01006400034471
 10
118.570712589715
 20
75.10859373122285
 10
118.650811059747
 20
75.18886445602918
 10
118.749857554948
 20
75.18886445602918
 72
     1
 10
118.749857554948
 20
75.18886445602918
 11
118.749857554948
 21
75.18886445602918
 97
        0
 75
     2
 76
     1
 98
        0
  0
SPLINE
  5
8C
330
3D
100
AcDbEntity
  8
Capa 2
370
     0
100
AcDbSpline
210
0.0
220
0.0
230
1.0
 70
    11
 71
     3
 72
    17
 73
    13
 74
     0
 42
0.0000000001
 43
0.0000000001
 40
0.0
 40
0.0
 40
0.0
 40
0.0
 40
1.0
 40
1.0
 40
1.0
 40
2.0
 40
2.0
 40
2.0
 40
3.0
 40
3.0
 40
3.0
 40
4.0
 40
4.0
 40
4.0
 40
4.0
 10
120.4775729408008
 20
71.01616480429458
 30
0.0
 10
120.5762749264532
 20
71.01616480429458
 30
0.0
 10
120.6565456512595
 20
70.93589407948825
 30
0.0
 10
120.6565456512595
 20
70.83736434861011
 30
0.0
 10
120.6565456512595
 20
70.73849010818344
 30
0.0
 10
120.5762749264532
 20
70.65821938337712
 30
0.0
 10
120.4775729408008
 20
70.65821938337712
 30
0.0
 10
120.3786987003741
 20
70.65821938337712
 30
0.0
 10
120.2984279755678
 20
70.73849010818344
 30
0.0
 10
120.2984279755678
 20
70.83736434861011
 30
0.0
 10
120.2984279755678
 20
70.93589407948825
 30
0.0
 10
120.3786987003741
 20
71.01616480429458
 30
0.0
 10
120.4775729408008
 20
71.01616480429458
 30
0.0
  0
HATCH
  5
8D
330
3D
100
AcDbEntity
  8
Capa 2
 62
     7
100
AcDbHatch
 10
0.0
 20
0.0
 30
0.0
210
0.0
220
0.0
230
1.0
  2
SOLID
 70
     1
 71
     0
 91
        1
 92
        1
 93
        2
 72
     4
 94
        3
 73
     0
 74
     0
 95
       17
 96
       13
 40
0.0
 40
0.0
 40
0.0
 40
0.0
 40
0.3527777776895833
 40
0.3527777776895833
 40
0.3527777776895833
 40
0.7055555553791667
 40
0.7055555553791667
 40
0.7055555553791667
 40
1.05833333306875
 40
1.05833333306875
 40
1.05833333306875
 40
1.411111110758333
 40
1.411111110758333
 40
1.411111110758333
 40
1.411111110758333
 10
120.4775729408008
 20
71.01616480429458
 10
120.5762749264532
 20
71.01616480429458
 10
120.6565456512595
 20
70.93589407948825
 10
120.6565456512595
 20
70.83736434861011
 10
120.6565456512595
 20
70.73849010818344
 10
120.5762749264532
 20
70.65821938337712
 10
120.4775729408008
 20
70.65821938337712
 10
120.3786987003741
 20
70.65821938337712
 10
120.2984279755678
 20
70.73849010818344
 10
120.2984279755678
 20
70.83736434861011
 10
120.2984279755678
 20
70.93589407948825
 10
120.3786987003741
 20
71.01616480429458
 10
120.4775729408008
 20
71.01616480429458
 72
     1
 10
120.4775729408008
 20
71.01616480429458
 11
120.4775729408008
 21
71.01616480429458
 97
        0
 75
     2
 76
     1
 98
        0
  0
SPLINE
  5
8E
330
3D
100
AcDbEntity
  8
Capa 2
370
     0
100
AcDbSpline
210
0.0
220
0.0
230
1.0
 70
    11
 71
     3
 72
    17
 73
    13
 74
     0
 42
0.0000000001
 43
0.0000000001
 40
0.0
 40
0.0
 40
0.0
 40
0.0
 40
1.0
 40
1.0
 40
1.0
 40
2.0
 40
2.0
 40
2.0
 40
3.0
 40
3.0
 40
3.0
 40
4.0
 40
4.0
 40
4.0
 40
4.0
 10
121.2995727235814
 20
71.41682940922912
 30
0.0
 10
121.3982747092338
 20
71.41682940922912
 30
0.0
 10
121.4785454340401
 20
71.33690319397134
 30
0.0
 10
121.4785454340401
 20
71.23768444399614
 30
0.0
 10
121.4785454340401
 20
71.13949922266652
 30
0.0
 10
121.3982747092338
 20
71.05922849786019
 30
0.0
 10
121.2995727235814
 20
71.05922849786019
 30
0.0
 10
121.200870737929
 20
71.05922849786019
 30
0.0
 10
121.1206000131226
 20
71.13949922266652
 30
0.0
 10
121.1206000131226
 20
71.23768444399614
 30
0.0
 10
121.1206000131226
 20
71.33690319397134
 30
0.0
 10
121.200870737929
 20
71.41682940922912
 30
0.0
 10
121.2995727235814
 20
71.41682940922912
 30
0.0
  0
HATCH
  5
8F
330
3D
100
AcDbEntity
  8
Capa 2
 62
     7
100
AcDbHatch
 10
0.0
 20
0.0
 30
0.0
210
0.0
220
0.0
230
1.0
  2
SOLID
 70
     1
 71
     0
 91
        1
 92
        1
 93
        2
 72
     4
 94
        3
 73
     0
 74
     0
 95
       17
 96
       13
 40
0.0
 40
0.0
 40
0.0
 40
0.0
 40
0.3527777776895833
 40
0.3527777776895833
 40
0.3527777776895833
 40
0.7055555553791667
 40
0.7055555553791667
 40
0.7055555553791667
 40
1.05833333306875
 40
1.05833333306875
 40
1.05833333306875
 40
1.411111110758333
 40
1.411111110758333
 40
1.411111110758333
 40
1.411111110758333
 10
121.2995727235814
 20
71.41682940922912
 10
121.3982747092338
 20
71.41682940922912
 10
121.4785454340401
 20
71.33690319397134
 10
121.4785454340401
 20
71.23768444399614
 10
121.4785454340401
 20
71.13949922266652
 10
121.3982747092338
 20
71.05922849786019
 10
121.2995727235814
 20
71.05922849786019
 10
121.200870737929
 20
71.05922849786019
 10
121.1206000131226
 20
71.13949922266652
 10
121.1206000131226
 20
71.23768444399614
 10
121.1206000131226
 20
71.33690319397134
 10
121.200870737929
 20
71.41682940922912
 10
121.2995727235814
 20
71.41682940922912
 72
     1
 10
121.2995727235814
 20
71.41682940922912
 11
121.2995727235814
 21
71.41682940922912
 97
        0
 75
     2
 76
     1
 98
        0
  0
SPLINE
  5
90
330
3D
100
AcDbEntity
  8
Capa 2
370
     0
100
AcDbSpline
210
0.0
220
0.0
230
1.0
 70
    11
 71
     3
 72
    17
 73
    13
 74
     0
 42
0.0000000001
 43
0.0000000001
 40
0.0
 40
0.0
 40
0.0
 40
0.0
 40
1.0
 40
1.0
 40
1.0
 40
2.0
 40
2.0
 40
2.0
 40
3.0
 40
3.0
 40
3.0
 40
4.0
 40
4.0
 40
4.0
 40
4.0
 10
121.9176228536352
 20
72.03866914431673
 30
0.0
 10
122.0164970940618
 20
72.03866914431673
 30
0.0
 10
122.0967678188682
 20
71.95805390996188
 30
0.0
 10
122.0967678188682
 20
71.85952417908373
 30
0.0
 10
122.0967678188682
 20
71.7609944482056
 30
0.0
 10
122.0164970940618
 20
71.68072372339927
 30
0.0
 10
121.9176228536352
 20
71.68072372339927
 30
0.0
 10
121.8189208679828
 20
71.68072372339927
 30
0.0
 10
121.7386501431765
 20
71.7609944482056
 30
0.0
 10
121.7386501431765
 20
71.85952417908373
 30
0.0
 10
121.7386501431765
 20
71.95805390996188
 30
0.0
 10
121.8189208679828
 20
72.03866914431673
 30
0.0
 10
121.9176228536352
 20
72.03866914431673
 30
0.0
  0
HATCH
  5
91
330
3D
100
AcDbEntity
  8
Capa 2
 62
     7
100
AcDbHatch
 10
0.0
 20
0.0
 30
0.0
210
0.0
220
0.0
230
1.0
  2
SOLID
 70
     1
 71
     0
 91
        1
 92
        1
 93
        2
 72
     4
 94
        3
 73
     0
 74
     0
 95
       17
 96
       13
 40
0.0
 40
0.0
 40
0.0
 40
0.0
 40
0.3527777776895833
 40
0.3527777776895833
 40
0.3527777776895833
 40
0.7055555553791667
 40
0.7055555553791667
 40
0.7055555553791667
 40
1.05833333306875
 40
1.05833333306875
 40
1.05833333306875
 40
1.411111110758333
 40
1.411111110758333
 40
1.411111110758333
 40
1.411111110758333
 10
121.9176228536352
 20
72.03866914431673
 10
122.0164970940618
 20
72.03866914431673
 10
122.0967678188682
 20
71.95805390996188
 10
122.0967678188682
 20
71.85952417908373
 10
122.0967678188682
 20
71.7609944482056
 10
122.0164970940618
 20
71.68072372339927
 10
121.9176228536352
 20
71.68072372339927
 10
121.8189208679828
 20
71.68072372339927
 10
121.7386501431765
 20
71.7609944482056
 10
121.7386501431765
 20
71.85952417908373
 10
121.7386501431765
 20
71.95805390996188
 10
121.8189208679828
 20
72.03866914431673
 10
121.9176228536352
 20
72.03866914431673
 72
     1
 10
121.9176228536352
 20
72.03866914431673
 11
121.9176228536352
 21
72.03866914431673
 97
        0
 75
     2
 76
     1
 98
        0
  0
SPLINE
  5
92
330
3D
100
AcDbEntity
  8
Capa 2
370
     0
100
AcDbSpline
210
0.0
220
0.0
230
1.0
 70
    11
 71
     3
 72
    17
 73
    13
 74
     0
 42
0.0000000001
 43
0.0000000001
 40
0.0
 40
0.0
 40
0.0
 40
0.0
 40
1.0
 40
1.0
 40
1.0
 40
2.0
 40
2.0
 40
2.0
 40
3.0
 40
3.0
 40
3.0
 40
4.0
 40
4.0
 40
4.0
 40
4.0
 10
122.2595485805462
 20
72.87065970400457
 30
0.0
 10
122.3582505661986
 20
72.87065970400457
 30
0.0
 10
122.4386935457792
 20
72.79038897919824
 30
0.0
 10
122.4386935457792
 20
72.6918592483201
 30
0.0
 10
122.4386935457792
 20
72.59264049834489
 30
0.0
 10
122.3582505661986
 20
72.51305879263563
 30
0.0
 10
122.2595485805462
 20
72.51305879263563
 30
0.0
 10
122.1608465948938
 20
72.51305879263563
 30
0.0
 10
122.0805758700875
 20
72.59264049834489
 30
0.0
 10
122.0805758700875
 20
72.6918592483201
 30
0.0
 10
122.0805758700875
 20
72.79038897919824
 30
0.0
 10
122.1608465948938
 20
72.87065970400457
 30
0.0
 10
122.2595485805462
 20
72.87065970400457
 30
0.0
  0
HATCH
  5
93
330
3D
100
AcDbEntity
  8
Capa 2
 62
     7
100
AcDbHatch
 10
0.0
 20
0.0
 30
0.0
210
0.0
220
0.0
230
1.0
  2
SOLID
 70
     1
 71
     0
 91
        1
 92
        1
 93
        2
 72
     4
 94
        3
 73
     0
 74
     0
 95
       17
 96
       13
 40
0.0
 40
0.0
 40
0.0
 40
0.0
 40
0.3527777776895833
 40
0.3527777776895833
 40
0.3527777776895833
 40
0.7055555553791667
 40
0.7055555553791667
 40
0.7055555553791667
 40
1.05833333306875
 40
1.05833333306875
 40
1.05833333306875
 40
1.411111110758333
 40
1.411111110758333
 40
1.411111110758333
 40
1.411111110758333
 10
122.2595485805462
 20
72.87065970400457
 10
122.3582505661986
 20
72.87065970400457
 10
122.4386935457792
 20
72.79038897919824
 10
122.4386935457792
 20
72.6918592483201
 10
122.4386935457792
 20
72.59264049834489
 10
122.3582505661986
 20
72.51305879263563
 10
122.2595485805462
 20
72.51305879263563
 10
122.1608465948938
 20
72.51305879263563
 10
122.0805758700875
 20
72.59264049834489
 10
122.0805758700875
 20
72.6918592483201
 10
122.0805758700875
 20
72.79038897919824
 10
122.1608465948938
 20
72.87065970400457
 10
122.2595485805462
 20
72.87065970400457
 72
     1
 10
122.2595485805462
 20
72.87065970400457
 11
122.2595485805462
 21
72.87065970400457
 97
        0
 75
     2
 76
     1
 98
        0
  0
SPLINE
  5
94
330
3D
100
AcDbEntity
  8
Capa 2
370
     0
100
AcDbSpline
210
0.0
220
0.0
230
1.0
 70
    11
 71
     3
 72
    17
 73
    13
 74
     0
 42
0.0000000001
 43
0.0000000001
 40
0.0
 40
0.0
 40
0.0
 40
0.0
 40
1.0
 40
1.0
 40
1.0
 40
2.0
 40
2.0
 40
2.0
 40
3.0
 40
3.0
 40
3.0
 40
4.0
 40
4.0
 40
4.0
 40
4.0
 10
119.5802978216674
 20
75.53578557139383
 30
0.0
 10
119.6789998073198
 20
75.53578557139383
 30
0.0
 10
119.7594427869004
 20
75.45551484658752
 30
0.0
 10
119.7594427869004
 20
75.35664060616084
 30
0.0
 10
119.7594427869004
 20
75.2581108752827
 30
0.0
 10
119.6789998073198
 20
75.17784015047637
 30
0.0
 10
119.5802978216674
 20
75.17784015047637
 30
0.0
 10
119.481595836015
 20
75.17784015047637
 30
0.0
 10
119.4013251112087
 20
75.2581108752827
 30
0.0
 10
119.4013251112087
 20
75.35664060616084
 30
0.0
 10
119.4013251112087
 20
75.45551484658752
 30
0.0
 10
119.481595836015
 20
75.53578557139383
 30
0.0
 10
119.5802978216674
 20
75.53578557139383
 30
0.0
  0
HATCH
  5
95
330
3D
100
AcDbEntity
  8
Capa 2
 62
     7
100
AcDbHatch
 10
0.0
 20
0.0
 30
0.0
210
0.0
220
0.0
230
1.0
  2
SOLID
 70
     1
 71
     0
 91
        1
 92
        1
 93
        2
 72
     4
 94
        3
 73
     0
 74
     0
 95
       17
 96
       13
 40
0.0
 40
0.0
 40
0.0
 40
0.0
 40
0.3527777776895833
 40
0.3527777776895833
 40
0.3527777776895833
 40
0.7055555553791667
 40
0.7055555553791667
 40
0.7055555553791667
 40
1.05833333306875
 40
1.05833333306875
 40
1.05833333306875
 40
1.411111110758333
 40
1.411111110758333
 40
1.411111110758333
 40
1.411111110758333
 10
119.5802978216674
 20
75.53578557139383
 10
119.6789998073198
 20
75.53578557139383
 10
119.7594427869004
 20
75.45551484658752
 10
119.7594427869004
 20
75.35664060616084
 10
119.7594427869004
 20
75.2581108752827
 10
119.6789998073198
 20
75.17784015047637
 10
119.5802978216674
 20
75.17784015047637
 10
119.481595836015
 20
75.17784015047637
 10
119.4013251112087
 20
75.2581108752827
 10
119.4013251112087
 20
75.35664060616084
 10
119.4013251112087
 20
75.45551484658752
 10
119.481595836015
 20
75.53578557139383
 10
119.5802978216674
 20
75.53578557139383
 72
     1
 10
119.5802978216674
 20
75.53578557139383
 11
119.5802978216674
 21
75.53578557139383
 97
        0
 75
     2
 76
     1
 98
        0
  0
SPLINE
  5
96
330
3D
100
AcDbEntity
  8
Capa 2
370
     0
100
AcDbSpline
210
0.0
220
0.0
230
1.0
 70
    11
 71
     3
 72
    17
 73
    13
 74
     0
 42
0.0000000001
 43
0.0000000001
 40
0.0
 40
0.0
 40
0.0
 40
0.0
 40
1.0
 40
1.0
 40
1.0
 40
2.0
 40
2.0
 40
2.0
 40
3.0
 40
3.0
 40
3.0
 40
4.0
 40
4.0
 40
4.0
 40
4.0
 10
120.456730113115
 20
75.53785262868499
 30
0.0
 10
120.5556043535417
 20
75.53785262868499
 30
0.0
 10
120.635875078348
 20
75.45827092297571
 30
0.0
 10
120.635875078348
 20
75.35905217300052
 30
0.0
 10
120.635875078348
 20
75.26086695167089
 30
0.0
 10
120.5556043535417
 20
75.18059622686458
 30
0.0
 10
120.456730113115
 20
75.18059622686458
 30
0.0
 10
120.3580281274626
 20
75.18059622686458
 30
0.0
 10
120.2777574026563
 20
75.26086695167089
 30
0.0
 10
120.2777574026563
 20
75.35905217300052
 30
0.0
 10
120.2777574026563
 20
75.45827092297571
 30
0.0
 10
120.3580281274626
 20
75.53785262868499
 30
0.0
 10
120.456730113115
 20
75.53785262868499
 30
0.0
  0
HATCH
  5
97
330
3D
100
AcDbEntity
  8
Capa 2
 62
     7
100
AcDbHatch
 10
0.0
 20
0.0
 30
0.0
210
0.0
220
0.0
230
1.0
  2
SOLID
 70
     1
 71
     0
 91
        1
 92
        1
 93
        2
 72
     4
 94
        3
 73
     0
 74
     0
 95
       17
 96
       13
 40
0.0
 40
0.0
 40
0.0
 40
0.0
 40
0.3527777776895833
 40
0.3527777776895833
 40
0.3527777776895833
 40
0.7055555553791667
 40
0.7055555553791667
 40
0.7055555553791667
 40
1.05833333306875
 40
1.05833333306875
 40
1.05833333306875
 40
1.411111110758333
 40
1.411111110758333
 40
1.411111110758333
 40
1.411111110758333
 10
120.456730113115
 20
75.53785262868499
 10
120.5556043535417
 20
75.53785262868499
 10
120.635875078348
 20
75.45827092297571
 10
120.635875078348
 20
75.35905217300052
 10
120.635875078348
 20
75.26086695167089
 10
120.5556043535417
 20
75.18059622686458
 10
120.456730113115
 20
75.18059622686458
 10
120.3580281274626
 20
75.18059622686458
 10
120.2777574026563
 20
75.26086695167089
 10
120.2777574026563
 20
75.35905217300052
 10
120.2777574026563
 20
75.45827092297571
 10
120.3580281274626
 20
75.53785262868499
 10
120.456730113115
 20
75.53785262868499
 72
     1
 10
120.456730113115
 20
75.53785262868499
 11
120.456730113115
 21
75.53785262868499
 97
        0
 75
     2
 76
     1
 98
        0
  0
SPLINE
  5
98
330
3D
100
AcDbEntity
  8
Capa 2
370
     0
100
AcDbSpline
210
0.0
220
0.0
230
1.0
 70
    11
 71
     3
 72
    17
 73
    13
 74
     0
 42
0.0000000001
 43
0.0000000001
 40
0.0
 40
0.0
 40
0.0
 40
0.0
 40
1.0
 40
1.0
 40
1.0
 40
2.0
 40
2.0
 40
2.0
 40
3.0
 40
3.0
 40
3.0
 40
4.0
 40
4.0
 40
4.0
 40
4.0
 10
121.2892374371256
 20
75.1960991565482
 30
0.0
 10
121.387939422778
 20
75.1960991565482
 30
0.0
 10
121.4682101475843
 20
75.11582843174187
 30
0.0
 10
121.4682101475843
 20
75.01695419131521
 30
0.0
 10
121.4682101475843
 20
74.91807995088854
 30
0.0
 10
121.387939422778
 20
74.83780922608221
 30
0.0
 10
121.2892374371256
 20
74.83780922608221
 30
0.0
 10
121.1905354514732
 20
74.83780922608221
 30
0.0
 10
121.1100924718926
 20
74.91807995088854
 30
0.0
 10
121.1100924718926
 20
75.01695419131521
 30
0.0
 10
121.1100924718926
 20
75.11582843174187
 30
0.0
 10
121.1905354514732
 20
75.1960991565482
 30
0.0
 10
121.2892374371256
 20
75.1960991565482
 30
0.0
  0
HATCH
  5
99
330
3D
100
AcDbEntity
  8
Capa 2
 62
     7
100
AcDbHatch
 10
0.0
 20
0.0
 30
0.0
210
0.0
220
0.0
230
1.0
  2
SOLID
 70
     1
 71
     0
 91
        1
 92
        1
 93
        2
 72
     4
 94
        3
 73
     0
 74
     0
 95
       17
 96
       13
 40
0.0
 40
0.0
 40
0.0
 40
0.0
 40
0.3527777776895833
 40
0.3527777776895833
 40
0.3527777776895833
 40
0.7055555553791667
 40
0.7055555553791667
 40
0.7055555553791667
 40
1.05833333306875
 40
1.05833333306875
 40
1.05833333306875
 40
1.411111110758333
 40
1.411111110758333
 40
1.411111110758333
 40
1.411111110758333
 10
121.2892374371256
 20
75.1960991565482
 10
121.387939422778
 20
75.1960991565482
 10
121.4682101475843
 20
75.11582843174187
 10
121.4682101475843
 20
75.01695419131521
 10
121.4682101475843
 20
74.91807995088854
 10
121.387939422778
 20
74.83780922608221
 10
121.2892374371256
 20
74.83780922608221
 10
121.1905354514732
 20
74.83780922608221
 10
121.1100924718926
 20
74.91807995088854
 10
121.1100924718926
 20
75.01695419131521
 10
121.1100924718926
 20
75.11582843174187
 10
121.1905354514732
 20
75.1960991565482
 10
121.2892374371256
 20
75.1960991565482
 72
     1
 10
121.2892374371256
 20
75.1960991565482
 11
121.2892374371256
 21
75.1960991565482
 97
        0
 75
     2
 76
     1
 98
        0
  0
SPLINE
  5
9A
330
3D
100
AcDbEntity
  8
Capa 2
370
     0
100
AcDbSpline
210
0.0
220
0.0
230
1.0
 70
    11
 71
     3
 72
    17
 73
    13
 74
     0
 42
0.0000000001
 43
0.0000000001
 40
0.0
 40
0.0
 40
0.0
 40
0.0
 40
1.0
 40
1.0
 40
1.0
 40
2.0
 40
2.0
 40
2.0
 40
3.0
 40
3.0
 40
3.0
 40
4.0
 40
4.0
 40
4.0
 40
4.0
 10
121.9105604078904
 20
74.57804902649438
 30
0.0
 10
122.0092623935428
 20
74.57804902649438
 30
0.0
 10
122.0895331183492
 20
74.49743379213953
 30
0.0
 10
122.0895331183492
 20
74.39890406126139
 30
0.0
 10
122.0895331183492
 20
74.30002982083472
 30
0.0
 10
122.0092623935428
 20
74.2197590960284
 30
0.0
 10
121.9105604078904
 20
74.2197590960284
 30
0.0
 10
121.811858422238
 20
74.2197590960284
 30
0.0
 10
121.7314154426574
 20
74.30002982083472
 30
0.0
 10
121.7314154426574
 20
74.39890406126139
 30
0.0
 10
121.7314154426574
 20
74.49743379213953
 30
0.0
 10
121.811858422238
 20
74.57804902649438
 30
0.0
 10
121.9105604078904
 20
74.57804902649438
 30
0.0
  0
HATCH
  5
9B
330
3D
100
AcDbEntity
  8
Capa 2
 62
     7
100
AcDbHatch
 10
0.0
 20
0.0
 30
0.0
210
0.0
220
0.0
230
1.0
  2
SOLID
 70
     1
 71
     0
 91
        1
 92
        1
 93
        2
 72
     4
 94
        3
 73
     0
 74
     0
 95
       17
 96
       13
 40
0.0
 40
0.0
 40
0.0
 40
0.0
 40
0.3527777776895833
 40
0.3527777776895833
 40
0.3527777776895833
 40
0.7055555553791667
 40
0.7055555553791667
 40
0.7055555553791667
 40
1.05833333306875
 40
1.05833333306875
 40
1.05833333306875
 40
1.411111110758333
 40
1.411111110758333
 40
1.411111110758333
 40
1.411111110758333
 10
121.9105604078904
 20
74.57804902649438
 10
122.0092623935428
 20
74.57804902649438
 10
122.0895331183492
 20
74.49743379213953
 10
122.0895331183492
 20
74.39890406126139
 10
122.0895331183492
 20
74.30002982083472
 10
122.0092623935428
 20
74.2197590960284
 10
121.9105604078904
 20
74.2197590960284
 10
121.811858422238
 20
74.2197590960284
 10
121.7314154426574
 20
74.30002982083472
 10
121.7314154426574
 20
74.39890406126139
 10
121.7314154426574
 20
74.49743379213953
 10
121.811858422238
 20
74.57804902649438
 10
121.9105604078904
 20
74.57804902649438
 72
     1
 10
121.9105604078904
 20
74.57804902649438
 11
121.9105604078904
 21
74.57804902649438
 97
        0
 75
     2
 76
     1
 98
        0
  0
SPLINE
  5
9C
330
3D
100
AcDbEntity
  8
Capa 2
370
     0
100
AcDbSpline
210
0.0
220
0.0
230
1.0
 70
    11
 71
     3
 72
    17
 73
    13
 74
     0
 42
0.0000000001
 43
0.0000000001
 40
0.0
 40
0.0
 40
0.0
 40
0.0
 40
1.0
 40
1.0
 40
1.0
 40
2.0
 40
2.0
 40
2.0
 40
3.0
 40
3.0
 40
3.0
 40
4.0
 40
4.0
 40
4.0
 40
4.0
 10
122.1129597676488
 20
73.67405597116482
 30
0.0
 10
122.1715263908981
 20
73.75398218642262
 30
0.0
 10
122.2834919941687
 20
73.77120766384887
 30
0.0
 10
122.3629014451037
 20
73.71298555014815
 30
0.0
 10
122.4428276603615
 20
73.65407441735037
 30
0.0
 10
122.4600531377878
 20
73.54245332362828
 30
0.0
 10
122.4016587693128
 20
73.46252710837048
 30
0.0
 10
122.3434366556121
 20
73.3829454026612
 30
0.0
 10
122.2314710523414
 20
73.36606443478348
 30
0.0
 10
122.1513725823094
 20
73.4242865484842
 30
0.0
 10
122.0717908766001
 20
73.48250866218493
 30
0.0
 10
122.0545653991739
 20
73.59447426545555
 30
0.0
 10
122.1129597676488
 20
73.67405597116482
 30
0.0
  0
HATCH
  5
9D
330
3D
100
AcDbEntity
  8
Capa 2
 62
     7
100
AcDbHatch
 10
0.0
 20
0.0
 30
0.0
210
0.0
220
0.0
230
1.0
  2
SOLID
 70
     1
 71
     0
 91
        1
 92
        1
 93
        2
 72
     4
 94
        3
 73
     0
 74
     0
 95
       17
 96
       13
 40
0.0
 40
0.0
 40
0.0
 40
0.0
 40
0.3527777776895833
 40
0.3527777776895833
 40
0.3527777776895833
 40
0.7055555553791667
 40
0.7055555553791667
 40
0.7055555553791667
 40
1.05833333306875
 40
1.05833333306875
 40
1.05833333306875
 40
1.411111110758333
 40
1.411111110758333
 40
1.411111110758333
 40
1.411111110758333
 10
122.1129597676488
 20
73.67405597116482
 10
122.1715263908981
 20
73.75398218642262
 10
122.2834919941687
 20
73.77120766384887
 10
122.3629014451037
 20
73.71298555014815
 10
122.4428276603615
 20
73.65407441735037
 10
122.4600531377878
 20
73.54245332362828
 10
122.4016587693128
 20
73.46252710837048
 10
122.3434366556121
 20
73.3829454026612
 10
122.2314710523414
 20
73.36606443478348
 10
122.1513725823094
 20
73.4242865484842
 10
122.0717908766001
 20
73.48250866218493
 10
122.0545653991739
 20
73.59447426545555
 10
122.1129597676488
 20
73.67405597116482
 72
     1
 10
122.1129597676488
 20
73.67405597116482
 11
122.1129597676488
 21
73.67405597116482
 97
        0
 75
     2
 76
     1
 98
        0
  0
SPLINE
  5
9E
330
3D
100
AcDbEntity
  8
Capa 2
370
     0
100
AcDbSpline
210
0.0
220
0.0
230
1.0
 70
    11
 71
     3
 72
    17
 73
    13
 74
     0
 42
0.0000000001
 43
0.0000000001
 40
0.0
 40
0.0
 40
0.0
 40
0.0
 40
1.0
 40
1.0
 40
1.0
 40
2.0
 40
2.0
 40
2.0
 40
3.0
 40
3.0
 40
3.0
 40
4.0
 40
4.0
 40
4.0
 40
4.0
 10
119.9969821206084
 20
70.40224878882306
 30
0.0
 10
120.1213500676259
 20
70.42705347631686
 30
0.0
 10
120.2424451739325
 20
70.346438241962
 30
0.0
 10
120.267077606652
 20
70.22172578539596
 30
0.0
 10
120.29205454892
 20
70.09735783837844
 30
0.0
 10
120.2110948050167
 20
69.97643498684617
 30
0.0
 10
120.0867268579992
 20
69.9519748089009
 30
0.0
 10
119.9623589109816
 20
69.9271701214071
 30
0.0
 10
119.8416083142236
 20
70.00778535576194
 30
0.0
 10
119.8169758815041
 20
70.13215330277947
 30
0.0
 10
119.791998939236
 20
70.25686575934552
 30
0.0
 10
119.8726141735909
 20
70.37709959178073
 30
0.0
 10
119.9969821206084
 20
70.40224878882306
 30
0.0
  0
HATCH
  5
9F
330
3D
100
AcDbEntity
  8
Capa 2
 62
     7
100
AcDbHatch
 10
0.0
 20
0.0
 30
0.0
210
0.0
220
0.0
230
1.0
  2
SOLID
 70
     1
 71
     0
 91
        1
 92
        1
 93
        2
 72
     4
 94
        3
 73
     0
 74
     0
 95
       17
 96
       13
 40
0.0
 40
0.0
 40
0.0
 40
0.0
 40
0.3527777776895833
 40
0.3527777776895833
 40
0.3527777776895833
 40
0.7055555553791667
 40
0.7055555553791667
 40
0.7055555553791667
 40
1.05833333306875
 40
1.05833333306875
 40
1.05833333306875
 40
1.411111110758333
 40
1.411111110758333
 40
1.411111110758333
 40
1.411111110758333
 10
119.9969821206084
 20
70.40224878882306
 10
120.1213500676259
 20
70.42705347631686
 10
120.2424451739325
 20
70.346438241962
 10
120.267077606652
 20
70.22172578539596
 10
120.29205454892
 20
70.09735783837844
 10
120.2110948050167
 20
69.97643498684617
 10
120.0867268579992
 20
69.9519748089009
 10
119.9623589109816
 20
69.9271701214071
 10
119.8416083142236
 20
70.00778535576194
 10
119.8169758815041
 20
70.13215330277947
 10
119.791998939236
 20
70.25686575934552
 10
119.8726141735909
 20
70.37709959178073
 10
119.9969821206084
 20
70.40224878882306
 72
     1
 10
119.9969821206084
 20
70.40224878882306
 11
119.9969821206084
 21
70.40224878882306
 97
        0
 75
     2
 76
     1
 98
        0
  0
SPLINE
  5
A0
330
3D
100
AcDbEntity
  8
Capa 2
370
     0
100
AcDbSpline
210
0.0
220
0.0
230
1.0
 70
    11
 71
     3
 72
    17
 73
    13
 74
     0
 42
0.0000000001
 43
0.0000000001
 40
0.0
 40
0.0
 40
0.0
 40
0.0
 40
1.0
 40
1.0
 40
1.0
 40
2.0
 40
2.0
 40
2.0
 40
3.0
 40
3.0
 40
3.0
 40
4.0
 40
4.0
 40
4.0
 40
4.0
 10
118.8637179607355
 20
70.62342391897609
 30
0.0
 10
118.988085907753
 20
70.64857311601841
 30
0.0
 10
119.108836504511
 20
70.56795788166357
 30
0.0
 10
119.1334689372305
 20
70.44358993464606
 30
0.0
 10
119.1587903890471
 20
70.31922198762854
 30
0.0
 10
119.0778306451437
 20
70.1986436456448
 30
0.0
 10
118.9534626981262
 20
70.17349444860247
 30
0.0
 10
118.8290947511087
 20
70.14868976110867
 30
0.0
 10
118.7079996448022
 20
70.22964950501203
 30
0.0
 10
118.6837117216312
 20
70.35401745202955
 30
0.0
 10
118.6585625245888
 20
70.47838539904707
 30
0.0
 10
118.7395222684922
 20
70.59896374103081
 30
0.0
 10
118.8637179607355
 20
70.62342391897609
 30
0.0
  0
HATCH
  5
A1
330
3D
100
AcDbEntity
  8
Capa 2
 62
     7
100
AcDbHatch
 10
0.0
 20
0.0
 30
0.0
210
0.0
220
0.0
230
1.0
  2
SOLID
 70
     1
 71
     0
 91
        1
 92
        1
 93
        2
 72
     4
 94
        3
 73
     0
 74
     0
 95
       17
 96
       13
 40
0.0
 40
0.0
 40
0.0
 40
0.0
 40
0.3527777776895833
 40
0.3527777776895833
 40
0.3527777776895833
 40
0.7055555553791667
 40
0.7055555553791667
 40
0.7055555553791667
 40
1.05833333306875
 40
1.05833333306875
 40
1.05833333306875
 40
1.411111110758333
 40
1.411111110758333
 40
1.411111110758333
 40
1.411111110758333
 10
118.8637179607355
 20
70.62342391897609
 10
118.988085907753
 20
70.64857311601841
 10
119.108836504511
 20
70.56795788166357
 10
119.1334689372305
 20
70.44358993464606
 10
119.1587903890471
 20
70.31922198762854
 10
119.0778306451437
 20
70.1986436456448
 10
118.9534626981262
 20
70.17349444860247
 10
118.8290947511087
 20
70.14868976110867
 10
118.7079996448022
 20
70.22964950501203
 10
118.6837117216312
 20
70.35401745202955
 10
118.6585625245888
 20
70.47838539904707
 10
118.7395222684922
 20
70.59896374103081
 10
118.8637179607355
 20
70.62342391897609
 72
     1
 10
118.8637179607355
 20
70.62342391897609
 11
118.8637179607355
 21
70.62342391897609
 97
        0
 75
     2
 76
     1
 98
        0
  0
SPLINE
  5
A2
330
3D
100
AcDbEntity
  8
Capa 2
370
     0
100
AcDbSpline
210
0.0
220
0.0
230
1.0
 70
    11
 71
     3
 72
    17
 73
    13
 74
     0
 42
0.0000000001
 43
0.0000000001
 40
0.0
 40
0.0
 40
0.0
 40
0.0
 40
1.0
 40
1.0
 40
1.0
 40
2.0
 40
2.0
 40
2.0
 40
3.0
 40
3.0
 40
3.0
 40
4.0
 40
4.0
 40
4.0
 40
4.0
 10
117.9261352244247
 20
71.24560816361222
 30
0.0
 10
118.0505031714422
 20
71.27041285110602
 30
0.0
 10
118.1715982777488
 20
71.18979761675116
 30
0.0
 10
118.1965752200168
 20
71.06542966973365
 30
0.0
 10
118.2213799075106
 20
70.94106172271613
 30
0.0
 10
118.1404201636073
 20
70.82013887118386
 30
0.0
 10
118.016224471364
 20
70.79533418369006
 30
0.0
 10
117.8918565243465
 20
70.77018498664773
 30
0.0
 10
117.77076141804
 20
70.85114473055111
 30
0.0
 10
117.7461289853204
 20
70.97551267756863
 30
0.0
 10
117.7214965526009
 20
71.09988062458615
 30
0.0
 10
117.8017672774072
 20
71.22080347611842
 30
0.0
 10
117.9261352244247
 20
71.24560816361222
 30
0.0
  0
HATCH
  5
A3
330
3D
100
AcDbEntity
  8
Capa 2
 62
     7
100
AcDbHatch
 10
0.0
 20
0.0
 30
0.0
210
0.0
220
0.0
230
1.0
  2
SOLID
 70
     1
 71
     0
 91
        1
 92
        1
 93
        2
 72
     4
 94
        3
 73
     0
 74
     0
 95
       17
 96
       13
 40
0.0
 40
0.0
 40
0.0
 40
0.0
 40
0.3527777776895833
 40
0.3527777776895833
 40
0.3527777776895833
 40
0.7055555553791667
 40
0.7055555553791667
 40
0.7055555553791667
 40
1.05833333306875
 40
1.05833333306875
 40
1.05833333306875
 40
1.411111110758333
 40
1.411111110758333
 40
1.411111110758333
 40
1.411111110758333
 10
117.9261352244247
 20
71.24560816361222
 10
118.0505031714422
 20
71.27041285110602
 10
118.1715982777488
 20
71.18979761675116
 10
118.1965752200168
 20
71.06542966973365
 10
118.2213799075106
 20
70.94106172271613
 10
118.1404201636073
 20
70.82013887118386
 10
118.016224471364
 20
70.79533418369006
 10
117.8918565243465
 20
70.77018498664773
 10
117.77076141804
 20
70.85114473055111
 10
117.7461289853204
 20
70.97551267756863
 10
117.7214965526009
 20
71.09988062458615
 10
117.8017672774072
 20
71.22080347611842
 10
117.9261352244247
 20
71.24560816361222
 72
     1
 10
117.9261352244247
 20
71.24560816361222
 11
117.9261352244247
 21
71.24560816361222
 97
        0
 75
     2
 76
     1
 98
        0
  0
SPLINE
  5
A4
330
3D
100
AcDbEntity
  8
Capa 2
370
     0
100
AcDbSpline
210
0.0
220
0.0
230
1.0
 70
    11
 71
     3
 72
    17
 73
    13
 74
     0
 42
0.0000000001
 43
0.0000000001
 40
0.0
 40
0.0
 40
0.0
 40
0.0
 40
1.0
 40
1.0
 40
1.0
 40
2.0
 40
2.0
 40
2.0
 40
3.0
 40
3.0
 40
3.0
 40
4.0
 40
4.0
 40
4.0
 40
4.0
 10
117.2815578591345
 20
72.20368921806019
 30
0.0
 10
117.4057535513777
 20
72.22849390555399
 30
0.0
 10
117.52667640291
 20
72.14753416165063
 30
0.0
 10
117.5518255999523
 20
72.02316621463311
 30
0.0
 10
117.5764580326719
 20
71.89879826761558
 30
0.0
 10
117.4954982887685
 20
71.77787541608332
 30
0.0
 10
117.371130341751
 20
71.75341523813803
 30
0.0
 10
117.2469346495077
 20
71.72826604109571
 30
0.0
 10
117.1258395432012
 20
71.80922578499909
 30
0.0
 10
117.1015516200302
 20
71.9335937320166
 30
0.0
 10
117.0765746777621
 20
72.05796167903412
 30
0.0
 10
117.157189912117
 20
72.17854002101787
 30
0.0
 10
117.2815578591345
 20
72.20368921806019
 30
0.0
  0
HATCH
  5
A5
330
3D
100
AcDbEntity
  8
Capa 2
 62
     7
100
AcDbHatch
 10
0.0
 20
0.0
 30
0.0
210
0.0
220
0.0
230
1.0
  2
SOLID
 70
     1
 71
     0
 91
        1
 92
        1
 93
        2
 72
     4
 94
        3
 73
     0
 74
     0
 95
       17
 96
       13
 40
0.0
 40
0.0
 40
0.0
 40
0.0
 40
0.3527777776895833
 40
0.3527777776895833
 40
0.3527777776895833
 40
0.7055555553791667
 40
0.7055555553791667
 40
0.7055555553791667
 40
1.05833333306875
 40
1.05833333306875
 40
1.05833333306875
 40
1.411111110758333
 40
1.411111110758333
 40
1.411111110758333
 40
1.411111110758333
 10
117.2815578591345
 20
72.20368921806019
 10
117.4057535513777
 20
72.22849390555399
 10
117.52667640291
 20
72.14753416165063
 10
117.5518255999523
 20
72.02316621463311
 10
117.5764580326719
 20
71.89879826761558
 10
117.4954982887685
 20
71.77787541608332
 10
117.371130341751
 20
71.75341523813803
 10
117.2469346495077
 20
71.72826604109571
 10
117.1258395432012
 20
71.80922578499909
 10
117.1015516200302
 20
71.9335937320166
 10
117.0765746777621
 20
72.05796167903412
 10
117.157189912117
 20
72.17854002101787
 10
117.2815578591345
 20
72.20368921806019
 72
     1
 10
117.2815578591345
 20
72.20368921806019
 11
117.2815578591345
 21
72.20368921806019
 97
        0
 75
     2
 76
     1
 98
        0
  0
SPLINE
  5
A6
330
3D
100
AcDbEntity
  8
Capa 2
370
     0
100
AcDbSpline
210
0.0
220
0.0
230
1.0
 70
    11
 71
     3
 72
    17
 73
    13
 74
     0
 42
0.0000000001
 43
0.0000000001
 40
0.0
 40
0.0
 40
0.0
 40
0.0
 40
1.0
 40
1.0
 40
1.0
 40
2.0
 40
2.0
 40
2.0
 40
3.0
 40
3.0
 40
3.0
 40
4.0
 40
4.0
 40
4.0
 40
4.0
 10
117.0584879264646
 20
73.30577526379162
 30
0.0
 10
117.1826836187078
 20
73.33092446083394
 30
0.0
 10
117.3037787250143
 20
73.24996471693056
 30
0.0
 10
117.3284111577339
 20
73.12559676991305
 30
0.0
 10
117.3533881000019
 20
73.00157333244405
 30
0.0
 10
117.2727728656471
 20
72.88030597136326
 30
0.0
 10
117.1484049186296
 20
72.85584579341798
 30
0.0
 10
117.024036971612
 20
72.83069659637566
 30
0.0
 10
116.9029418653055
 20
72.91165634027904
 30
0.0
 10
116.8784816873602
 20
73.03602428729656
 30
0.0
 10
116.8531602355437
 20
73.16039223431407
 30
0.0
 10
116.934119979447
 20
73.28131508584634
 30
0.0
 10
117.0584879264646
 20
73.30577526379162
 30
0.0
  0
HATCH
  5
A7
330
3D
100
AcDbEntity
  8
Capa 2
 62
     7
100
AcDbHatch
 10
0.0
 20
0.0
 30
0.0
210
0.0
220
0.0
230
1.0
  2
SOLID
 70
     1
 71
     0
 91
        1
 92
        1
 93
        2
 72
     4
 94
        3
 73
     0
 74
     0
 95
       17
 96
       13
 40
0.0
 40
0.0
 40
0.0
 40
0.0
 40
0.3527777776895833
 40
0.3527777776895833
 40
0.3527777776895833
 40
0.7055555553791667
 40
0.7055555553791667
 40
0.7055555553791667
 40
1.05833333306875
 40
1.05833333306875
 40
1.05833333306875
 40
1.411111110758333
 40
1.411111110758333
 40
1.411111110758333
 40
1.411111110758333
 10
117.0584879264646
 20
73.30577526379162
 10
117.1826836187078
 20
73.33092446083394
 10
117.3037787250143
 20
73.24996471693056
 10
117.3284111577339
 20
73.12559676991305
 10
117.3533881000019
 20
73.00157333244405
 10
117.2727728656471
 20
72.88030597136326
 10
117.1484049186296
 20
72.85584579341798
 10
117.024036971612
 20
72.83069659637566
 10
116.9029418653055
 20
72.91165634027904
 10
116.8784816873602
 20
73.03602428729656
 10
116.8531602355437
 20
73.16039223431407
 10
116.934119979447
 20
73.28131508584634
 10
117.0584879264646
 20
73.30577526379162
 72
     1
 10
117.0584879264646
 20
73.30577526379162
 11
117.0584879264646
 21
73.30577526379162
 97
        0
 75
     2
 76
     1
 98
        0
  0
SPLINE
  5
A8
330
3D
100
AcDbEntity
  8
Capa 2
370
     0
100
AcDbSpline
210
0.0
220
0.0
230
1.0
 70
    11
 71
     3
 72
    17
 73
    13
 74
     0
 42
0.0000000001
 43
0.0000000001
 40
0.0
 40
0.0
 40
0.0
 40
0.0
 40
1.0
 40
1.0
 40
1.0
 40
2.0
 40
2.0
 40
2.0
 40
3.0
 40
3.0
 40
3.0
 40
4.0
 40
4.0
 40
4.0
 40
4.0
 10
117.2798353113918
 20
74.43955618798734
 30
0.0
 10
117.4042032584094
 20
74.46436087548113
 30
0.0
 10
117.5252983647159
 20
74.38409015067481
 30
0.0
 10
117.5499307974354
 20
74.25903318456025
 30
0.0
 10
117.574563230155
 20
74.13466523754272
 30
0.0
 10
117.4942925053487
 20
74.01374238601046
 30
0.0
 10
117.3699245583311
 20
73.98928220806518
 30
0.0
 10
117.2455566113136
 20
73.96447752057138
 30
0.0
 10
117.1244615050071
 20
74.04509275492623
 30
0.0
 10
117.0998290722875
 20
74.16911619239522
 30
0.0
 10
117.0746798752452
 20
74.29382864896127
 30
0.0
 10
117.1556396191486
 20
74.41475150049354
 30
0.0
 10
117.2798353113918
 20
74.43955618798734
 30
0.0
  0
HATCH
  5
A9
330
3D
100
AcDbEntity
  8
Capa 2
 62
     7
100
AcDbHatch
 10
0.0
 20
0.0
 30
0.0
210
0.0
220
0.0
230
1.0
  2
SOLID
 70
     1
 71
     0
 91
        1
 92
        1
 93
        2
 72
     4
 94
        3
 73
     0
 74
     0
 95
       17
 96
       13
 40
0.0
 40
0.0
 40
0.0
 40
0.0
 40
0.3527777776895833
 40
0.3527777776895833
 40
0.3527777776895833
 40
0.7055555553791667
 40
0.7055555553791667
 40
0.7055555553791667
 40
1.05833333306875
 40
1.05833333306875
 40
1.05833333306875
 40
1.411111110758333
 40
1.411111110758333
 40
1.411111110758333
 40
1.411111110758333
 10
117.2798353113918
 20
74.43955618798734
 10
117.4042032584094
 20
74.46436087548113
 10
117.5252983647159
 20
74.38409015067481
 10
117.5499307974354
 20
74.25903318456025
 10
117.574563230155
 20
74.13466523754272
 10
117.4942925053487
 20
74.01374238601046
 10
117.3699245583311
 20
73.98928220806518
 10
117.2455566113136
 20
73.96447752057138
 10
117.1244615050071
 20
74.04509275492623
 10
117.0998290722875
 20
74.16911619239522
 10
117.0746798752452
 20
74.29382864896127
 10
117.1556396191486
 20
74.41475150049354
 10
117.2798353113918
 20
74.43955618798734
 72
     1
 10
117.2798353113918
 20
74.43955618798734
 11
117.2798353113918
 21
74.43955618798734
 97
        0
 75
     2
 76
     1
 98
        0
  0
SPLINE
  5
AA
330
3D
100
AcDbEntity
  8
Capa 2
370
     0
100
AcDbSpline
210
0.0
220
0.0
230
1.0
 70
    11
 71
     3
 72
    17
 73
    13
 74
     0
 42
0.0000000001
 43
0.0000000001
 40
0.0
 40
0.0
 40
0.0
 40
0.0
 40
1.0
 40
1.0
 40
1.0
 40
2.0
 40
2.0
 40
2.0
 40
3.0
 40
3.0
 40
3.0
 40
4.0
 40
4.0
 40
4.0
 40
4.0
 10
117.9015027917052
 20
75.3766221599753
 30
0.0
 10
118.0258707387227
 20
75.40177135701762
 30
0.0
 10
118.1469658450292
 20
75.32081161311424
 30
0.0
 10
118.1719427872973
 20
75.19678817564525
 30
0.0
 10
118.1967474747911
 20
75.07242022862773
 30
0.0
 10
118.115959985662
 20
74.95115286754694
 30
0.0
 10
117.9915920386445
 20
74.92669268960167
 30
0.0
 10
117.867224091627
 20
74.90154349255934
 30
0.0
 10
117.7461289853204
 20
74.9821587269142
 30
0.0
 10
117.7214965526009
 20
75.10652667393171
 30
0.0
 10
117.6968641198813
 20
75.23089462094923
 30
0.0
 10
117.7771348446877
 20
75.35216198203001
 30
0.0
 10
117.9015027917052
 20
75.3766221599753
 30
0.0
  0
HATCH
  5
AB
330
3D
100
AcDbEntity
  8
Capa 2
 62
     7
100
AcDbHatch
 10
0.0
 20
0.0
 30
0.0
210
0.0
220
0.0
230
1.0
  2
SOLID
 70
     1
 71
     0
 91
        1
 92
        1
 93
        2
 72
     4
 94
        3
 73
     0
 74
     0
 95
       17
 96
       13
 40
0.0
 40
0.0
 40
0.0
 40
0.0
 40
0.3527777776895833
 40
0.3527777776895833
 40
0.3527777776895833
 40
0.7055555553791667
 40
0.7055555553791667
 40
0.7055555553791667
 40
1.05833333306875
 40
1.05833333306875
 40
1.05833333306875
 40
1.411111110758333
 40
1.411111110758333
 40
1.411111110758333
 40
1.411111110758333
 10
117.9015027917052
 20
75.3766221599753
 10
118.0258707387227
 20
75.40177135701762
 10
118.1469658450292
 20
75.32081161311424
 10
118.1719427872973
 20
75.19678817564525
 10
118.1967474747911
 20
75.07242022862773
 10
118.115959985662
 20
74.95115286754694
 10
117.9915920386445
 20
74.92669268960167
 10
117.867224091627
 20
74.90154349255934
 10
117.7461289853204
 20
74.9821587269142
 10
117.7214965526009
 20
75.10652667393171
 10
117.6968641198813
 20
75.23089462094923
 10
117.7771348446877
 20
75.35216198203001
 10
117.9015027917052
 20
75.3766221599753
 72
     1
 10
117.9015027917052
 20
75.3766221599753
 11
117.9015027917052
 21
75.3766221599753
 97
        0
 75
     2
 76
     1
 98
        0
  0
SPLINE
  5
AC
330
3D
100
AcDbEntity
  8
Capa 2
370
     0
100
AcDbSpline
210
0.0
220
0.0
230
1.0
 70
    11
 71
     3
 72
    17
 73
    13
 74
     0
 42
0.0000000001
 43
0.0000000001
 40
0.0
 40
0.0
 40
0.0
 40
0.0
 40
1.0
 40
1.0
 40
1.0
 40
2.0
 40
2.0
 40
2.0
 40
3.0
 40
3.0
 40
3.0
 40
4.0
 40
4.0
 40
4.0
 40
4.0
 10
121.1240451086079
 20
70.55934514295045
 30
0.0
 10
121.2484130556254
 20
70.58449433999277
 30
0.0
 10
121.3695081619319
 20
70.50387910563792
 30
0.0
 10
121.3937960851029
 20
70.3795111586204
 30
0.0
 10
121.418773027371
 20
70.25479870205436
 30
0.0
 10
121.3381577930162
 20
70.13387585052209
 30
0.0
 10
121.2137898459986
 20
70.10907116302829
 30
0.0
 10
121.0894218989811
 20
70.08426647553449
 30
0.0
 10
120.9686713022231
 20
70.16488170988934
 30
0.0
 10
120.9436943599551
 20
70.28959416645539
 30
0.0
 10
120.9188896724613
 20
70.41361760392438
 30
0.0
 10
120.9996771615904
 20
70.53454045545665
 30
0.0
 10
121.1240451086079
 20
70.55934514295045
 30
0.0
  0
HATCH
  5
AD
330
3D
100
AcDbEntity
  8
Capa 2
 62
     7
100
AcDbHatch
 10
0.0
 20
0.0
 30
0.0
210
0.0
220
0.0
230
1.0
  2
SOLID
 70
     1
 71
     0
 91
        1
 92
        1
 93
        2
 72
     4
 94
        3
 73
     0
 74
     0
 95
       17
 96
       13
 40
0.0
 40
0.0
 40
0.0
 40
0.0
 40
0.3527777776895833
 40
0.3527777776895833
 40
0.3527777776895833
 40
0.7055555553791667
 40
0.7055555553791667
 40
0.7055555553791667
 40
1.05833333306875
 40
1.05833333306875
 40
1.05833333306875
 40
1.411111110758333
 40
1.411111110758333
 40
1.411111110758333
 40
1.411111110758333
 10
121.1240451086079
 20
70.55934514295045
 10
121.2484130556254
 20
70.58449433999277
 10
121.3695081619319
 20
70.50387910563792
 10
121.3937960851029
 20
70.3795111586204
 10
121.418773027371
 20
70.25479870205436
 10
121.3381577930162
 20
70.13387585052209
 10
121.2137898459986
 20
70.10907116302829
 10
121.0894218989811
 20
70.08426647553449
 10
120.9686713022231
 20
70.16488170988934
 10
120.9436943599551
 20
70.28959416645539
 10
120.9188896724613
 20
70.41361760392438
 10
120.9996771615904
 20
70.53454045545665
 10
121.1240451086079
 20
70.55934514295045
 72
     1
 10
121.1240451086079
 20
70.55934514295045
 11
121.1240451086079
 21
70.55934514295045
 97
        0
 75
     2
 76
     1
 98
        0
  0
SPLINE
  5
AE
330
3D
100
AcDbEntity
  8
Capa 2
370
     0
100
AcDbSpline
210
0.0
220
0.0
230
1.0
 70
    11
 71
     3
 72
    17
 73
    13
 74
     0
 42
0.0000000001
 43
0.0000000001
 40
0.0
 40
0.0
 40
0.0
 40
0.0
 40
1.0
 40
1.0
 40
1.0
 40
2.0
 40
2.0
 40
2.0
 40
3.0
 40
3.0
 40
3.0
 40
4.0
 40
4.0
 40
4.0
 40
4.0
 10
122.0574937303363
 20
71.27006834155749
 30
0.0
 10
122.1818616773539
 20
71.29521753859981
 30
0.0
 10
122.3029567836604
 20
71.21460230424496
 30
0.0
 10
122.3275892163799
 20
71.09023435722744
 30
0.0
 10
122.352566158648
 20
70.9655219006614
 30
0.0
 10
122.2719509242931
 20
70.8442545395806
 30
0.0
 10
122.1475829772756
 20
70.81979436163533
 30
0.0
 10
122.0232150302581
 20
70.79498967414153
 30
0.0
 10
121.9021199239516
 20
70.87560490849638
 30
0.0
 10
121.8771429816835
 20
70.9999728555139
 30
0.0
 10
121.852510548964
 20
71.12434080253142
 30
0.0
 10
121.9332980380931
 20
71.24526365406369
 30
0.0
 10
122.0574937303363
 20
71.27006834155749
 30
0.0
  0
HATCH
  5
AF
330
3D
100
AcDbEntity
  8
Capa 2
 62
     7
100
AcDbHatch
 10
0.0
 20
0.0
 30
0.0
210
0.0
220
0.0
230
1.0
  2
SOLID
 70
     1
 71
     0
 91
        1
 92
        1
 93
        2
 72
     4
 94
        3
 73
     0
 74
     0
 95
       17
 96
       13
 40
0.0
 40
0.0
 40
0.0
 40
0.0
 40
0.3527777776895833
 40
0.3527777776895833
 40
0.3527777776895833
 40
0.7055555553791667
 40
0.7055555553791667
 40
0.7055555553791667
 40
1.05833333306875
 40
1.05833333306875
 40
1.05833333306875
 40
1.411111110758333
 40
1.411111110758333
 40
1.411111110758333
 40
1.411111110758333
 10
122.0574937303363
 20
71.27006834155749
 10
122.1818616773539
 20
71.29521753859981
 10
122.3029567836604
 20
71.21460230424496
 10
122.3275892163799
 20
71.09023435722744
 10
122.352566158648
 20
70.9655219006614
 10
122.2719509242931
 20
70.8442545395806
 10
122.1475829772756
 20
70.81979436163533
 10
122.0232150302581
 20
70.79498967414153
 10
121.9021199239516
 20
70.87560490849638
 10
121.8771429816835
 20
70.9999728555139
 10
121.852510548964
 20
71.12434080253142
 10
121.9332980380931
 20
71.24526365406369
 10
122.0574937303363
 20
71.27006834155749
 72
     1
 10
122.0574937303363
 20
71.27006834155749
 11
122.0574937303363
 21
71.27006834155749
 97
        0
 75
     2
 76
     1
 98
        0
  0
SPLINE
  5
B0
330
3D
100
AcDbEntity
  8
Capa 2
370
     0
100
AcDbSpline
210
0.0
220
0.0
230
1.0
 70
    11
 71
     3
 72
    17
 73
    13
 74
     0
 42
0.0000000001
 43
0.0000000001
 40
0.0
 40
0.0
 40
0.0
 40
0.0
 40
1.0
 40
1.0
 40
1.0
 40
2.0
 40
2.0
 40
2.0
 40
3.0
 40
3.0
 40
3.0
 40
4.0
 40
4.0
 40
4.0
 40
4.0
 10
122.6795057201982
 20
72.20747882309396
 30
0.0
 10
122.8038736672157
 20
72.23228351058776
 30
0.0
 10
122.9249687735222
 20
72.15166827623293
 30
0.0
 10
122.9492566966932
 20
72.02695581966688
 30
0.0
 10
122.9742336389613
 20
71.90293238219787
 30
0.0
 10
122.8934461498322
 20
71.78166502111709
 30
0.0
 10
122.7692504575889
 20
71.75720484317182
 30
0.0
 10
122.6448825105714
 20
71.7320556461295
 30
0.0
 10
122.5241319138134
 20
71.81267088048433
 30
0.0
 10
122.4991549715454
 20
71.93703882750185
 30
0.0
 10
122.4741780292773
 20
72.06140677451937
 30
0.0
 10
122.5551377731807
 20
72.18232962605164
 30
0.0
 10
122.6795057201982
 20
72.20747882309396
 30
0.0
  0
HATCH
  5
B1
330
3D
100
AcDbEntity
  8
Capa 2
 62
     7
100
AcDbHatch
 10
0.0
 20
0.0
 30
0.0
210
0.0
220
0.0
230
1.0
  2
SOLID
 70
     1
 71
     0
 91
        1
 92
        1
 93
        2
 72
     4
 94
        3
 73
     0
 74
     0
 95
       17
 96
       13
 40
0.0
 40
0.0
 40
0.0
 40
0.0
 40
0.3527777776895833
 40
0.3527777776895833
 40
0.3527777776895833
 40
0.7055555553791667
 40
0.7055555553791667
 40
0.7055555553791667
 40
1.05833333306875
 40
1.05833333306875
 40
1.05833333306875
 40
1.411111110758333
 40
1.411111110758333
 40
1.411111110758333
 40
1.411111110758333
 10
122.6795057201982
 20
72.20747882309396
 10
122.8038736672157
 20
72.23228351058776
 10
122.9249687735222
 20
72.15166827623293
 10
122.9492566966932
 20
72.02695581966688
 10
122.9742336389613
 20
71.90293238219787
 10
122.8934461498322
 20
71.78166502111709
 10
122.7692504575889
 20
71.75720484317182
 10
122.6448825105714
 20
71.7320556461295
 10
122.5241319138134
 20
71.81267088048433
 10
122.4991549715454
 20
71.93703882750185
 10
122.4741780292773
 20
72.06140677451937
 10
122.5551377731807
 20
72.18232962605164
 10
122.6795057201982
 20
72.20747882309396
 72
     1
 10
122.6795057201982
 20
72.20747882309396
 11
122.6795057201982
 21
72.20747882309396
 97
        0
 75
     2
 76
     1
 98
        0
  0
SPLINE
  5
B2
330
3D
100
AcDbEntity
  8
Capa 2
370
     0
100
AcDbSpline
210
0.0
220
0.0
230
1.0
 70
    11
 71
     3
 72
    17
 73
    13
 74
     0
 42
0.0000000001
 43
0.0000000001
 40
0.0
 40
0.0
 40
0.0
 40
0.0
 40
1.0
 40
1.0
 40
1.0
 40
2.0
 40
2.0
 40
2.0
 40
3.0
 40
3.0
 40
3.0
 40
4.0
 40
4.0
 40
4.0
 40
4.0
 10
122.9010253598997
 20
73.34057072819265
 30
0.0
 10
123.0253933069173
 20
73.36571992523496
 30
0.0
 10
123.1463161584495
 20
73.28510469088012
 30
0.0
 10
123.1709485911691
 20
73.1607367438626
 30
0.0
 10
123.1959255334371
 20
73.03636879684508
 30
0.0
 10
123.1149657895338
 20
72.91544594531281
 30
0.0
 10
122.9905978425163
 20
72.89064125781901
 30
0.0
 10
122.866402150273
 20
72.86549206077669
 30
0.0
 10
122.745651553515
 20
72.94645180468005
 30
0.0
 10
122.7210191207954
 20
73.07081975169757
 30
0.0
 10
122.6956976689789
 20
73.19518769871509
 30
0.0
 10
122.7766574128822
 20
73.31611055024736
 30
0.0
 10
122.9010253598997
 20
73.34057072819265
 30
0.0
  0
HATCH
  5
B3
330
3D
100
AcDbEntity
  8
Capa 2
 62
     7
100
AcDbHatch
 10
0.0
 20
0.0
 30
0.0
210
0.0
220
0.0
230
1.0
  2
SOLID
 70
     1
 71
     0
 91
        1
 92
        1
 93
        2
 72
     4
 94
        3
 73
     0
 74
     0
 95
       17
 96
       13
 40
0.0
 40
0.0
 40
0.0
 40
0.0
 40
0.3527777776895833
 40
0.3527777776895833
 40
0.3527777776895833
 40
0.7055555553791667
 40
0.7055555553791667
 40
0.7055555553791667
 40
1.05833333306875
 40
1.05833333306875
 40
1.05833333306875
 40
1.411111110758333
 40
1.411111110758333
 40
1.411111110758333
 40
1.411111110758333
 10
122.9010253598997
 20
73.34057072819265
 10
123.0253933069173
 20
73.36571992523496
 10
123.1463161584495
 20
73.28510469088012
 10
123.1709485911691
 20
73.1607367438626
 10
123.1959255334371
 20
73.03636879684508
 10
123.1149657895338
 20
72.91544594531281
 10
122.9905978425163
 20
72.89064125781901
 10
122.866402150273
 20
72.86549206077669
 10
122.745651553515
 20
72.94645180468005
 10
122.7210191207954
 20
73.07081975169757
 10
122.6956976689789
 20
73.19518769871509
 10
122.7766574128822
 20
73.31611055024736
 10
122.9010253598997
 20
73.34057072819265
 72
     1
 10
122.9010253598997
 20
73.34057072819265
 11
122.9010253598997
 21
73.34057072819265
 97
        0
 75
     2
 76
     1
 98
        0
  0
SPLINE
  5
B4
330
3D
100
AcDbEntity
  8
Capa 2
370
     0
100
AcDbSpline
210
0.0
220
0.0
230
1.0
 70
    11
 71
     3
 72
    17
 73
    13
 74
     0
 42
0.0000000001
 43
0.0000000001
 40
0.0
 40
0.0
 40
0.0
 40
0.0
 40
1.0
 40
1.0
 40
1.0
 40
2.0
 40
2.0
 40
2.0
 40
3.0
 40
3.0
 40
3.0
 40
4.0
 40
4.0
 40
4.0
 40
4.0
 10
118.8599283557017
 20
76.02154403481406
 30
0.0
 10
118.9842963027192
 20
76.04669323185638
 30
0.0
 10
119.1053914090257
 20
75.96607799750154
 30
0.0
 10
119.1296793321968
 20
75.8413655409355
 30
0.0
 10
119.1548285292391
 20
75.71699759391798
 30
0.0
 10
119.0742132948842
 20
75.59573023283718
 30
0.0
 10
118.9498453478667
 20
75.57161456444044
 30
0.0
 10
118.8256496556235
 20
75.54646536739811
 30
0.0
 10
118.7045545493169
 20
75.62708060175295
 30
0.0
 10
118.6795776070489
 20
75.75144854877047
 30
0.0
 10
118.6546006647808
 20
75.87581649578799
 30
0.0
 10
118.7355604086842
 20
75.99673934732026
 30
0.0
 10
118.8599283557017
 20
76.02154403481406
 30
0.0
  0
HATCH
  5
B5
330
3D
100
AcDbEntity
  8
Capa 2
 62
     7
100
AcDbHatch
 10
0.0
 20
0.0
 30
0.0
210
0.0
220
0.0
230
1.0
  2
SOLID
 70
     1
 71
     0
 91
        1
 92
        1
 93
        2
 72
     4
 94
        3
 73
     0
 74
     0
 95
       17
 96
       13
 40
0.0
 40
0.0
 40
0.0
 40
0.0
 40
0.3527777776895833
 40
0.3527777776895833
 40
0.3527777776895833
 40
0.7055555553791667
 40
0.7055555553791667
 40
0.7055555553791667
 40
1.05833333306875
 40
1.05833333306875
 40
1.05833333306875
 40
1.411111110758333
 40
1.411111110758333
 40
1.411111110758333
 40
1.411111110758333
 10
118.8599283557017
 20
76.02154403481406
 10
118.9842963027192
 20
76.04669323185638
 10
119.1053914090257
 20
75.96607799750154
 10
119.1296793321968
 20
75.8413655409355
 10
119.1548285292391
 20
75.71699759391798
 10
119.0742132948842
 20
75.59573023283718
 10
118.9498453478667
 20
75.57161456444044
 10
118.8256496556235
 20
75.54646536739811
 10
118.7045545493169
 20
75.62708060175295
 10
118.6795776070489
 20
75.75144854877047
 10
118.6546006647808
 20
75.87581649578799
 10
118.7355604086842
 20
75.99673934732026
 10
118.8599283557017
 20
76.02154403481406
 72
     1
 10
118.8599283557017
 20
76.02154403481406
 11
118.8599283557017
 21
76.02154403481406
 97
        0
 75
     2
 76
     1
 98
        0
  0
SPLINE
  5
B6
330
3D
100
AcDbEntity
  8
Capa 2
370
     0
100
AcDbSpline
210
0.0
220
0.0
230
1.0
 70
    11
 71
     3
 72
    17
 73
    13
 74
     0
 42
0.0000000001
 43
0.0000000001
 40
0.0
 40
0.0
 40
0.0
 40
0.0
 40
1.0
 40
1.0
 40
1.0
 40
2.0
 40
2.0
 40
2.0
 40
3.0
 40
3.0
 40
3.0
 40
4.0
 40
4.0
 40
4.0
 40
4.0
 10
119.9623589109816
 20
76.24478622225826
 30
0.0
 10
120.0867268579992
 20
76.26959090975205
 30
0.0
 10
120.2078219643057
 20
76.1889756753972
 30
0.0
 10
120.2321098874767
 20
76.06426321883116
 30
0.0
 10
120.2570868297448
 20
75.93989527181364
 30
0.0
 10
120.1764715953899
 20
75.81897242028137
 30
0.0
 10
120.0521036483724
 20
75.79416773278757
 30
0.0
 10
119.9277357013549
 20
75.7697075548423
 30
0.0
 10
119.8069851045969
 20
75.84997827964862
 30
0.0
 10
119.7820081623288
 20
75.97434622666614
 30
0.0
 10
119.7570312200608
 20
76.09940319278071
 30
0.0
 10
119.8379909639641
 20
76.21963702521593
 30
0.0
 10
119.9623589109816
 20
76.24478622225826
 30
0.0
  0
HATCH
  5
B7
330
3D
100
AcDbEntity
  8
Capa 2
 62
     7
100
AcDbHatch
 10
0.0
 20
0.0
 30
0.0
210
0.0
220
0.0
230
1.0
  2
SOLID
 70
     1
 71
     0
 91
        1
 92
        1
 93
        2
 72
     4
 94
        3
 73
     0
 74
     0
 95
       17
 96
       13
 40
0.0
 40
0.0
 40
0.0
 40
0.0
 40
0.3527777776895833
 40
0.3527777776895833
 40
0.3527777776895833
 40
0.7055555553791667
 40
0.7055555553791667
 40
0.7055555553791667
 40
1.05833333306875
 40
1.05833333306875
 40
1.05833333306875
 40
1.411111110758333
 40
1.411111110758333
 40
1.411111110758333
 40
1.411111110758333
 10
119.9623589109816
 20
76.24478622225826
 10
120.0867268579992
 20
76.26959090975205
 10
120.2078219643057
 20
76.1889756753972
 10
120.2321098874767
 20
76.06426321883116
 10
120.2570868297448
 20
75.93989527181364
 10
120.1764715953899
 20
75.81897242028137
 10
120.0521036483724
 20
75.79416773278757
 10
119.9277357013549
 20
75.7697075548423
 10
119.8069851045969
 20
75.84997827964862
 10
119.7820081623288
 20
75.97434622666614
 10
119.7570312200608
 20
76.09940319278071
 10
119.8379909639641
 20
76.21963702521593
 10
119.9623589109816
 20
76.24478622225826
 72
     1
 10
119.9623589109816
 20
76.24478622225826
 11
119.9623589109816
 21
76.24478622225826
 97
        0
 75
     2
 76
     1
 98
        0
  0
SPLINE
  5
B8
330
3D
100
AcDbEntity
  8
Capa 2
370
     0
100
AcDbSpline
210
0.0
220
0.0
230
1.0
 70
    11
 71
     3
 72
    17
 73
    13
 74
     0
 42
0.0000000001
 43
0.0000000001
 40
0.0
 40
0.0
 40
0.0
 40
0.0
 40
1.0
 40
1.0
 40
1.0
 40
2.0
 40
2.0
 40
2.0
 40
3.0
 40
3.0
 40
3.0
 40
4.0
 40
4.0
 40
4.0
 40
4.0
 10
121.0956230708546
 20
76.02292207300816
 30
0.0
 10
121.2199910178721
 20
76.04807127005049
 30
0.0
 10
121.3410861241786
 20
75.96711152614712
 30
0.0
 10
121.3658908116724
 20
75.84274357912959
 30
0.0
 10
121.3908677539405
 20
75.7187201416606
 30
0.0
 10
121.3099080100371
 20
75.5974527805798
 30
0.0
 10
121.1855400630196
 20
75.57299260263453
 30
0.0
 10
121.0613443707763
 20
75.5478434055922
 30
0.0
 10
120.9402492644698
 20
75.62880314949558
 30
0.0
 10
120.9156168317503
 20
75.7531710965131
 30
0.0
 10
120.8902953799337
 20
75.87753904353062
 30
0.0
 10
120.9712551238371
 20
75.99846189506289
 30
0.0
 10
121.0956230708546
 20
76.02292207300816
 30
0.0
  0
HATCH
  5
B9
330
3D
100
AcDbEntity
  8
Capa 2
 62
     7
100
AcDbHatch
 10
0.0
 20
0.0
 30
0.0
210
0.0
220
0.0
230
1.0
  2
SOLID
 70
     1
 71
     0
 91
        1
 92
        1
 93
        2
 72
     4
 94
        3
 73
     0
 74
     0
 95
       17
 96
       13
 40
0.0
 40
0.0
 40
0.0
 40
0.0
 40
0.3527777776895833
 40
0.3527777776895833
 40
0.3527777776895833
 40
0.7055555553791667
 40
0.7055555553791667
 40
0.7055555553791667
 40
1.05833333306875
 40
1.05833333306875
 40
1.05833333306875
 40
1.411111110758333
 40
1.411111110758333
 40
1.411111110758333
 40
1.411111110758333
 10
121.0956230708546
 20
76.02292207300816
 10
121.2199910178721
 20
76.04807127005049
 10
121.3410861241786
 20
75.96711152614712
 10
121.3658908116724
 20
75.84274357912959
 10
121.3908677539405
 20
75.7187201416606
 10
121.3099080100371
 20
75.5974527805798
 10
121.1855400630196
 20
75.57299260263453
 10
121.0613443707763
 20
75.5478434055922
 10
120.9402492644698
 20
75.62880314949558
 10
120.9156168317503
 20
75.7531710965131
 10
120.8902953799337
 20
75.87753904353062
 10
120.9712551238371
 20
75.99846189506289
 10
121.0956230708546
 20
76.02292207300816
 72
     1
 10
121.0956230708546
 20
76.02292207300816
 11
121.0956230708546
 21
76.02292207300816
 97
        0
 75
     2
 76
     1
 98
        0
  0
SPLINE
  5
BA
330
3D
100
AcDbEntity
  8
Capa 2
370
     0
100
AcDbSpline
210
0.0
220
0.0
230
1.0
 70
    11
 71
     3
 72
    17
 73
    13
 74
     0
 42
0.0000000001
 43
0.0000000001
 40
0.0
 40
0.0
 40
0.0
 40
0.0
 40
1.0
 40
1.0
 40
1.0
 40
2.0
 40
2.0
 40
2.0
 40
3.0
 40
3.0
 40
3.0
 40
4.0
 40
4.0
 40
4.0
 40
4.0
 10
122.0328612976168
 20
75.40108233792057
 30
0.0
 10
122.1572292446343
 20
75.4262315349629
 30
0.0
 10
122.2783243509408
 20
75.34561630060804
 30
0.0
 10
122.3029567836604
 20
75.22124835359052
 30
0.0
 10
122.328278235477
 20
75.096880406573
 30
0.0
 10
122.2473184915736
 20
74.97595755504074
 30
0.0
 10
122.1229505445561
 20
74.95115286754694
 30
0.0
 10
121.9985825975386
 20
74.92600367050461
 30
0.0
 10
121.877487491232
 20
75.00696341440799
 30
0.0
 10
121.8528550585125
 20
75.13133136142551
 30
0.0
 10
121.8280503710187
 20
75.25569930844303
 30
0.0
 10
121.9086656053735
 20
75.37627765042677
 30
0.0
 10
122.0328612976168
 20
75.40108233792057
 30
0.0
  0
HATCH
  5
BB
330
3D
100
AcDbEntity
  8
Capa 2
 62
     7
100
AcDbHatch
 10
0.0
 20
0.0
 30
0.0
210
0.0
220
0.0
230
1.0
  2
SOLID
 70
     1
 71
     0
 91
        1
 92
        1
 93
        2
 72
     4
 94
        3
 73
     0
 74
     0
 95
       17
 96
       13
 40
0.0
 40
0.0
 40
0.0
 40
0.0
 40
0.3527777776895833
 40
0.3527777776895833
 40
0.3527777776895833
 40
0.7055555553791667
 40
0.7055555553791667
 40
0.7055555553791667
 40
1.05833333306875
 40
1.05833333306875
 40
1.05833333306875
 40
1.411111110758333
 40
1.411111110758333
 40
1.411111110758333
 40
1.411111110758333
 10
122.0328612976168
 20
75.40108233792057
 10
122.1572292446343
 20
75.4262315349629
 10
122.2783243509408
 20
75.34561630060804
 10
122.3029567836604
 20
75.22124835359052
 10
122.328278235477
 20
75.096880406573
 10
122.2473184915736
 20
74.97595755504074
 10
122.1229505445561
 20
74.95115286754694
 10
121.9985825975386
 20
74.92600367050461
 10
121.877487491232
 20
75.00696341440799
 10
121.8528550585125
 20
75.13133136142551
 10
121.8280503710187
 20
75.25569930844303
 10
121.9086656053735
 20
75.37627765042677
 10
122.0328612976168
 20
75.40108233792057
 72
     1
 10
122.0328612976168
 20
75.40108233792057
 11
122.0328612976168
 21
75.40108233792057
 97
        0
 75
     2
 76
     1
 98
        0
  0
SPLINE
  5
BC
330
3D
100
AcDbEntity
  8
Capa 2
370
     0
100
AcDbSpline
210
0.0
220
0.0
230
1.0
 70
    11
 71
     3
 72
    17
 73
    13
 74
     0
 42
0.0000000001
 43
0.0000000001
 40
0.0
 40
0.0
 40
0.0
 40
0.0
 40
1.0
 40
1.0
 40
1.0
 40
2.0
 40
2.0
 40
2.0
 40
3.0
 40
3.0
 40
3.0
 40
4.0
 40
4.0
 40
4.0
 40
4.0
 10
122.5143133916805
 20
74.31449922187277
 30
0.0
 10
122.5678846264761
 20
74.42990992062863
 30
0.0
 10
122.7044826624662
 20
74.47986380516475
 30
0.0
 10
122.8193765968993
 20
74.42612031559486
 30
0.0
 10
122.9346150408809
 20
74.37306584512201
 30
0.0
 10
122.9842244158685
 20
74.2362955543576
 30
0.0
 10
122.9308254358472
 20
74.12088485560173
 30
0.0
 10
122.8775987106001
 20
74.0061631759429
 30
0.0
 10
122.7410006746099
 20
73.9565538009553
 30
0.0
 10
122.6257622306283
 20
74.00960827142816
 30
0.0
 10
122.5108682961952
 20
74.06335176099806
 30
0.0
 10
122.4609144116591
 20
74.19977754221395
 30
0.0
 10
122.5143133916805
 20
74.31449922187277
 30
0.0
  0
HATCH
  5
BD
330
3D
100
AcDbEntity
  8
Capa 2
 62
     7
100
AcDbHatch
 10
0.0
 20
0.0
 30
0.0
210
0.0
220
0.0
230
1.0
  2
SOLID
 70
     1
 71
     0
 91
        1
 92
        1
 93
        2
 72
     4
 94
        3
 73
     0
 74
     0
 95
       17
 96
       13
 40
0.0
 40
0.0
 40
0.0
 40
0.0
 40
0.3527777776895833
 40
0.3527777776895833
 40
0.3527777776895833
 40
0.7055555553791667
 40
0.7055555553791667
 40
0.7055555553791667
 40
1.05833333306875
 40
1.05833333306875
 40
1.05833333306875
 40
1.411111110758333
 40
1.411111110758333
 40
1.411111110758333
 40
1.411111110758333
 10
122.5143133916805
 20
74.31449922187277
 10
122.5678846264761
 20
74.42990992062863
 10
122.7044826624662
 20
74.47986380516475
 10
122.8193765968993
 20
74.42612031559486
 10
122.9346150408809
 20
74.37306584512201
 10
122.9842244158685
 20
74.2362955543576
 10
122.9308254358472
 20
74.12088485560173
 10
122.8775987106001
 20
74.0061631759429
 10
122.7410006746099
 20
73.9565538009553
 10
122.6257622306283
 20
74.00960827142816
 10
122.5108682961952
 20
74.06335176099806
 10
122.4609144116591
 20
74.19977754221395
 10
122.5143133916805
 20
74.31449922187277
 72
     1
 10
122.5143133916805
 20
74.31449922187277
 11
122.5143133916805
 21
74.31449922187277
 97
        0
 75
     2
 76
     1
 98
        0
  0
ENDBLK
  5
40
330
3D
100
AcDbEntity
  8
0
100
AcDbBlockEnd
  0
BLOCK
  5
50
330
4E
100
AcDbEntity
  8
0
100
AcDbBlockBegin
  2
block 3
 70
     0
 71
     0
 10
0.0
 20
0.0
 30
0.0
  3
block 3
  1

  0
POLYLINE
  5
52
330
4E
100
AcDbEntity
  8
Capa 2
 62
   250
370
    35
100
AcDb2dPolyline
 66
     1
 10
0.0
 20
0.0
 30
0.0
  0
VERTEX
  5
53
330
52
100
AcDbEntity
  8
Capa 2
 62
   250
370
    35
100
AcDbVertex
100
AcDb2dVertex
 10
115.5748575557417
 20
74.80611434761792
 30
0.0
  0
VERTEX
  5
54
330
52
100
AcDbEntity
  8
Capa 2
 62
   250
370
    35
100
AcDbVertex
100
AcDb2dVertex
 10
120.0042168211274
 20
84.49510089033456
 30
0.0
  0
VERTEX
  5
55
330
52
100
AcDbEntity
  8
Capa 2
 62
   250
370
    35
100
AcDbVertex
100
AcDb2dVertex
 10
124.4738837036906
 20
74.76546222089198
 30
0.0
  0
SEQEND
  5
56
330
52
100
AcDbEntity
  8
Capa 2
370
    35
  0
SPLINE
  5
57
330
4E
100
AcDbEntity
  8
Capa 2
 62
   250
370
    35
100
AcDbSpline
210
0.0
220
0.0
230
1.0
 70
    11
 71
     3
 72
    17
 73
    13
 74
     0
 42
0.0000000001
 43
0.0000000001
 40
0.0
 40
0.0
 40
0.0
 40
0.0
 40
1.0
 40
1.0
 40
1.0
 40
2.0
 40
2.0
 40
2.0
 40
3.0
 40
3.0
 40
3.0
 40
4.0
 40
4.0
 40
4.0
 40
4.0
 10
120.0245428844904
 20
77.8408989605745
 30
0.0
 10
122.6438489819258
 20
77.8408989605745
 30
0.0
 10
124.7672335842596
 20
75.7173421034665
 30
0.0
 10
124.7672335842596
 20
73.09803600603105
 30
0.0
 10
124.7672335842596
 20
70.4787299085956
 30
0.0
 10
122.6438489819258
 20
68.35586207058465
 30
0.0
 10
120.0245428844904
 20
68.35586207058465
 30
0.0
 10
117.4055812966035
 20
68.35586207058465
 30
0.0
 10
115.2818521847212
 20
70.4787299085956
 30
0.0
 10
115.2818521847212
 20
73.09803600603105
 30
0.0
 10
115.2818521847212
 20
75.7173421034665
 30
0.0
 10
117.4055812966035
 20
77.8408989605745
 30
0.0
 10
120.0245428844904
 20
77.8408989605745
 30
0.0
  0
POLYLINE
  5
58
330
4E
100
AcDbEntity
  8
Capa 2
 62
   250
370
    35
100
AcDb2dPolyline
 66
     1
 10
0.0
 20
0.0
 30
0.0
  0
VERTEX
  5
59
330
58
100
AcDbEntity
  8
Capa 2
 62
   250
370
    35
100
AcDbVertex
100
AcDb2dVertex
 10
123.083615420618
 20
97.20371362587268
 30
0.0
  0
VERTEX
  5
5A
330
58
100
AcDbEntity
  8
Capa 2
 62
   250
370
    35
100
AcDbVertex
100
AcDb2dVertex
 10
120.0388400307542
 20
87.45271536442155
 30
0.0
  0
VERTEX
  5
5B
330
58
100
AcDbEntity
  8
Capa 2
 62
   250
370
    35
100
AcDbVertex
100
AcDb2dVertex
 10
116.9651258388143
 20
97.23230791840027
 30
0.0
  0
SEQEND
  5
5C
330
58
100
AcDbEntity
  8
Capa 2
370
    35
  0
SPLINE
  5
5D
330
4E
100
AcDbEntity
  8
Capa 2
 62
   250
370
    35
100
AcDbSpline
210
0.0
220
0.0
230
1.0
 70
    11
 71
     3
 72
    17
 73
    13
 74
     0
 42
0.0000000001
 43
0.0000000001
 40
0.0
 40
0.0
 40
0.0
 40
0.0
 40
1.0
 40
1.0
 40
1.0
 40
2.0
 40
2.0
 40
2.0
 40
3.0
 40
3.0
 40
3.0
 40
4.0
 40
4.0
 40
4.0
 40
4.0
 10
120.0245428844904
 20
95.20796981126746
 30
0.0
 10
118.1852064049155
 20
95.20796981126746
 30
0.0
 10
116.6941690788994
 20
96.69866262773506
 30
0.0
 10
116.6941690788994
 20
98.53834361685847
 30
0.0
 10
116.6941690788994
 20
100.3773355868848
 30
0.0
 10
118.1852064049155
 20
101.8687174224495
 30
0.0
 10
120.0245428844904
 20
101.8687174224495
 30
0.0
 10
121.8635348545168
 20
101.8687174224495
 30
0.0
 10
123.3545721805329
 20
100.3773355868848
 30
0.0
 10
123.3545721805329
 20
98.53834361685847
 30
0.0
 10
123.3545721805329
 20
96.69866262773506
 30
0.0
 10
121.8635348545168
 20
95.20796981126746
 30
0.0
 10
120.0245428844904
 20
95.20796981126746
 30
0.0
  0
ENDBLK
  5
51
330
4E
100
AcDbEntity
  8
0
100
AcDbBlockEnd
  0
BLOCK
  5
C8
330
C6
100
AcDbEntity
  8
0
100
AcDbBlockBegin
  2
block 4
 70
     0
 71
     0
 10
0.0
 20
0.0
 30
0.0
  3
block 4
  1

  0
SPLINE
  5
CA
330
C6
100
AcDbEntity
  8
Capa 3
370
     0
100
AcDbSpline
210
0.0
220
0.0
230
1.0
 70
    11
 71
     3
 72
    56
 73
    52
 74
     0
 42
0.0000000001
 43
0.0000000001
 40
0.0
 40
0.0
 40
0.0
 40
0.0
 40
1.0
 40
1.0
 40
1.0
 40
2.0
 40
2.0
 40
2.0
 40
3.0
 40
3.0
 40
3.0
 40
4.0
 40
4.0
 40
4.0
 40
5.0
 40
5.0
 40
5.0
 40
6.0
 40
6.0
 40
6.0
 40
7.0
 40
7.0
 40
7.0
 40
8.0
 40
8.0
 40
8.0
 40
9.0
 40
9.0
 40
9.0
 40
10.0
 40
10.0
 40
10.0
 40
11.0
 40
11.0
 40
11.0
 40
12.0
 40
12.0
 40
12.0
 40
13.0
 40
13.0
 40
13.0
 40
14.0
 40
14.0
 40
14.0
 40
15.0
 40
15.0
 40
15.0
 40
16.0
 40
16.0
 40
16.0
 40
17.0
 40
17.0
 40
17.0
 40
17.0
 10
118.6306572511583
 20
87.46270614132877
 30
0.0
 10
118.6306572511583
 20
87.46270614132877
 30
0.0
 10
118.6306572511583
 20
86.2248833334785
 30
0.0
 10
118.6306572511583
 20
86.2248833334785
 30
0.0
 10
118.6306572511583
 20
86.2248833334785
 30
0.0
 10
116.7737507846087
 20
86.2248833334785
 30
0.0
 10
116.7737507846087
 20
86.2248833334785
 30
0.0
 10
116.7737507846087
 20
86.2248833334785
 30
0.0
 10
116.7737507846087
 20
88.11589624533214
 30
0.0
 10
116.7737507846087
 20
88.11589624533214
 30
0.0
 10
116.7737507846087
 20
89.15562606278054
 30
0.0
 10
115.9278075882056
 20
90.00139700440938
 30
0.0
 10
114.8880777707571
 20
90.00139700440938
 30
0.0
 10
113.8483479533087
 20
90.00139700440938
 30
0.0
 10
113.0025770116799
 20
89.15562606278054
 30
0.0
 10
113.0025770116799
 20
88.11589624533214
 30
0.0
 10
113.0025770116799
 20
88.07489960905767
 30
0.0
 10
113.0044718141968
 20
88.0339029727832
 30
0.0
 10
113.0074001453593
 20
87.99359535560578
 30
0.0
 10
112.3652343469087
 20
87.5443549043292
 30
0.0
 10
111.9852403148856
 20
86.81985132378115
 30
0.0
 10
111.9852403148856
 20
86.03402504359566
 30
0.0
 10
111.9852403148856
 20
84.80929359858935
 30
0.0
 10
112.893022975249
 20
83.80367022644492
 30
0.0
 10
114.0874375799851
 20
83.66000974471
 30
0.0
 10
114.0807196437889
 20
83.60902233152831
 30
0.0
 10
114.0774468030779
 20
83.55975746608924
 30
0.0
 10
114.0774468030779
 20
83.5111816197472
 30
0.0
 10
114.0774468030779
 20
82.76773001403029
 30
0.0
 10
114.6822333155135
 20
82.16277124682043
 30
0.0
 10
115.4256849212304
 20
82.16277124682043
 30
0.0
 10
116.168964272173
 20
82.16277124682043
 30
0.0
 10
116.7737507846087
 20
82.76773001403029
 30
0.0
 10
116.7737507846087
 20
83.5111816197472
 30
0.0
 10
116.7737507846087
 20
83.5111816197472
 30
0.0
 10
116.7737507846087
 20
85.87210555578892
 30
0.0
 10
116.7737507846087
 20
85.87210555578892
 30
0.0
 10
116.7737507846087
 20
85.87210555578892
 30
0.0
 10
118.6306572511583
 20
85.87210555578892
 30
0.0
 10
118.6306572511583
 20
85.87210555578892
 30
0.0
 10
118.6306572511583
 20
85.87210555578892
 30
0.0
 10
118.6306572511583
 20
84.6749348746646
 30
0.0
 10
118.6306572511583
 20
84.6749348746646
 30
0.0
 10
118.6306572511583
 20
84.6749348746646
 30
0.0
 10
121.418084008274
 20
84.6749348746646
 30
0.0
 10
121.418084008274
 20
84.6749348746646
 30
0.0
 10
121.418084008274
 20
84.6749348746646
 30
0.0
 10
121.418084008274
 20
87.46270614132877
 30
0.0
 10
121.418084008274
 20
87.46270614132877
 30
0.0
 10
121.418084008274
 20
87.46270614132877
 30
0.0
 10
118.6306572511583
 20
87.46270614132877
 30
0.0
 10
118.6306572511583
 20
87.46270614132877
 30
0.0
  0
SPLINE
  5
CB
330
C6
100
AcDbEntity
  8
Capa 3
370
     0
100
AcDbSpline
210
0.0
220
0.0
230
1.0
 70
    11
 71
     3
 72
    71
 73
    67
 74
     0
 42
0.0000000001
 43
0.0000000001
 40
0.0
 40
0.0
 40
0.0
 40
0.0
 40
1.0
 40
1.0
 40
1.0
 40
2.0
 40
2.0
 40
2.0
 40
3.0
 40
3.0
 40
3.0
 40
4.0
 40
4.0
 40
4.0
 40
5.0
 40
5.0
 40
5.0
 40
6.0
 40
6.0
 40
6.0
 40
7.0
 40
7.0
 40
7.0
 40
8.0
 40
8.0
 40
8.0
 40
9.0
 40
9.0
 40
9.0
 40
10.0
 40
10.0
 40
10.0
 40
11.0
 40
11.0
 40
11.0
 40
12.0
 40
12.0
 40
12.0
 40
13.0
 40
13.0
 40
13.0
 40
14.0
 40
14.0
 40
14.0
 40
15.0
 40
15.0
 40
15.0
 40
16.0
 40
16.0
 40
16.0
 40
17.0
 40
17.0
 40
17.0
 40
18.0
 40
18.0
 40
18.0
 40
19.0
 40
19.0
 40
19.0
 40
20.0
 40
20.0
 40
20.0
 40
21.0
 40
21.0
 40
21.0
 40
22.0
 40
22.0
 40
22.0
 40
22.0
 10
116.4209730069191
 20
83.5111816197472
 30
0.0
 10
116.4209730069191
 20
82.96203339939838
 30
0.0
 10
115.9744886320307
 20
82.51554902451001
 30
0.0
 10
115.4256849212304
 20
82.51554902451001
 30
0.0
 10
114.8767089556558
 20
82.51554902451001
 30
0.0
 10
114.4302245807674
 20
82.96203339939838
 30
0.0
 10
114.4302245807674
 20
83.5111816197472
 30
0.0
 10
114.4302245807674
 20
83.5897297968109
 30
0.0
 10
114.4431436888371
 20
83.67310110755395
 30
0.0
 10
114.4707044527191
 20
83.77369789572325
 30
0.0
 10
114.4707044527191
 20
83.77369789572325
 30
0.0
 10
114.5296155855169
 20
83.98867185400283
 30
0.0
 10
114.5296155855169
 20
83.98867185400283
 30
0.0
 10
114.5296155855169
 20
83.98867185400283
 30
0.0
 10
114.3067179076212
 20
83.9965955736189
 30
0.0
 10
114.3067179076212
 20
83.9965955736189
 30
0.0
 10
113.2027370593729
 20
84.03552515260223
 30
0.0
 10
112.3380180925752
 20
84.93056095967015
 30
0.0
 10
112.3380180925752
 20
86.03402504359566
 30
0.0
 10
112.3380180925752
 20
86.73475746529549
 30
0.0
 10
112.6930351823302
 20
87.37899032103721
 30
0.0
 10
113.2876586630843
 20
87.75657278622059
 30
0.0
 10
113.2876586630843
 20
87.75657278622059
 30
0.0
 10
113.3808484959604
 20
87.81582842856687
 30
0.0
 10
113.3808484959604
 20
87.81582842856687
 30
0.0
 10
113.3808484959604
 20
87.81582842856687
 30
0.0
 10
113.3682738974392
 20
87.92538246499782
 30
0.0
 10
113.3682738974392
 20
87.92538246499782
 30
0.0
 10
113.3612114516944
 20
87.98808320282937
 30
0.0
 10
113.3553547893695
 20
88.05147295975797
 30
0.0
 10
113.3553547893695
 20
88.11589624533214
 30
0.0
 10
113.3553547893695
 20
88.96097816786393
 30
0.0
 10
114.0429958482254
 20
89.64861922671979
 30
0.0
 10
114.8880777707571
 20
89.64861922671979
 30
0.0
 10
115.7333319480632
 20
89.64861922671979
 30
0.0
 10
116.4209730069191
 20
88.96097816786393
 30
0.0
 10
116.4209730069191
 20
88.11589624533214
 30
0.0
 10
116.4209730069191
 20
88.11589624533214
 30
0.0
 10
116.4209730069191
 20
86.2248833334785
 30
0.0
 10
116.4209730069191
 20
86.2248833334785
 30
0.0
 10
116.4209730069191
 20
86.2248833334785
 30
0.0
 10
114.5838758394096
 20
86.2248833334785
 30
0.0
 10
114.5838758394096
 20
86.2248833334785
 30
0.0
 10
114.5838758394096
 20
86.2248833334785
 30
0.0
 10
115.5917385236194
 20
87.16160479591794
 30
0.0
 10
115.5917385236194
 20
87.16160479591794
 30
0.0
 10
115.5917385236194
 20
87.16160479591794
 30
0.0
 10
115.365740259787
 20
87.40413951807952
 30
0.0
 10
115.365740259787
 20
87.40413951807952
 30
0.0
 10
115.365740259787
 20
87.40413951807952
 30
0.0
 10
113.9074313408808
 20
86.04849444463372
 30
0.0
 10
113.9074313408808
 20
86.04849444463372
 30
0.0
 10
113.9074313408808
 20
86.04849444463372
 30
0.0
 10
115.365740259787
 20
84.6928493711879
 30
0.0
 10
115.365740259787
 20
84.6928493711879
 30
0.0
 10
115.365740259787
 20
84.6928493711879
 30
0.0
 10
115.5917385236194
 20
84.9353840933495
 30
0.0
 10
115.5917385236194
 20
84.9353840933495
 30
0.0
 10
115.5917385236194
 20
84.9353840933495
 30
0.0
 10
114.5838758394096
 20
85.87210555578892
 30
0.0
 10
114.5838758394096
 20
85.87210555578892
 30
0.0
 10
114.5838758394096
 20
85.87210555578892
 30
0.0
 10
116.4209730069191
 20
85.87210555578892
 30
0.0
 10
116.4209730069191
 20
85.87210555578892
 30
0.0
 10
116.4209730069191
 20
85.87210555578892
 30
0.0
 10
116.4209730069191
 20
83.5111816197472
 30
0.0
 10
116.4209730069191
 20
83.5111816197472
 30
0.0
  0
HATCH
  5
CC
330
C6
100
AcDbEntity
  8
Capa 3
 62
   250
100
AcDbHatch
 10
0.0
 20
0.0
 30
0.0
210
0.0
220
0.0
230
1.0
  2
SOLID
 70
     1
 71
     0
 91
        2
 92
        1
 93
        1
 72
     4
 94
        3
 73
     0
 74
     1
 95
       56
 96
       52
 40
0.0
 40
0.0
 40
0.0
 40
0.0
 40
1.0
 40
1.0
 40
1.0
 40
2.0
 40
2.0
 40
2.0
 40
3.0
 40
3.0
 40
3.0
 40
4.0
 40
4.0
 40
4.0
 40
5.0
 40
5.0
 40
5.0
 40
6.0
 40
6.0
 40
6.0
 40
7.0
 40
7.0
 40
7.0
 40
8.0
 40
8.0
 40
8.0
 40
9.0
 40
9.0
 40
9.0
 40
10.0
 40
10.0
 40
10.0
 40
11.0
 40
11.0
 40
11.0
 40
12.0
 40
12.0
 40
12.0
 40
13.0
 40
13.0
 40
13.0
 40
14.0
 40
14.0
 40
14.0
 40
15.0
 40
15.0
 40
15.0
 40
16.0
 40
16.0
 40
16.0
 40
17.0
 40
17.0
 40
17.0
 40
17.0
 10
118.6306572511583
 20
87.46270614132877
 10
118.6306572511583
 20
87.46270614132877
 10
118.6306572511583
 20
86.2248833334785
 10
118.6306572511583
 20
86.2248833334785
 10
118.6306572511583
 20
86.2248833334785
 10
116.7737507846087
 20
86.2248833334785
 10
116.7737507846087
 20
86.2248833334785
 10
116.7737507846087
 20
86.2248833334785
 10
116.7737507846087
 20
88.11589624533214
 10
116.7737507846087
 20
88.11589624533214
 10
116.7737507846087
 20
89.15562606278054
 10
115.9278075882056
 20
90.00139700440938
 10
114.8880777707571
 20
90.00139700440938
 10
113.8483479533087
 20
90.00139700440938
 10
113.0025770116799
 20
89.15562606278054
 10
113.0025770116799
 20
88.11589624533214
 10
113.0025770116799
 20
88.07489960905767
 10
113.0044718141968
 20
88.0339029727832
 10
113.0074001453593
 20
87.99359535560578
 10
112.3652343469087
 20
87.5443549043292
 10
111.9852403148856
 20
86.81985132378115
 10
111.9852403148856
 20
86.03402504359566
 10
111.9852403148856
 20
84.80929359858935
 10
112.893022975249
 20
83.80367022644492
 10
114.0874375799851
 20
83.66000974471
 10
114.0807196437889
 20
83.60902233152831
 10
114.0774468030779
 20
83.55975746608924
 10
114.0774468030779
 20
83.5111816197472
 10
114.0774468030779
 20
82.76773001403029
 10
114.6822333155135
 20
82.16277124682043
 10
115.4256849212304
 20
82.16277124682043
 10
116.168964272173
 20
82.16277124682043
 10
116.7737507846087
 20
82.76773001403029
 10
116.7737507846087
 20
83.5111816197472
 10
116.7737507846087
 20
83.5111816197472
 10
116.7737507846087
 20
85.87210555578892
 10
116.7737507846087
 20
85.87210555578892
 10
116.7737507846087
 20
85.87210555578892
 10
118.6306572511583
 20
85.87210555578892
 10
118.6306572511583
 20
85.87210555578892
 10
118.6306572511583
 20
85.87210555578892
 10
118.6306572511583
 20
84.6749348746646
 10
118.6306572511583
 20
84.6749348746646
 10
118.6306572511583
 20
84.6749348746646
 10
121.418084008274
 20
84.6749348746646
 10
121.418084008274
 20
84.6749348746646
 10
121.418084008274
 20
84.6749348746646
 10
121.418084008274
 20
87.46270614132877
 10
121.418084008274
 20
87.46270614132877
 10
121.418084008274
 20
87.46270614132877
 10
118.6306572511583
 20
87.46270614132877
 10
118.6306572511583
 20
87.46270614132877
 97
        0
 92
        1
 93
        1
 72
     4
 94
        3
 73
     0
 74
     1
 95
       71
 96
       67
 40
0.0
 40
0.0
 40
0.0
 40
0.0
 40
1.0
 40
1.0
 40
1.0
 40
2.0
 40
2.0
 40
2.0
 40
3.0
 40
3.0
 40
3.0
 40
4.0
 40
4.0
 40
4.0
 40
5.0
 40
5.0
 40
5.0
 40
6.0
 40
6.0
 40
6.0
 40
7.0
 40
7.0
 40
7.0
 40
8.0
 40
8.0
 40
8.0
 40
9.0
 40
9.0
 40
9.0
 40
10.0
 40
10.0
 40
10.0
 40
11.0
 40
11.0
 40
11.0
 40
12.0
 40
12.0
 40
12.0
 40
13.0
 40
13.0
 40
13.0
 40
14.0
 40
14.0
 40
14.0
 40
15.0
 40
15.0
 40
15.0
 40
16.0
 40
16.0
 40
16.0
 40
17.0
 40
17.0
 40
17.0
 40
18.0
 40
18.0
 40
18.0
 40
19.0
 40
19.0
 40
19.0
 40
20.0
 40
20.0
 40
20.0
 40
21.0
 40
21.0
 40
21.0
 40
22.0
 40
22.0
 40
22.0
 40
22.0
 10
116.4209730069191
 20
83.5111816197472
 10
116.4209730069191
 20
82.96203339939838
 10
115.9744886320307
 20
82.51554902451001
 10
115.4256849212304
 20
82.51554902451001
 10
114.8767089556558
 20
82.51554902451001
 10
114.4302245807674
 20
82.96203339939838
 10
114.4302245807674
 20
83.5111816197472
 10
114.4302245807674
 20
83.5897297968109
 10
114.4431436888371
 20
83.67310110755395
 10
114.4707044527191
 20
83.77369789572325
 10
114.4707044527191
 20
83.77369789572325
 10
114.5296155855169
 20
83.98867185400283
 10
114.5296155855169
 20
83.98867185400283
 10
114.5296155855169
 20
83.98867185400283
 10
114.3067179076212
 20
83.9965955736189
 10
114.3067179076212
 20
83.9965955736189
 10
113.2027370593729
 20
84.03552515260223
 10
112.3380180925752
 20
84.93056095967015
 10
112.3380180925752
 20
86.03402504359566
 10
112.3380180925752
 20
86.73475746529549
 10
112.6930351823302
 20
87.37899032103721
 10
113.2876586630843
 20
87.75657278622059
 10
113.2876586630843
 20
87.75657278622059
 10
113.3808484959604
 20
87.81582842856687
 10
113.3808484959604
 20
87.81582842856687
 10
113.3808484959604
 20
87.81582842856687
 10
113.3682738974392
 20
87.92538246499782
 10
113.3682738974392
 20
87.92538246499782
 10
113.3612114516944
 20
87.98808320282937
 10
113.3553547893695
 20
88.05147295975797
 10
113.3553547893695
 20
88.11589624533214
 10
113.3553547893695
 20
88.96097816786393
 10
114.0429958482254
 20
89.64861922671979
 10
114.8880777707571
 20
89.64861922671979
 10
115.7333319480632
 20
89.64861922671979
 10
116.4209730069191
 20
88.96097816786393
 10
116.4209730069191
 20
88.11589624533214
 10
116.4209730069191
 20
88.11589624533214
 10
116.4209730069191
 20
86.2248833334785
 10
116.4209730069191
 20
86.2248833334785
 10
116.4209730069191
 20
86.2248833334785
 10
114.5838758394096
 20
86.2248833334785
 10
114.5838758394096
 20
86.2248833334785
 10
114.5838758394096
 20
86.2248833334785
 10
115.5917385236194
 20
87.16160479591794
 10
115.5917385236194
 20
87.16160479591794
 10
115.5917385236194
 20
87.16160479591794
 10
115.365740259787
 20
87.40413951807952
 10
115.365740259787
 20
87.40413951807952
 10
115.365740259787
 20
87.40413951807952
 10
113.9074313408808
 20
86.04849444463372
 10
113.9074313408808
 20
86.04849444463372
 10
113.9074313408808
 20
86.04849444463372
 10
115.365740259787
 20
84.6928493711879
 10
115.365740259787
 20
84.6928493711879
 10
115.365740259787
 20
84.6928493711879
 10
115.5917385236194
 20
84.9353840933495
 10
115.5917385236194
 20
84.9353840933495
 10
115.5917385236194
 20
84.9353840933495
 10
114.5838758394096
 20
85.87210555578892
 10
114.5838758394096
 20
85.87210555578892
 10
114.5838758394096
 20
85.87210555578892
 10
116.4209730069191
 20
85.87210555578892
 10
116.4209730069191
 20
85.87210555578892
 10
116.4209730069191
 20
85.87210555578892
 10
116.4209730069191
 20
83.5111816197472
 10
116.4209730069191
 20
83.5111816197472
 97
        0
 75
     2
 76
     1
 98
        0
  0
SPLINE
  5
CD
330
C6
100
AcDbEntity
  8
Capa 3
370
     0
100
AcDbSpline
210
0.0
220
0.0
230
1.0
 70
    11
 71
     3
 72
    44
 73
    40
 74
     0
 42
0.0000000001
 43
0.0000000001
 40
0.0
 40
0.0
 40
0.0
 40
0.0
 40
1.0
 40
1.0
 40
1.0
 40
2.0
 40
2.0
 40
2.0
 40
3.0
 40
3.0
 40
3.0
 40
4.0
 40
4.0
 40
4.0
 40
5.0
 40
5.0
 40
5.0
 40
6.0
 40
6.0
 40
6.0
 40
7.0
 40
7.0
 40
7.0
 40
8.0
 40
8.0
 40
8.0
 40
9.0
 40
9.0
 40
9.0
 40
10.0
 40
10.0
 40
10.0
 40
11.0
 40
11.0
 40
11.0
 40
12.0
 40
12.0
 40
12.0
 40
13.0
 40
13.0
 40
13.0
 40
13.0
 10
119.9449611787811
 20
96.67316892114421
 30
0.0
 10
119.9449611787811
 20
96.67316892114421
 30
0.0
 10
120.1213500676259
 20
96.67316892114421
 30
0.0
 10
120.1213500676259
 20
96.67316892114421
 30
0.0
 10
120.1213500676259
 20
96.67316892114421
 30
0.0
 10
120.1213500676259
 20
97.02594669883379
 30
0.0
 10
120.1213500676259
 20
97.02594669883379
 30
0.0
 10
120.1213500676259
 20
97.02594669883379
 30
0.0
 10
119.9449611787811
 20
97.02594669883379
 30
0.0
 10
119.9449611787811
 20
97.02594669883379
 30
0.0
 10
119.0969509250869
 20
97.02594669883379
 30
0.0
 10
118.4068982993913
 20
97.71599932452934
 30
0.0
 10
118.4068982993913
 20
98.56418183299785
 30
0.0
 10
118.4068982993913
 20
99.40512964094734
 30
0.0
 10
119.0860988743083
 20
100.0886365852209
 30
0.0
 10
119.9244628606439
 20
100.1000054003222
 30
0.0
 10
119.9244628606439
 20
100.1000054003222
 30
0.0
 10
119.4542073269073
 20
99.63732907665317
 30
0.0
 10
119.4542073269073
 20
99.63732907665317
 30
0.0
 10
119.4542073269073
 20
99.63732907665317
 30
0.0
 10
119.7015651827482
 20
99.38583710622993
 30
0.0
 10
119.7015651827482
 20
99.38583710622993
 30
0.0
 10
119.7015651827482
 20
99.38583710622993
 30
0.0
 10
120.5890217797486
 20
100.2588243021922
 30
0.0
 10
120.5890217797486
 20
100.2588243021922
 30
0.0
 10
120.5890217797486
 20
100.2588243021922
 30
0.0
 10
119.7162068385605
 20
101.1469699182897
 30
0.0
 10
119.7162068385605
 20
101.1469699182897
 30
0.0
 10
119.7162068385605
 20
101.1469699182897
 30
0.0
 10
119.464542613363
 20
100.8996120624487
 30
0.0
 10
119.464542613363
 20
100.8996120624487
 30
0.0
 10
119.464542613363
 20
100.8996120624487
 30
0.0
 10
119.905514835475
 20
100.4507161207207
 30
0.0
 10
119.905514835475
 20
100.4507161207207
 30
0.0
 10
118.8814602024845
 20
100.4293565287121
 30
0.0
 10
118.0541205217017
 20
99.59323185444198
 30
0.0
 10
118.0541205217017
 20
98.56418183299785
 30
0.0
 10
118.0541205217017
 20
97.52135142961272
 30
0.0
 10
118.9023030301703
 20
96.67316892114421
 30
0.0
 10
119.9449611787811
 20
96.67316892114421
 30
0.0
  0
HATCH
  5
CE
330
C6
100
AcDbEntity
  8
Capa 3
 62
   250
100
AcDbHatch
 10
0.0
 20
0.0
 30
0.0
210
0.0
220
0.0
230
1.0
  2
SOLID
 70
     1
 71
     0
 91
        1
 92
        1
 93
        1
 72
     4
 94
        3
 73
     0
 74
     1
 95
       44
 96
       40
 40
0.0
 40
0.0
 40
0.0
 40
0.0
 40
1.0
 40
1.0
 40
1.0
 40
2.0
 40
2.0
 40
2.0
 40
3.0
 40
3.0
 40
3.0
 40
4.0
 40
4.0
 40
4.0
 40
5.0
 40
5.0
 40
5.0
 40
6.0
 40
6.0
 40
6.0
 40
7.0
 40
7.0
 40
7.0
 40
8.0
 40
8.0
 40
8.0
 40
9.0
 40
9.0
 40
9.0
 40
10.0
 40
10.0
 40
10.0
 40
11.0
 40
11.0
 40
11.0
 40
12.0
 40
12.0
 40
12.0
 40
13.0
 40
13.0
 40
13.0
 40
13.0
 10
119.9449611787811
 20
96.67316892114421
 10
119.9449611787811
 20
96.67316892114421
 10
120.1213500676259
 20
96.67316892114421
 10
120.1213500676259
 20
96.67316892114421
 10
120.1213500676259
 20
96.67316892114421
 10
120.1213500676259
 20
97.02594669883379
 10
120.1213500676259
 20
97.02594669883379
 10
120.1213500676259
 20
97.02594669883379
 10
119.9449611787811
 20
97.02594669883379
 10
119.9449611787811
 20
97.02594669883379
 10
119.0969509250869
 20
97.02594669883379
 10
118.4068982993913
 20
97.71599932452934
 10
118.4068982993913
 20
98.56418183299785
 10
118.4068982993913
 20
99.40512964094734
 10
119.0860988743083
 20
100.0886365852209
 10
119.9244628606439
 20
100.1000054003222
 10
119.9244628606439
 20
100.1000054003222
 10
119.4542073269073
 20
99.63732907665317
 10
119.4542073269073
 20
99.63732907665317
 10
119.4542073269073
 20
99.63732907665317
 10
119.7015651827482
 20
99.38583710622993
 10
119.7015651827482
 20
99.38583710622993
 10
119.7015651827482
 20
99.38583710622993
 10
120.5890217797486
 20
100.2588243021922
 10
120.5890217797486
 20
100.2588243021922
 10
120.5890217797486
 20
100.2588243021922
 10
119.7162068385605
 20
101.1469699182897
 10
119.7162068385605
 20
101.1469699182897
 10
119.7162068385605
 20
101.1469699182897
 10
119.464542613363
 20
100.8996120624487
 10
119.464542613363
 20
100.8996120624487
 10
119.464542613363
 20
100.8996120624487
 10
119.905514835475
 20
100.4507161207207
 10
119.905514835475
 20
100.4507161207207
 10
118.8814602024845
 20
100.4293565287121
 10
118.0541205217017
 20
99.59323185444198
 10
118.0541205217017
 20
98.56418183299785
 10
118.0541205217017
 20
97.52135142961272
 10
118.9023030301703
 20
96.67316892114421
 10
119.9449611787811
 20
96.67316892114421
 97
        0
 75
     2
 76
     1
 98
        0
  0
ENDBLK
  5
C9
330
C6
100
AcDbEntity
  8
0
100
AcDbBlockEnd
  0
ENDSEC
  0
SECTION
  2
ENTITIES
  0
INSERT
  5
3E
330
1F
100
AcDbEntity
  8
Capa 2
100
AcDbBlockReference
  2
block 2
 10
0.0
 20
0.0
 30
0.0
  0
POLYLINE
  5
BF
330
1F
100
AcDbEntity
  8
Capa 3
 62
    20
370
    35
100
AcDb2dPolyline
 66
     1
 10
0.0
 20
0.0
 30
0.0
  0
VERTEX
  5
C0
330
BF
100
AcDbEntity
  8
Capa 3
 62
    20
370
    35
100
AcDbVertex
100
AcDb2dVertex
 10
187.5051784470473
 20
61.50770126500502
 30
0.0
  0
VERTEX
  5
C1
330
BF
100
AcDbEntity
  8
Capa 3
 62
    20
370
    35
100
AcDbVertex
100
AcDb2dVertex
 10
109.5052883298285
 20
61.50770126500502
 30
0.0
  0
VERTEX
  5
C2
330
BF
100
AcDbEntity
  8
Capa 3
 62
    20
370
    35
100
AcDbVertex
100
AcDb2dVertex
 10
109.5052883298285
 20
148.5077310826647
 30
0.0
  0
VERTEX
  5
C3
330
BF
100
AcDbEntity
  8
Capa 3
 62
    20
370
    35
100
AcDbVertex
100
AcDb2dVertex
 10
187.5051784470473
 20
148.5077310826647
 30
0.0
  0
VERTEX
  5
C4
330
BF
100
AcDbEntity
  8
Capa 3
 62
    20
370
    35
100
AcDbVertex
100
AcDb2dVertex
 10
187.5051784470473
 20
61.50770126500502
 30
0.0
  0
SEQEND
  5
C5
330
BF
100
AcDbEntity
  8
Capa 3
370
    35
  0
INSERT
  5
C7
330
1F
100
AcDbEntity
  8
Capa 3
100
AcDbBlockReference
  2
block 4
 10
0.0
 20
0.0
 30
0.0
  0
ENDSEC
  0
SECTION
  2
OBJECTS
  0
DICTIONARY
  5
C
330
0
100
AcDbDictionary
281
     1
  3
ACAD_GROUP
350
D
  3
ACAD_LAYOUT
350
1A
  3
ACAD_MLINESTYLE
350
17
  3
ACAD_PLOTSETTINGS
350
19
  3
ACAD_PLOTSTYLENAME
350
E
  3
ACAD_TABLESTYLE
350
CF
  3
ACAD_VISUALSTYLE
350
2A
  0
DICTIONARY
  5
D
102
{ACAD_REACTORS
330
C
102
}
330
C
100
AcDbDictionary
281
     1
  0
DICTIONARY
  5
1A
102
{ACAD_REACTORS
330
C
102
}
330
C
100
AcDbDictionary
281
     1
  3
Layout1
350
1E
  3
Layout2
350
26
  3
Model
350
22
  0
DICTIONARY
  5
17
102
{ACAD_REACTORS
330
C
102
}
330
C
100
AcDbDictionary
281
     1
  3
Standard
350
18
  0
DICTIONARY
  5
19
102
{ACAD_REACTORS
330
C
102
}
330
C
100
AcDbDictionary
281
     1
  0
ACDBDICTIONARYWDFLT
  5
E
102
{ACAD_REACTORS
330
C
102
}
330
C
100
AcDbDictionary
281
     1
  3
Normal
350
F
100
AcDbDictionaryWithDefault
340
F
  0
DICTIONARY
  5
CF
102
{ACAD_REACTORS
330
C
102
}
330
C
100
AcDbDictionary
281
     1
  0
DICTIONARY
  5
2A
102
{ACAD_REACTORS
330
C
102
}
330
C
100
AcDbDictionary
281
     1
  3
2dWireframe
350
2F
  3
3D Hidden
350
31
  3
3dWireframe
350
30
  3
Basic
350
32
  3
Brighten
350
36
  3
ColorChange
350
3A
  3
Conceptual
350
34
  3
Dim
350
35
  3
Facepattern
350
39
  3
Flat
350
2B
  3
FlatWithEdges
350
2C
  3
Gouraud
350
2D
  3
GouraudWithEdges
350
2E
  3
Linepattern
350
38
  3
Realistic
350
33
  3
Thicken
350
37
  0
LAYOUT
  5
1E
102
{ACAD_REACTORS
330
1A
102
}
330
1A
100
AcDbPlotSettings
  1

  2
none_device
  4

  6

 40
0.0
 41
0.0
 42
0.0
 43
0.0
 44
0.0
 45
0.0
 46
0.0
 47
0.0
 48
0.0
 49
0.0
140
0.0
141
0.0
142
1.0
143
1.0
 70
   688
 72
     0
 73
     0
 74
     5
  7

 75
    16
147
1.0
148
0.0
149
0.0
100
AcDbLayout
  1
Layout1
 70
     1
 71
     1
 10
0.0
 20
0.0
 11
12.0
 21
9.0
 12
0.0
 22
0.0
 32
0.0
 14
1.000000000000000E+20
 24
1.000000000000000E+20
 34
1.000000000000000E+20
 15
-1.000000000000000E+20
 25
-1.000000000000000E+20
 35
-1.000000000000000E+20
146
0.0
 13
0.0
 23
0.0
 33
0.0
 16
1.0
 26
0.0
 36
0.0
 17
0.0
 27
1.0
 37
0.0
 76
     0
330
1B
  0
LAYOUT
  5
26
102
{ACAD_REACTORS
330
1A
102
}
330
1A
100
AcDbPlotSettings
  1

  2
none_device
  4

  6

 40
0.0
 41
0.0
 42
0.0
 43
0.0
 44
0.0
 45
0.0
 46
0.0
 47
0.0
 48
0.0
 49
0.0
140
0.0
141
0.0
142
1.0
143
1.0
 70
   688
 72
     0
 73
     0
 74
     5
  7

 75
    16
147
1.0
148
0.0
149
0.0
100
AcDbLayout
  1
Layout2
 70
     1
 71
     2
 10
0.0
 20
0.0
 11
0.0
 21
0.0
 12
0.0
 22
0.0
 32
0.0
 14
0.0
 24
0.0
 34
0.0
 15
0.0
 25
0.0
 35
0.0
146
0.0
 13
0.0
 23
0.0
 33
0.0
 16
1.0
 26
0.0
 36
0.0
 17
0.0
 27
1.0
 37
0.0
 76
     0
330
23
  0
LAYOUT
  5
22
102
{ACAD_REACTORS
330
1A
102
}
330
1A
100
AcDbPlotSettings
  1

  2
none_device
  4

  6

 40
0.0
 41
0.0
 42
0.0
 43
0.0
 44
0.0
 45
0.0
 46
0.0
 47
0.0
 48
0.0
 49
0.0
140
0.0
141
0.0
142
1.0
143
1.0
 70
  1712
 72
     0
 73
     0
 74
     0
  7

 75
     0
147
1.0
148
0.0
149
0.0
100
AcDbLayout
  1
Model
 70
     1
 71
     0
 10
0.0
 20
0.0
 11
12.0
 21
9.0
 12
0.0
 22
0.0
 32
0.0
 14
1.000000000000000E+20
 24
1.000000000000000E+20
 34
1.000000000000000E+20
 15
-1.000000000000000E+20
 25
-1.000000000000000E+20
 35
-1.000000000000000E+20
146
0.0
 13
0.0
 23
0.0
 33
0.0
 16
1.0
 26
0.0
 36
0.0
 17
0.0
 27
1.0
 37
0.0
 76
     0
330
1F
331
29
  0
MLINESTYLE
  5
18
102
{ACAD_REACTORS
330
17
102
}
330
17
100
AcDbMlineStyle
  2
Standard
 70
     0
  3

 62
   256
 51
90.0
 52
90.0
 71
     2
 49
0.5
 62
   256
  6
BYLAYER
 49
-0.5
 62
   256
  6
BYLAYER
  0
ACDBPLACEHOLDER
  5
F
102
{ACAD_REACTORS
330
E
102
}
330
E
  0
VISUALSTYLE
  5
2F
102
{ACAD_REACTORS
330
2A
102
}
330
2A
100
AcDbVisualStyle
  2
2dWireframe
 70
     4
 71
     0
 72
     2
 73
     0
 90
        0
 40
-0.6
 41
-30.0
 62
     5
 63
     7
 74
     1
 91
        4
 64
     7
 65
   257
 75
     1
175
     1
 42
1.0
 92
        0
 66
   257
 43
1.0
 76
     1
 77
     6
 78
     2
 67
     7
 79
     5
170
     0
171
     0
290
     0
174
     0
 93
        1
 44
0.0
173
     0
291
     0
 45
0.0
1001
ACAD
1000
AcDbSavedByObjectVersion
1070
     0
  0
VISUALSTYLE
  5
31
102
{ACAD_REACTORS
330
2A
102
}
330
2A
100
AcDbVisualStyle
  2
3D Hidden
 70
     6
 71
     1
 72
     2
 73
     2
 90
        0
 40
-0.6
 41
-30.0
 62
     5
 63
     7
 74
     2
 91
        2
 64
     7
 65
   257
 75
     2
175
     1
 42
40.0
 92
        0
 66
   257
 43
1.0
 76
     1
 77
     6
 78
     2
 67
     7
 79
     3
170
     0
171
     0
290
     0
174
     0
 93
        1
 44
0.0
173
     0
291
     0
 45
0.0
1001
ACAD
1000
AcDbSavedByObjectVersion
1070
     0
  0
VISUALSTYLE
  5
30
102
{ACAD_REACTORS
330
2A
102
}
330
2A
100
AcDbVisualStyle
  2
3dWireframe
 70
     5
 71
     0
 72
     2
 73
     0
 90
        0
 40
-0.6
 41
-30.0
 62
     5
 63
     7
 74
     1
 91
        4
 64
     7
 65
   257
 75
     1
175
     1
 42
1.0
 92
        0
 66
   257
 43
1.0
 76
     1
 77
     6
 78
     2
 67
     7
 79
     5
170
     0
171
     0
290
     0
174
     0
 93
        1
 44
0.0
173
     0
291
     0
 45
0.0
1001
ACAD
1000
AcDbSavedByObjectVersion
1070
     0
  0
VISUALSTYLE
  5
32
102
{ACAD_REACTORS
330
2A
102
}
330
2A
100
AcDbVisualStyle
  2
Basic
 70
     7
 71
     1
 72
     0
 73
     1
 90
        0
 40
-0.6
 41
-30.0
 62
     5
 63
     7
 74
     0
 91
        4
 64
     7
 65
   257
 75
     1
175
     1
 42
1.0
 92
        8
 66
     7
 43
1.0
 76
     1
 77
     6
 78
     2
 67
     7
 79
     5
170
     0
171
     0
290
     0
174
     0
 93
        1
 44
0.0
173
     0
291
     1
 45
0.0
1001
ACAD
1000
AcDbSavedByObjectVersion
1070
     0
  0
VISUALSTYLE
  5
36
102
{ACAD_REACTORS
330
2A
102
}
330
2A
100
AcDbVisualStyle
  2
Brighten
 70
    12
 71
     2
 72
     2
 73
     0
 90
        0
 40
-0.6
 41
-30.0
 62
     5
 63
     7
 74
     1
 91
        4
 64
     7
 65
   257
 75
     1
175
     1
 42
1.0
 92
        8
 66
     7
 43
1.0
 76
     1
 77
     6
 78
     2
 67
     7
 79
     5
170
     0
171
     0
290
     0
174
     0
 93
        1
 44
50.0
173
     0
291
     1
 45
0.0
1001
ACAD
1000
AcDbSavedByObjectVersion
1070
     0
  0
VISUALSTYLE
  5
3A
102
{ACAD_REACTORS
330
2A
102
}
330
2A
100
AcDbVisualStyle
  2
ColorChange
 70
    16
 71
     2
 72
     2
 73
     3
 90
        0
 40
-0.6
 41
-30.0
 62
     5
 63
     8
 74
     1
 91
        4
 64
     7
 65
   257
 75
     1
175
     1
 42
1.0
 92
        8
 66
     8
 43
1.0
 76
     1
 77
     6
 78
     2
 67
     7
 79
     5
170
     0
171
     0
290
     0
174
     0
 93
        1
 44
0.0
173
     0
291
     1
 45
0.0
1001
ACAD
1000
AcDbSavedByObjectVersion
1070
     0
  0
VISUALSTYLE
  5
34
102
{ACAD_REACTORS
330
2A
102
}
330
2A
100
AcDbVisualStyle
  2
Conceptual
 70
     9
 71
     3
 72
     2
 73
     0
 90
        0
 40
-0.6
 41
-30.0
 62
     5
 63
     7
 74
     2
 91
        2
 64
     7
 65
   257
 75
     1
175
     1
 42
40.0
 92
        8
 66
     7
 43
1.0
 76
     1
 77
     6
 78
     2
 67
     7
 79
     3
170
     0
171
     0
290
     0
174
     0
 93
        1
 44
0.0
173
     0
291
     0
 45
0.0
1001
ACAD
1000
AcDbSavedByObjectVersion
1070
     0
  0
VISUALSTYLE
  5
35
102
{ACAD_REACTORS
330
2A
102
}
330
2A
100
AcDbVisualStyle
  2
Dim
 70
    11
 71
     2
 72
     2
 73
     0
 90
        0
 40
-0.6
 41
-30.0
 62
     5
 63
     7
 74
     1
 91
        4
 64
     7
 65
   257
 75
     1
175
     1
 42
1.0
 92
        8
 66
     7
 43
1.0
 76
     1
 77
     6
 78
     2
 67
     7
 79
     5
170
     0
171
     0
290
     0
174
     0
 93
        1
 44
-50.0
173
     0
291
     1
 45
0.0
1001
ACAD
1000
AcDbSavedByObjectVersion
1070
     0
  0
VISUALSTYLE
  5
39
102
{ACAD_REACTORS
330
2A
102
}
330
2A
100
AcDbVisualStyle
  2
Facepattern
 70
    15
 71
     2
 72
     2
 73
     0
 90
        0
 40
-0.6
 41
-30.0
 62
     5
 63
     7
 74
     1
 91
        4
 64
     7
 65
   257
 75
     1
175
     1
 42
1.0
 92
        8
 66
     7
 43
1.0
 76
     1
 77
     6
 78
     2
 67
     7
 79
     5
170
     0
171
     0
290
     0
174
     0
 93
        1
 44
0.0
173
     0
291
     1
 45
0.0
1001
ACAD
1000
AcDbSavedByObjectVersion
1070
     0
  0
VISUALSTYLE
  5
2B
102
{ACAD_REACTORS
330
2A
102
}
330
2A
100
AcDbVisualStyle
  2
Flat
 70
     0
 71
     2
 72
     1
 73
     1
 90
        2
 40
-0.6
 41
30.0
 62
     5
 63
     7
 74
     0
 91
        4
 64
     7
 65
   257
 75
     1
175
     1
 42
1.0
 92
        8
 66
     7
 43
1.0
 76
     1
 77
     6
 78
     2
 67
     7
 79
     5
170
     0
171
     0
290
     0
174
     0
 93
       13
 44
0.0
173
     0
291
     1
 45
0.0
1001
ACAD
1000
AcDbSavedByObjectVersion
1070
     0
  0
VISUALSTYLE
  5
2C
102
{ACAD_REACTORS
330
2A
102
}
330
2A
100
AcDbVisualStyle
  2
FlatWithEdges
 70
     1
 71
     2
 72
     1
 73
     1
 90
        2
 40
-0.6
 41
30.0
 62
     5
 63
     7
 74
     1
 91
        4
 64
     7
 65
   257
 75
     1
175
     1
 42
1.0
 92
        0
 66
   257
 43
1.0
 76
     1
 77
     6
 78
     2
 67
     7
 79
     5
170
     0
171
     0
290
     0
174
     0
 93
       13
 44
0.0
173
     0
291
     1
 45
0.0
1001
ACAD
1000
AcDbSavedByObjectVersion
1070
     0
  0
VISUALSTYLE
  5
2D
102
{ACAD_REACTORS
330
2A
102
}
330
2A
100
AcDbVisualStyle
  2
Gouraud
 70
     2
 71
     2
 72
     2
 73
     1
 90
        2
 40
-0.6
 41
30.0
 62
     5
 63
     7
 74
     0
 91
        4
 64
     7
 65
   257
 75
     1
175
     1
 42
1.0
 92
        0
 66
     7
 43
1.0
 76
     1
 77
     6
 78
     2
 67
     7
 79
     5
170
     0
171
     0
290
     0
174
     0
 93
       13
 44
0.0
173
     0
291
     1
 45
0.0
1001
ACAD
1000
AcDbSavedByObjectVersion
1070
     0
  0
VISUALSTYLE
  5
2E
102
{ACAD_REACTORS
330
2A
102
}
330
2A
100
AcDbVisualStyle
  2
GouraudWithEdges
 70
     3
 71
     2
 72
     2
 73
     1
 90
        2
 40
-0.6
 41
30.0
 62
     5
 63
     7
 74
     1
 91
        4
 64
     7
 65
   257
 75
     1
175
     1
 42
1.0
 92
        0
 66
   257
 43
1.0
 76
     1
 77
     6
 78
     2
 67
     7
 79
     5
170
     0
171
     0
290
     0
174
     0
 93
       13
 44
0.0
173
     0
291
     1
 45
0.0
1001
ACAD
1000
AcDbSavedByObjectVersion
1070
     0
  0
VISUALSTYLE
  5
38
102
{ACAD_REACTORS
330
2A
102
}
330
2A
100
AcDbVisualStyle
  2
Linepattern
 70
    14
 71
     2
 72
     2
 73
     0
 90
        0
 40
-0.6
 41
-30.0
 62
     5
 63
     7
 74
     1
 91
        4
 64
     7
 65
   257
 75
     7
175
     7
 42
1.0
 92
        8
 66
     7
 43
1.0
 76
     1
 77
     6
 78
     2
 67
     7
 79
     5
170
     0
171
     0
290
     0
174
     0
 93
        1
 44
0.0
173
     0
291
     1
 45
0.0
1001
ACAD
1000
AcDbSavedByObjectVersion
1070
     0
  0
VISUALSTYLE
  5
33
102
{ACAD_REACTORS
330
2A
102
}
330
2A
100
AcDbVisualStyle
  2
Realistic
 70
     8
 71
     2
 72
     2
 73
     0
 90
        0
 40
-0.6
 41
-30.0
 62
     5
 63
     7
 74
     1
 91
        0
 64
     7
 65
   257
 75
     1
175
     1
 42
1.0
 92
        8
 66
     8
 43
1.0
 76
     1
 77
     6
 78
     2
 67
     7
 79
     5
170
     0
171
     0
290
     0
174
     0
 93
       13
 44
0.0
173
     0
291
     0
 45
0.0
1001
ACAD
1000
AcDbSavedByObjectVersion
1070
     0
  0
VISUALSTYLE
  5
37
102
{ACAD_REACTORS
330
2A
102
}
330
2A
100
AcDbVisualStyle
  2
Thicken
 70
    13
 71
     2
 72
     2
 73
     0
 90
        0
 40
-0.6
 41
-30.0
 62
     5
 63
     7
 74
     1
 91
        4
 64
     7
 65
   257
 75
     1
175
     1
 42
1.0
 92
       12
 66
     7
 43
1.0
 76
     1
 77
     6
 78
     2
 67
     7
 79
     5
170
     0
171
     0
290
     0
174
     0
 93
        1
 44
0.0
173
     0
291
     1
 45
0.0
1001
ACAD
1000
AcDbSavedByObjectVersion
1070
     0
  0
ENDSEC
  0
EOF
