G04 Layer_Physical_Order=1*
G04 Layer_Color=25308*
%FSLAX42Y42*%
%MOMM*%
G71*
G01*
G75*
%ADD10C,1.00*%
%ADD11O,1.78X2.29*%
%ADD12R,1.78X2.29*%
%ADD13C,1.78*%
G04:AMPARAMS|DCode=14|XSize=1.78mm|YSize=1.78mm|CornerRadius=0.44mm|HoleSize=0mm|Usage=FLASHONLY|Rotation=180.000|XOffset=0mm|YOffset=0mm|HoleType=Round|Shape=RoundedRectangle|*
%AMROUNDEDRECTD14*
21,1,1.78,0.89,0,0,180.0*
21,1,0.89,1.78,0,0,180.0*
1,1,0.89,-0.44,0.44*
1,1,0.89,0.44,0.44*
1,1,0.89,0.44,-0.44*
1,1,0.89,-0.44,-0.44*
%
%ADD14ROUNDEDRECTD14*%
%ADD15C,2.50*%
%ADD16R,2.50X2.50*%
%ADD17R,2.50X2.50*%
%ADD18R,1.52X2.03*%
G04:AMPARAMS|DCode=19|XSize=1.52mm|YSize=2.03mm|CornerRadius=0.38mm|HoleSize=0mm|Usage=FLASHONLY|Rotation=0.000|XOffset=0mm|YOffset=0mm|HoleType=Round|Shape=RoundedRectangle|*
%AMROUNDEDRECTD19*
21,1,1.52,1.27,0,0,0.0*
21,1,0.76,2.03,0,0,0.0*
1,1,0.76,0.38,-0.64*
1,1,0.76,-0.38,-0.64*
1,1,0.76,-0.38,0.64*
1,1,0.76,0.38,0.64*
%
%ADD19ROUNDEDRECTD19*%
G36*
X2668Y953D02*
Y576D01*
X3373D01*
X3386Y586D01*
X3415Y601D01*
X3447Y611D01*
X3480Y614D01*
X3513Y611D01*
X3545Y601D01*
X3574Y586D01*
X3590Y573D01*
X3603Y579D01*
Y954D01*
X2716D01*
X2682Y958D01*
X2678Y960D01*
X2668Y953D01*
D02*
G37*
G36*
X3443Y3522D02*
X3424Y3497D01*
X3400Y3478D01*
X3371Y3466D01*
X3340Y3462D01*
X3264D01*
X3233Y3466D01*
X3204Y3478D01*
X3180Y3497D01*
X3170D01*
X3146Y3478D01*
X3117Y3466D01*
X3086Y3462D01*
X3010D01*
X2979Y3466D01*
X2950Y3478D01*
X2926Y3497D01*
X2916D01*
X2892Y3478D01*
X2863Y3466D01*
X2832Y3462D01*
X2756D01*
X2725Y3466D01*
X2696Y3478D01*
X2672Y3497D01*
X2662D01*
X2638Y3478D01*
X2609Y3466D01*
X2578Y3462D01*
X2502D01*
X2471Y3466D01*
X2442Y3478D01*
X2418Y3497D01*
X2408D01*
X2384Y3478D01*
X2355Y3466D01*
X2324Y3462D01*
X2248D01*
X2217Y3466D01*
X2188Y3478D01*
X2176Y3488D01*
X2163Y3482D01*
Y1956D01*
X2159Y1922D01*
X2146Y1890D01*
X2125Y1863D01*
X2098Y1842D01*
X2066Y1829D01*
X2032Y1825D01*
X1871D01*
Y355D01*
X2427D01*
X2433Y366D01*
X2423Y379D01*
X2410Y411D01*
X2405Y445D01*
Y2955D01*
X2410Y2989D01*
X2423Y3021D01*
X2444Y3048D01*
X2444Y3048D01*
X2473Y3077D01*
X2500Y3098D01*
X2518Y3106D01*
X2531Y3111D01*
X2565Y3116D01*
X2565Y3116D01*
X3463D01*
Y3536D01*
X3450Y3539D01*
X3443Y3522D01*
D02*
G37*
G36*
X0Y8026D02*
Y7861D01*
X13Y7855D01*
X36Y7873D01*
X68Y7886D01*
X102Y7891D01*
X3708D01*
X3742Y7886D01*
X3774Y7873D01*
X3801Y7852D01*
X3822Y7825D01*
X3835Y7794D01*
X3840Y7760D01*
Y7629D01*
X4435D01*
X4435Y7629D01*
X4469Y7625D01*
X4500Y7612D01*
X4528Y7591D01*
X4563Y7555D01*
X4584Y7528D01*
X4592Y7510D01*
X4597Y7496D01*
X4602Y7463D01*
X4602Y7463D01*
Y6465D01*
X4612Y6453D01*
X4627Y6424D01*
X4637Y6392D01*
X4640Y6359D01*
X4637Y6326D01*
X4627Y6294D01*
X4612Y6264D01*
X4590Y6239D01*
X4565Y6218D01*
X4535Y6202D01*
X4504Y6192D01*
X4470Y6189D01*
X4437Y6192D01*
X4405Y6202D01*
X4376Y6218D01*
X4350Y6239D01*
X4329Y6264D01*
X4314Y6294D01*
X4307Y6315D01*
X4295Y6319D01*
X4282Y6309D01*
X4250Y6296D01*
X4216Y6291D01*
X3433D01*
Y5051D01*
X3443Y5038D01*
X3455Y5009D01*
X3459Y4978D01*
Y4943D01*
X3551Y4852D01*
X4173D01*
X4185Y4866D01*
X4216Y4892D01*
X4252Y4911D01*
X4291Y4922D01*
X4331Y4926D01*
X4371Y4922D01*
X4410Y4911D01*
X4445Y4892D01*
X4476Y4866D01*
X4502Y4835D01*
X4521Y4799D01*
X4533Y4761D01*
X4537Y4720D01*
X4533Y4680D01*
X4521Y4642D01*
X4502Y4606D01*
X4476Y4575D01*
X4445Y4549D01*
X4410Y4530D01*
X4371Y4518D01*
X4331Y4514D01*
X4291Y4518D01*
X4252Y4530D01*
X4216Y4549D01*
X4185Y4575D01*
X4173Y4589D01*
X3496D01*
X3496Y4589D01*
X3463Y4594D01*
X3449Y4599D01*
X3431Y4607D01*
X3404Y4628D01*
X3299Y4732D01*
X3264D01*
X3233Y4736D01*
X3204Y4748D01*
X3180Y4767D01*
X3161Y4792D01*
X3149Y4821D01*
X3145Y4851D01*
Y4978D01*
X3149Y5009D01*
X3161Y5038D01*
X3171Y5051D01*
Y6268D01*
X3158Y6276D01*
X3138Y6265D01*
X3107Y6256D01*
X3073Y6252D01*
X3040Y6256D01*
X3008Y6265D01*
X2979Y6281D01*
X2953Y6302D01*
X2932Y6328D01*
X2917Y6357D01*
X2907Y6389D01*
X2904Y6422D01*
X2907Y6455D01*
X2917Y6487D01*
X2932Y6516D01*
X2953Y6542D01*
X2979Y6563D01*
X3008Y6579D01*
X3040Y6589D01*
X3073Y6592D01*
X3107Y6589D01*
X3138Y6579D01*
X3168Y6563D01*
X3180Y6553D01*
X4085D01*
Y7057D01*
X4047D01*
Y7367D01*
X3864D01*
X3858Y7356D01*
X3865Y7342D01*
X3875Y7310D01*
X3878Y7277D01*
Y7226D01*
X3875Y7193D01*
X3865Y7161D01*
X3850Y7132D01*
X3828Y7106D01*
X3803Y7085D01*
X3773Y7070D01*
X3742Y7060D01*
X3708Y7057D01*
X3675Y7060D01*
X3643Y7070D01*
X3614Y7085D01*
X3588Y7106D01*
X3567Y7132D01*
X3552Y7161D01*
X3542Y7193D01*
X3539Y7226D01*
Y7277D01*
X3542Y7310D01*
X3552Y7342D01*
X3567Y7371D01*
X3577Y7384D01*
Y7629D01*
X233D01*
Y7472D01*
X245Y7468D01*
X252Y7480D01*
X277Y7512D01*
X309Y7537D01*
X344Y7556D01*
X383Y7568D01*
X423Y7572D01*
X463Y7568D01*
X502Y7556D01*
X538Y7537D01*
X569Y7512D01*
X594Y7480D01*
X613Y7445D01*
X625Y7406D01*
X629Y7366D01*
X625Y7326D01*
X613Y7287D01*
X594Y7252D01*
X569Y7220D01*
X554Y7208D01*
Y5579D01*
X2032D01*
X2066Y5575D01*
X2098Y5562D01*
X2125Y5541D01*
X2142Y5518D01*
X2155Y5523D01*
Y5770D01*
X923D01*
X889Y5775D01*
X858Y5788D01*
X830Y5809D01*
X810Y5836D01*
X796Y5868D01*
X792Y5902D01*
Y7161D01*
X718D01*
Y7571D01*
X1128D01*
Y7161D01*
X1054D01*
Y6033D01*
X2286D01*
X2320Y6028D01*
X2335Y6022D01*
X2345Y6029D01*
Y6244D01*
X1528D01*
X1494Y6249D01*
X1462Y6262D01*
X1435Y6283D01*
X1414Y6310D01*
X1401Y6341D01*
X1397Y6375D01*
Y7208D01*
X1382Y7220D01*
X1357Y7252D01*
X1338Y7287D01*
X1326Y7326D01*
X1322Y7366D01*
X1326Y7406D01*
X1338Y7445D01*
X1357Y7480D01*
X1382Y7512D01*
X1414Y7537D01*
X1449Y7556D01*
X1488Y7568D01*
X1528Y7572D01*
X1568Y7568D01*
X1607Y7556D01*
X1642Y7537D01*
X1674Y7512D01*
X1699Y7480D01*
X1718Y7445D01*
X1730Y7406D01*
X1734Y7366D01*
X1730Y7326D01*
X1718Y7287D01*
X1699Y7252D01*
X1674Y7220D01*
X1659Y7208D01*
Y6507D01*
X2476D01*
X2510Y6502D01*
X2541Y6490D01*
X2551Y6493D01*
X2553Y6495D01*
Y6655D01*
X2048Y7161D01*
X1823D01*
Y7571D01*
X2233D01*
Y7346D01*
X2777Y6802D01*
X2798Y6775D01*
X2807Y6753D01*
X2811Y6743D01*
X2816Y6710D01*
X2816Y6710D01*
Y6161D01*
X2828Y6159D01*
X2860Y6146D01*
X2887Y6125D01*
X2908Y6098D01*
X2921Y6066D01*
X2925Y6033D01*
Y5051D01*
X2935Y5038D01*
X2947Y5009D01*
X2951Y4978D01*
Y4851D01*
X2947Y4821D01*
X2935Y4792D01*
X2916Y4767D01*
X2892Y4748D01*
X2863Y4736D01*
X2832Y4732D01*
X2756D01*
X2725Y4736D01*
X2696Y4748D01*
X2672Y4767D01*
X2662D01*
X2638Y4748D01*
X2609Y4736D01*
X2578Y4732D01*
X2502D01*
X2471Y4736D01*
X2442Y4748D01*
X2418Y4767D01*
X2408D01*
X2384Y4748D01*
X2355Y4736D01*
X2324Y4732D01*
X2248D01*
X2217Y4736D01*
X2188Y4748D01*
X2164Y4767D01*
X2154D01*
X2130Y4748D01*
X2101Y4736D01*
X2070Y4732D01*
X1994D01*
X1963Y4736D01*
X1934Y4748D01*
X1910Y4767D01*
X1900D01*
X1876Y4748D01*
X1847Y4736D01*
X1816Y4732D01*
X1740D01*
X1709Y4736D01*
X1680Y4748D01*
X1656Y4767D01*
X1637Y4792D01*
X1625Y4821D01*
X1621Y4851D01*
Y4978D01*
X1625Y5009D01*
X1637Y5038D01*
X1656Y5063D01*
X1680Y5082D01*
X1709Y5093D01*
X1740Y5098D01*
X1816D01*
X1847Y5093D01*
X1876Y5082D01*
X1888Y5072D01*
X1901Y5078D01*
Y5317D01*
X423D01*
X389Y5322D01*
X358Y5335D01*
X330Y5356D01*
X310Y5383D01*
X296Y5414D01*
X292Y5448D01*
Y7208D01*
X277Y7220D01*
X252Y7252D01*
X245Y7264D01*
X233Y7260D01*
Y2087D01*
X1633D01*
X1646Y2097D01*
X1675Y2113D01*
X1707Y2122D01*
X1740Y2126D01*
X1773Y2122D01*
X1805Y2113D01*
X1834Y2097D01*
X1846Y2087D01*
X1901D01*
Y3337D01*
X1888Y3341D01*
X1871Y3319D01*
X1844Y3298D01*
X1812Y3285D01*
X1778Y3280D01*
X1311D01*
X1277Y3285D01*
X1245Y3298D01*
X1218Y3319D01*
X1197Y3346D01*
X1184Y3377D01*
X1180Y3411D01*
Y4026D01*
X1180Y4026D01*
X1184Y4060D01*
X1197Y4091D01*
X1208Y4105D01*
X1218Y4118D01*
X1218Y4118D01*
X1251Y4151D01*
X1278Y4172D01*
X1297Y4180D01*
X1310Y4185D01*
X1344Y4190D01*
X1344Y4190D01*
X3614D01*
X3614Y4190D01*
X3774D01*
X3808Y4185D01*
X3840Y4172D01*
X3867Y4151D01*
X3888Y4124D01*
X3901Y4093D01*
X3905Y4059D01*
Y2834D01*
X3905Y2834D01*
X3901Y2800D01*
X3895Y2787D01*
X3888Y2769D01*
X3867Y2742D01*
X3786Y2661D01*
X3759Y2640D01*
X3727Y2627D01*
X3693Y2623D01*
X3693Y2623D01*
X2848D01*
Y2109D01*
X2860Y2101D01*
X2881Y2113D01*
X2913Y2122D01*
X2946Y2126D01*
X2980Y2122D01*
X3011Y2113D01*
X3041Y2097D01*
X3053Y2087D01*
X3645D01*
X3654Y2086D01*
X3656Y2087D01*
X3688Y2097D01*
X3721Y2100D01*
X3754Y2097D01*
X3786Y2087D01*
X3815Y2072D01*
X3841Y2050D01*
X3862Y2025D01*
X3878Y1995D01*
X3888Y1964D01*
X3891Y1930D01*
X3888Y1897D01*
X3878Y1865D01*
X3862Y1836D01*
X3841Y1810D01*
X3815Y1789D01*
X3786Y1774D01*
X3754Y1764D01*
X3721Y1761D01*
X3688Y1764D01*
X3656Y1774D01*
X3627Y1789D01*
X3607Y1805D01*
X3579Y1817D01*
X3569Y1825D01*
X3078D01*
Y1630D01*
X3988D01*
X4022Y1625D01*
X4053Y1612D01*
X4081Y1591D01*
X4101Y1564D01*
X4114Y1533D01*
X4119Y1499D01*
Y579D01*
X4132Y573D01*
X4148Y586D01*
X4177Y601D01*
X4209Y611D01*
X4242Y614D01*
X4275Y611D01*
X4307Y601D01*
X4336Y586D01*
X4362Y565D01*
X4383Y539D01*
X4399Y509D01*
X4408Y478D01*
X4412Y445D01*
X4408Y411D01*
X4399Y380D01*
X4383Y350D01*
X4373Y338D01*
Y312D01*
X4373Y312D01*
X4368Y278D01*
X4363Y265D01*
X4355Y247D01*
X4335Y220D01*
X4246Y131D01*
X4246Y131D01*
X4232Y120D01*
X4218Y110D01*
X4187Y97D01*
X4153Y92D01*
X4153Y92D01*
X1740D01*
X1706Y97D01*
X1674Y110D01*
X1647Y131D01*
X1626Y158D01*
X1613Y190D01*
X1609Y224D01*
Y1825D01*
X102D01*
X68Y1829D01*
X36Y1842D01*
X13Y1860D01*
X0Y1855D01*
Y-0D01*
X4966D01*
X4966Y0D01*
Y8026D01*
X13D01*
X0Y8026D01*
D02*
G37*
G36*
X2848Y1395D02*
Y1216D01*
X3734D01*
X3768Y1212D01*
X3799Y1198D01*
X3827Y1178D01*
X3844Y1155D01*
X3857Y1159D01*
Y1367D01*
X2946D01*
X2912Y1372D01*
X2881Y1385D01*
X2860Y1401D01*
X2848Y1395D01*
D02*
G37*
D10*
X102Y1956D02*
Y7760D01*
X1740Y1956D02*
X102D01*
X1528Y6375D02*
Y7366D01*
X2476Y6375D02*
X1528D01*
X2476Y5933D02*
Y6375D01*
X2480Y5929D02*
X2476Y5933D01*
X2540Y5929D02*
X2480D01*
X2684Y6040D02*
Y6710D01*
X2692Y6033D02*
X2684Y6040D01*
X2794Y6033D02*
X2692D01*
X2794Y4915D02*
Y6033D01*
X3708Y7252D02*
Y7760D01*
X102D01*
X4216Y6422D02*
Y7252D01*
Y6422D02*
X3073D01*
X3962Y6678D02*
Y7252D01*
Y6678D02*
X2867D01*
X2684Y6710D02*
X2028Y7366D01*
X3302Y6422D02*
X3073D01*
X3302Y4915D02*
Y6422D01*
X2286Y5902D02*
X923D01*
X2286Y4915D02*
Y5902D01*
X923D02*
Y7366D01*
X423Y5448D02*
Y7366D01*
X2032Y5448D02*
X423D01*
X2032Y4915D02*
Y5448D01*
X3073Y5922D02*
X3048Y5897D01*
Y4915D02*
Y5897D01*
Y4681D02*
Y4915D01*
Y4681D02*
X1605D01*
X1524Y4239D02*
Y4763D01*
X3794Y4239D02*
X1524D01*
X1778Y3411D02*
Y3645D01*
Y3411D02*
X1311D01*
Y4026D01*
X4331Y4220D02*
X3867D01*
X3849Y4239D01*
X3794D01*
X3794Y4239D01*
X3774Y4059D02*
X3614D01*
X3774Y2834D02*
Y4059D01*
Y2834D02*
X3693Y2754D01*
X2716D01*
Y1085D02*
Y2754D01*
X3594Y2985D02*
Y3879D01*
Y2985D02*
X2565D01*
X2536Y2955D01*
X3614Y4059D02*
X3614Y4059D01*
X3594Y3879D02*
X1593D01*
X2536Y445D02*
Y2955D01*
X2946Y1499D02*
Y1956D01*
X3988Y1499D02*
X2946D01*
X3645Y1956D02*
X2946D01*
X3614Y4059D02*
X1344D01*
X3988Y445D02*
Y1499D01*
X3734Y1085D02*
X2716D01*
X3734Y445D02*
Y1085D01*
X3480Y445D02*
X2536D01*
X1740Y224D02*
Y1956D01*
X4153Y224D02*
X1740D01*
X2032Y1956D02*
Y3645D01*
Y1956D02*
X1740D01*
X4331Y4128D02*
X4305Y4102D01*
X4331Y4128D02*
Y4220D01*
X4712Y5859D02*
X4470D01*
X4712Y4220D02*
Y5859D01*
Y4220D02*
X4331D01*
X4435Y7498D02*
X3708D01*
X1524Y4763D02*
Y4915D01*
X1605Y4681D02*
X1524Y4763D01*
Y3645D02*
Y3810D01*
X1593Y3879D02*
X1524Y3810D01*
X4331Y4720D02*
X3496D01*
X3302Y4915D01*
X3645Y1930D02*
Y1956D01*
X1344Y4059D02*
X1311Y4026D01*
X2540Y4915D02*
Y5929D01*
X4242Y312D02*
Y445D01*
Y312D02*
X4153Y224D01*
X4470Y6359D02*
Y7463D01*
X4435Y7498D01*
X2286Y3645D02*
X2032D01*
D11*
X3708Y7252D02*
D03*
X3962D02*
D03*
D12*
X4216D02*
D03*
D13*
X1740Y1956D02*
D03*
X2946D02*
D03*
X3721Y1930D02*
D03*
X4496Y445D02*
D03*
X3988D02*
D03*
X3734D02*
D03*
X3480D02*
D03*
X4242D02*
D03*
X4470Y5859D02*
D03*
Y6359D02*
D03*
X3073Y5922D02*
D03*
Y6422D02*
D03*
D14*
X3975Y1930D02*
D03*
D15*
X4331Y4720D02*
D03*
X1528Y7366D02*
D03*
X423D02*
D03*
D16*
X4331Y4220D02*
D03*
D17*
X2028Y7366D02*
D03*
X923D02*
D03*
D18*
X1524Y4915D02*
D03*
D19*
X1778D02*
D03*
X2032D02*
D03*
X2286D02*
D03*
X3302D02*
D03*
X3048D02*
D03*
X2794D02*
D03*
X2540D02*
D03*
Y3645D02*
D03*
X2794D02*
D03*
X3048D02*
D03*
X3302D02*
D03*
X2286D02*
D03*
X2032D02*
D03*
X1778D02*
D03*
X1524D02*
D03*
M02*
