M48
;Layer_Color=6321
;FILE_FORMAT=4:2
METRIC,LZ
;TYPE=PLATED
T1F00S00C0.91
T2F00S00C1.00
T3F00S00C1.02
T4F00S00C1.10
T5F00S00C1.30
%
T01
X001664Y003645
X001918
X002172
X002426
X00268
X002934
X003188
X003442
Y004915
X003188
X002934
X00268
X002426
X002172
X001918
X001664
T02
X000991Y00193
X001245
X002019Y001956
X003226
X001892Y005922
X000495Y005859
Y006359
X001892Y006422
T03
X00047Y000445
X000724
X000978
X001232
X001486
T04
X000749Y007252
X001003
X001257
T05
X000635Y00422
Y00472
X002938Y007366
X003438
X004043
X004543
M30
