<?xml version="1.0" encoding="UTF-8" standalone="no"?>
<!-- Generator: Adobe Illustrator 16.0.0, SVG Export Plug-In . SVG Version: 6.00 Build 0)  -->

<svg
   xmlns:dc="http://purl.org/dc/elements/1.1/"
   xmlns:cc="http://creativecommons.org/ns#"
   xmlns:rdf="http://www.w3.org/1999/02/22-rdf-syntax-ns#"
   xmlns:svg="http://www.w3.org/2000/svg"
   xmlns="http://www.w3.org/2000/svg"
   xmlns:sodipodi="http://sodipodi.sourceforge.net/DTD/sodipodi-0.dtd"
   xmlns:inkscape="http://www.inkscape.org/namespaces/inkscape"
   version="1.1"
   id="Capa_1"
   x="0px"
   y="0px"
   width="250"
   height="250"
   viewBox="0 0 250 250"
   enable-background="new 0 0 113.386 50.732"
   xml:space="preserve"
   inkscape:version="0.91 r13725"
   sodipodi:docname="actor-reactor-logo.svg"><metadata
     id="metadata109"><rdf:RDF><cc:Work
         rdf:about=""><dc:format>image/svg+xml</dc:format><dc:type
           rdf:resource="http://purl.org/dc/dcmitype/StillImage" /><dc:title></dc:title></cc:Work></rdf:RDF></metadata><defs
     id="defs107" /><sodipodi:namedview
     pagecolor="#ffffff"
     bordercolor="#666666"
     borderopacity="1"
     objecttolerance="10"
     gridtolerance="10"
     guidetolerance="10"
     inkscape:pageopacity="0"
     inkscape:pageshadow="2"
     inkscape:window-width="1440"
     inkscape:window-height="851"
     id="namedview105"
     showgrid="false"
     inkscape:zoom="1.0157612"
     inkscape:cx="33.422736"
     inkscape:cy="39.470617"
     inkscape:window-x="0"
     inkscape:window-y="25"
     inkscape:window-maximized="1"
     inkscape:current-layer="Capa_1"
     showguides="true"
     inkscape:guide-bbox="true" /><g
     id="g3"
     transform="matrix(2.4080581,0,0,2.4080581,-9.6247265,57.176059)"><path
       d="m 96.644,17.962 c -1.487,0 -2.901,0.313 -4.186,0.871 l -29.221,9.185 0,-3.714 -3.766,0 0,-5.634 5.736,0 c 3.118,0 5.654,-2.537 5.654,-5.655 0,-3.118 -2.535,-5.655 -5.653,-5.655 -0.129,0 -0.257,0.006 -0.384,0.016 -1.349,-1.938 -3.53,-3.085 -5.896,-3.085 -3.688,0 -6.716,2.743 -7.133,6.345 -0.163,-0.023 -0.32,-0.034 -0.477,-0.034 -2.225,0 -4.034,1.81 -4.034,4.034 0,2.224 1.81,4.034 4.034,4.034 l 7.152,0 0,5.633 -3.64,0 0,3.84 -29.558,-13.511 -0.035,0.077 c -1.655,-0.641 -3.446,-1.007 -5.325,-1.007 -8.163,0 -14.804,6.642 -14.804,14.805 0,8.163 6.641,14.805 14.804,14.805 1.839,0 3.594,-0.353 5.22,-0.968 l 0.017,0.037 0.472,-0.217 c 0.082,-0.034 0.161,-0.075 0.242,-0.111 l 28.967,-13.307 0,3.964 8.407,0 0,-3.627 29.232,9.128 0.007,-0.022 c 1.279,0.553 2.688,0.862 4.167,0.862 5.814,0 10.545,-4.73 10.545,-10.544 0,-5.815 -4.73,-10.545 -10.544,-10.545 z M 51.319,17.67 c -1.673,0 -3.034,-1.361 -3.034,-3.034 0,-1.673 1.361,-3.034 3.034,-3.034 0.242,0 0.496,0.039 0.799,0.122 l 0.61,0.168 0.022,-0.632 c 0.119,-3.347 2.833,-5.969 6.178,-5.969 2.125,0 4.078,1.077 5.224,2.88 L 64.321,8.437 64.634,8.4 c 0.188,-0.022 0.38,-0.04 0.574,-0.04 2.566,0 4.654,2.088 4.654,4.655 0,2.567 -2.088,4.655 -4.654,4.655 l -5.736,0 0,-5.608 2.858,3.075 0.731,-0.682 -4.089,-4.398 -4.089,4.398 0.732,0.682 2.856,-3.073 0,5.606 -7.152,0 z M 6.108,28.507 c 0,-7.612 6.192,-13.805 13.804,-13.805 7.612,0 13.805,6.193 13.805,13.805 0,5.633 -3.395,10.48 -8.243,12.625 l -0.242,0.11 c -1.638,0.688 -3.435,1.069 -5.32,1.069 C 12.301,42.312 6.108,36.119 6.108,28.507 Z m 24.41,10.307 c 2.594,-2.668 4.2,-6.302 4.2,-10.308 0,-4.064 -1.648,-7.75 -4.309,-10.428 L 53.088,28.445 30.518,38.814 Z M 64.882,28.548 89.436,20.831 c -2.049,1.925 -3.337,4.65 -3.337,7.676 0,3.053 1.313,5.799 3.394,7.726 L 64.882,28.548 Z m 31.762,9.503 c -5.263,0 -9.545,-4.281 -9.545,-9.544 0,-3.902 2.356,-7.26 5.719,-8.738 l 0.037,-0.012 -0.002,-0.005 c 1.163,-0.506 2.444,-0.79 3.791,-0.79 5.263,0 9.545,4.282 9.545,9.545 -10e-4,5.263 -4.283,9.544 -9.545,9.544 z"
       id="path5"
       inkscape:connector-curvature="0"
       style="fill:#020203" /><path
       d="m 103.765,26.863 -1.375,1.352 c -0.027,-3.104 -2.559,-5.62 -5.668,-5.62 -3.127,0 -5.671,2.544 -5.671,5.671 l 0,0.5 1,0 0,-0.5 c 0,-2.576 2.096,-4.671 4.671,-4.671 2.575,0 4.671,2.096 4.671,4.671 l 0,0.022 -1.434,-1.457 -0.713,0.701 2.588,2.631 2.632,-2.588 -0.701,-0.712 z"
       id="path7"
       inkscape:connector-curvature="0"
       style="fill:#020203" /><path
       d="m 9.808,26.355 c 0,0.492 -0.398,0.892 -0.89,0.892 -0.492,0 -0.891,-0.399 -0.891,-0.892 0,-0.491 0.399,-0.89 0.891,-0.89 0.492,0.001 0.89,0.399 0.89,0.89"
       id="path9"
       inkscape:connector-curvature="0"
       style="fill:#020203" /><path
       d="m 11.511,22.213 c 0,0.492 -0.399,0.891 -0.891,0.891 -0.491,0 -0.89,-0.399 -0.89,-0.891 0,-0.492 0.399,-0.891 0.89,-0.891 0.492,0 0.891,0.399 0.891,0.891"
       id="path11"
       inkscape:connector-curvature="0"
       style="fill:#020203" /><path
       d="m 14.587,19.121 c 0,0.492 -0.399,0.89 -0.891,0.89 -0.491,0 -0.89,-0.398 -0.89,-0.89 0,-0.492 0.399,-0.891 0.89,-0.891 0.492,-0.001 0.891,0.398 0.891,0.891"
       id="path13"
       inkscape:connector-curvature="0"
       style="fill:#020203" /><path
       d="m 18.72,17.395 c 0,0.492 -0.398,0.891 -0.891,0.891 -0.491,0 -0.89,-0.399 -0.89,-0.891 0,-0.492 0.399,-0.891 0.89,-0.891 0.493,0 0.891,0.399 0.891,0.891"
       id="path15"
       inkscape:connector-curvature="0"
       style="fill:#020203" /><path
       d="m 23.083,17.383 c 0,0.492 -0.398,0.891 -0.89,0.891 -0.492,0 -0.891,-0.399 -0.891,-0.891 0,-0.492 0.399,-0.891 0.891,-0.891 0.492,0 0.89,0.399 0.89,0.891"
       id="path17"
       inkscape:connector-curvature="0"
       style="fill:#020203" /><path
       d="m 27.226,19.086 c 0,0.492 -0.399,0.891 -0.891,0.891 -0.491,0 -0.89,-0.399 -0.89,-0.891 0,-0.492 0.399,-0.891 0.89,-0.891 0.492,0 0.891,0.399 0.891,0.891"
       id="path19"
       inkscape:connector-curvature="0"
       style="fill:#020203" /><path
       d="m 30.318,22.162 c 0,0.492 -0.398,0.891 -0.891,0.891 -0.491,0 -0.89,-0.399 -0.89,-0.891 0,-0.492 0.399,-0.89 0.89,-0.89 0.493,0 0.891,0.398 0.891,0.89"
       id="path21"
       inkscape:connector-curvature="0"
       style="fill:#020203" /><path
       d="m 9.55,30.762 c 0,0.492 -0.398,0.891 -0.89,0.891 -0.492,0 -0.891,-0.398 -0.891,-0.891 0,-0.493 0.399,-0.892 0.891,-0.892 0.492,0 0.89,0.4 0.89,0.892"
       id="path23"
       inkscape:connector-curvature="0"
       style="fill:#020203" /><path
       d="m 11.545,34.852 c 0,0.492 -0.398,0.892 -0.891,0.892 -0.491,0 -0.89,-0.399 -0.89,-0.892 0,-0.491 0.399,-0.891 0.89,-0.891 0.493,0 0.891,0.399 0.891,0.891"
       id="path25"
       inkscape:connector-curvature="0"
       style="fill:#020203" /><path
       d="m 14.638,37.928 c 0,0.492 -0.399,0.892 -0.891,0.892 -0.491,0 -0.89,-0.399 -0.89,-0.892 0,-0.493 0.399,-0.891 0.89,-0.891 0.492,0 0.891,0.399 0.891,0.891"
       id="path27"
       inkscape:connector-curvature="0"
       style="fill:#020203" /><path
       d="m 18.781,39.631 c 0,0.492 -0.399,0.891 -0.891,0.891 -0.491,0 -0.89,-0.398 -0.89,-0.891 0,-0.493 0.399,-0.891 0.89,-0.891 0.492,0 0.891,0.399 0.891,0.891"
       id="path29"
       inkscape:connector-curvature="0"
       style="fill:#020203" /><path
       d="m 32.044,26.296 c 0,0.492 -0.399,0.89 -0.891,0.89 -0.491,0 -0.89,-0.397 -0.89,-0.89 0,-0.493 0.399,-0.891 0.89,-0.891 0.492,0 0.891,0.399 0.891,0.891"
       id="path31"
       inkscape:connector-curvature="0"
       style="fill:#020203" /><path
       d="m 32.056,30.658 c 0,0.492 -0.399,0.891 -0.891,0.891 -0.491,0 -0.89,-0.398 -0.89,-0.891 0,-0.493 0.399,-0.892 0.89,-0.892 0.492,0.001 0.891,0.4 0.891,0.892"
       id="path33"
       inkscape:connector-curvature="0"
       style="fill:#020203" /><path
       d="m 30.353,34.801 c 0,0.492 -0.399,0.891 -0.891,0.891 -0.491,0 -0.89,-0.398 -0.89,-0.891 0,-0.493 0.399,-0.892 0.89,-0.892 0.492,0 0.891,0.4 0.891,0.892"
       id="path35"
       inkscape:connector-curvature="0"
       style="fill:#020203" /><path
       d="m 27.276,37.894 c 0,0.492 -0.398,0.891 -0.89,0.891 -0.492,0 -0.891,-0.398 -0.891,-0.891 0,-0.491 0.399,-0.891 0.891,-0.891 0.492,0 0.89,0.399 0.89,0.891"
       id="path37"
       inkscape:connector-curvature="0"
       style="fill:#020203" /><path
       d="m 22.779,38.9 c 0.396,0.291 0.483,0.849 0.192,1.245 -0.29,0.396 -0.848,0.483 -1.244,0.192 -0.397,-0.291 -0.483,-0.849 -0.193,-1.245 0.291,-0.397 0.848,-0.483 1.245,-0.192"
       id="path39"
       inkscape:connector-curvature="0"
       style="fill:#020203" /><path
       d="m 13.789,27.203 c 0,0.298 -0.242,0.54 -0.54,0.54 -0.297,0 -0.539,-0.242 -0.539,-0.54 0,-0.298 0.242,-0.54 0.539,-0.54 0.297,0 0.54,0.242 0.54,0.54"
       id="path41"
       inkscape:connector-curvature="0"
       style="fill:#020203" /><path
       d="m 14.821,24.693 c 0,0.298 -0.242,0.54 -0.54,0.54 -0.298,0 -0.54,-0.242 -0.54,-0.54 0,-0.298 0.242,-0.54 0.54,-0.54 0.298,0 0.54,0.242 0.54,0.54"
       id="path43"
       inkscape:connector-curvature="0"
       style="fill:#020203" /><path
       d="m 16.685,22.818 c 0,0.298 -0.242,0.54 -0.54,0.54 -0.298,0 -0.54,-0.242 -0.54,-0.54 0,-0.298 0.242,-0.54 0.54,-0.54 0.298,0 0.54,0.242 0.54,0.54"
       id="path45"
       inkscape:connector-curvature="0"
       style="fill:#020203" /><path
       d="m 19.19,21.773 c 0,0.298 -0.242,0.54 -0.54,0.54 -0.298,0 -0.539,-0.242 -0.539,-0.54 0,-0.298 0.241,-0.54 0.539,-0.54 0.298,0 0.54,0.242 0.54,0.54"
       id="path47"
       inkscape:connector-curvature="0"
       style="fill:#020203" /><path
       d="m 21.834,21.766 c 0,0.298 -0.242,0.54 -0.54,0.54 -0.298,0 -0.54,-0.242 -0.54,-0.54 0,-0.298 0.242,-0.54 0.54,-0.54 0.298,0 0.54,0.241 0.54,0.54"
       id="path49"
       inkscape:connector-curvature="0"
       style="fill:#020203" /><path
       d="m 24.344,22.798 c 0,0.298 -0.241,0.54 -0.54,0.54 -0.297,0 -0.539,-0.242 -0.539,-0.54 0,-0.298 0.242,-0.54 0.539,-0.54 0.3,0 0.54,0.242 0.54,0.54"
       id="path51"
       inkscape:connector-curvature="0"
       style="fill:#020203" /><path
       d="m 26.219,24.662 c 0,0.298 -0.242,0.54 -0.54,0.54 -0.297,0 -0.539,-0.242 -0.539,-0.54 0,-0.298 0.242,-0.54 0.539,-0.54 0.298,0 0.54,0.242 0.54,0.54"
       id="path53"
       inkscape:connector-curvature="0"
       style="fill:#020203" /><path
       d="m 13.633,29.873 c 0,0.298 -0.242,0.54 -0.54,0.54 -0.298,0 -0.54,-0.242 -0.54,-0.54 0,-0.298 0.242,-0.54 0.54,-0.54 0.298,0 0.54,0.242 0.54,0.54"
       id="path55"
       inkscape:connector-curvature="0"
       style="fill:#020203" /><path
       d="m 14.841,32.353 c 0,0.298 -0.242,0.54 -0.54,0.54 -0.297,0 -0.539,-0.242 -0.539,-0.54 0,-0.298 0.242,-0.54 0.539,-0.54 0.299,0 0.54,0.242 0.54,0.54"
       id="path57"
       inkscape:connector-curvature="0"
       style="fill:#020203" /><path
       d="m 16.716,34.217 c 0,0.298 -0.242,0.54 -0.54,0.54 -0.297,0 -0.539,-0.242 -0.539,-0.54 0,-0.298 0.242,-0.54 0.539,-0.54 0.298,0 0.54,0.242 0.54,0.54"
       id="path59"
       inkscape:connector-curvature="0"
       style="fill:#020203" /><path
       d="m 19.227,35.248 c 0,0.298 -0.242,0.54 -0.54,0.54 -0.298,0 -0.539,-0.242 -0.539,-0.54 0,-0.298 0.241,-0.54 0.539,-0.54 0.298,0 0.54,0.242 0.54,0.54"
       id="path61"
       inkscape:connector-curvature="0"
       style="fill:#020203" /><path
       d="m 27.265,27.167 c 0,0.298 -0.242,0.54 -0.54,0.54 -0.298,0 -0.54,-0.242 -0.54,-0.54 0,-0.298 0.242,-0.54 0.54,-0.54 0.298,0 0.54,0.242 0.54,0.54"
       id="path63"
       inkscape:connector-curvature="0"
       style="fill:#020203" /><path
       d="m 27.271,29.811 c 0,0.298 -0.241,0.54 -0.54,0.54 -0.297,0 -0.539,-0.242 -0.539,-0.54 0,-0.298 0.242,-0.54 0.539,-0.54 0.299,0 0.54,0.242 0.54,0.54"
       id="path65"
       inkscape:connector-curvature="0"
       style="fill:#020203" /><path
       d="m 26.24,32.321 c 0,0.298 -0.242,0.54 -0.54,0.54 -0.298,0 -0.54,-0.242 -0.54,-0.54 0,-0.298 0.242,-0.54 0.54,-0.54 0.298,0 0.54,0.242 0.54,0.54"
       id="path67"
       inkscape:connector-curvature="0"
       style="fill:#020203" /><path
       d="m 24.375,34.195 c 0,0.298 -0.242,0.54 -0.54,0.54 -0.298,0 -0.54,-0.242 -0.54,-0.54 0,-0.298 0.242,-0.54 0.54,-0.54 0.298,0 0.54,0.242 0.54,0.54"
       id="path69"
       inkscape:connector-curvature="0"
       style="fill:#020203" /><path
       d="m 21.649,34.806 c 0.241,0.177 0.293,0.515 0.117,0.754 -0.177,0.241 -0.514,0.293 -0.755,0.117 -0.24,-0.176 -0.292,-0.514 -0.116,-0.755 0.176,-0.24 0.515,-0.292 0.754,-0.116"
       id="path71"
       inkscape:connector-curvature="0"
       style="fill:#020203" /><path
       d="m 11.781,28.424 c 0.075,0.375 -0.168,0.74 -0.544,0.814 -0.375,0.075 -0.74,-0.169 -0.814,-0.544 -0.075,-0.375 0.168,-0.739 0.543,-0.813 0.376,-0.075 0.74,0.168 0.815,0.543"
       id="path73"
       inkscape:connector-curvature="0"
       style="fill:#020203" /><path
       d="m 12.449,25.005 c 0.075,0.375 -0.168,0.74 -0.543,0.814 -0.375,0.076 -0.74,-0.168 -0.815,-0.543 -0.075,-0.375 0.169,-0.74 0.544,-0.814 0.375,-0.076 0.739,0.168 0.814,0.543"
       id="path75"
       inkscape:connector-curvature="0"
       style="fill:#020203" /><path
       d="m 14.324,22.178 c 0.075,0.375 -0.168,0.74 -0.543,0.815 -0.375,0.075 -0.74,-0.169 -0.815,-0.544 -0.075,-0.375 0.169,-0.74 0.544,-0.814 0.375,-0.075 0.74,0.168 0.814,0.543"
       id="path77"
       inkscape:connector-curvature="0"
       style="fill:#020203" /><path
       d="m 17.214,20.233 c 0.075,0.375 -0.169,0.74 -0.544,0.815 -0.375,0.075 -0.74,-0.169 -0.814,-0.544 -0.076,-0.375 0.168,-0.74 0.543,-0.814 0.375,-0.075 0.74,0.168 0.815,0.543"
       id="path79"
       inkscape:connector-curvature="0"
       style="fill:#020203" /><path
       d="m 20.539,19.561 c 0.075,0.375 -0.168,0.74 -0.543,0.815 -0.375,0.075 -0.74,-0.169 -0.815,-0.544 -0.075,-0.375 0.169,-0.74 0.544,-0.814 0.375,-0.077 0.739,0.168 0.814,0.543"
       id="path81"
       inkscape:connector-curvature="0"
       style="fill:#020203" /><path
       d="m 23.958,20.229 c 0.075,0.375 -0.168,0.74 -0.544,0.814 -0.375,0.075 -0.74,-0.168 -0.814,-0.543 -0.075,-0.375 0.168,-0.74 0.543,-0.815 0.376,-0.075 0.74,0.169 0.815,0.544"
       id="path83"
       inkscape:connector-curvature="0"
       style="fill:#020203" /><path
       d="m 26.785,22.104 c 0.075,0.375 -0.169,0.74 -0.544,0.815 -0.375,0.075 -0.74,-0.169 -0.814,-0.544 -0.075,-0.375 0.168,-0.74 0.543,-0.814 0.375,-0.075 0.74,0.168 0.815,0.543"
       id="path85"
       inkscape:connector-curvature="0"
       style="fill:#020203" /><path
       d="m 12.255,31.823 c 0.075,0.375 -0.168,0.74 -0.543,0.813 -0.376,0.075 -0.741,-0.168 -0.815,-0.543 -0.075,-0.375 0.168,-0.739 0.544,-0.814 0.375,-0.075 0.739,0.169 0.814,0.544"
       id="path87"
       inkscape:connector-curvature="0"
       style="fill:#020203" /><path
       d="m 14.398,34.639 c 0.075,0.375 -0.168,0.74 -0.543,0.814 -0.376,0.075 -0.741,-0.168 -0.815,-0.543 -0.075,-0.375 0.168,-0.74 0.543,-0.815 0.376,-0.074 0.741,0.169 0.815,0.544"
       id="path89"
       inkscape:connector-curvature="0"
       style="fill:#020203" /><path
       d="m 17.226,36.515 c 0.075,0.375 -0.168,0.74 -0.544,0.813 -0.375,0.075 -0.74,-0.168 -0.814,-0.543 -0.075,-0.375 0.168,-0.739 0.543,-0.814 0.375,-0.075 0.739,0.169 0.815,0.544"
       id="path91"
       inkscape:connector-curvature="0"
       style="fill:#020203" /><path
       d="m 20.644,37.183 c 0.075,0.375 -0.168,0.74 -0.543,0.814 -0.375,0.075 -0.74,-0.169 -0.815,-0.544 -0.075,-0.375 0.168,-0.739 0.544,-0.813 0.375,-0.077 0.739,0.168 0.814,0.543"
       id="path93"
       inkscape:connector-curvature="0"
       style="fill:#020203" /><path
       d="m 28.73,24.994 c 0.075,0.375 -0.168,0.74 -0.544,0.813 -0.375,0.076 -0.74,-0.167 -0.814,-0.542 -0.075,-0.375 0.168,-0.74 0.543,-0.815 0.375,-0.075 0.74,0.169 0.815,0.544"
       id="path95"
       inkscape:connector-curvature="0"
       style="fill:#020203" /><path
       d="m 29.403,28.319 c 0.075,0.375 -0.168,0.74 -0.544,0.813 -0.375,0.075 -0.74,-0.168 -0.814,-0.543 -0.075,-0.375 0.168,-0.739 0.543,-0.814 0.376,-0.075 0.74,0.169 0.815,0.544"
       id="path97"
       inkscape:connector-curvature="0"
       style="fill:#020203" /><path
       d="m 28.734,31.737 c 0.075,0.375 -0.168,0.74 -0.543,0.815 -0.375,0.075 -0.74,-0.169 -0.815,-0.544 -0.075,-0.375 0.169,-0.74 0.544,-0.814 0.375,-0.076 0.739,0.168 0.814,0.543"
       id="path99"
       inkscape:connector-curvature="0"
       style="fill:#020203" /><path
       d="m 26.859,34.564 c 0.075,0.375 -0.168,0.74 -0.543,0.814 -0.375,0.076 -0.74,-0.168 -0.815,-0.543 -0.075,-0.375 0.169,-0.74 0.544,-0.814 0.375,-0.075 0.739,0.168 0.814,0.543"
       id="path101"
       inkscape:connector-curvature="0"
       style="fill:#020203" /><path
       d="m 23.582,36.017 c 0.347,0.161 0.497,0.573 0.336,0.92 -0.161,0.348 -0.573,0.497 -0.92,0.336 -0.347,-0.16 -0.497,-0.572 -0.336,-0.92 0.161,-0.347 0.573,-0.498 0.92,-0.336"
       id="path103"
       inkscape:connector-curvature="0"
       style="fill:#020203" /></g></svg>