<?xml version="1.0" encoding="utf-8"?>
<!-- Generator: Adobe Illustrator 16.0.0, SVG Export Plug-In . SVG Version: 6.00 Build 0)  -->
<!DOCTYPE svg PUBLIC "-//W3C//DTD SVG 1.1//EN" "http://www.w3.org/Graphics/SVG/1.1/DTD/svg11.dtd">
<svg version="1.1" id="Capa_1" xmlns="http://www.w3.org/2000/svg" xmlns:xlink="http://www.w3.org/1999/xlink" x="0px" y="0px"
	 width="113.386px" height="50.732px" viewBox="0 0 113.386 50.732" enable-background="new 0 0 113.386 50.732"
	 xml:space="preserve">
<g>
	<path fill="#020203" d="M96.644,17.962c-1.487,0-2.901,0.313-4.186,0.871l-29.221,9.185v-3.714h-3.766V18.67h5.736
		c3.118,0,5.654-2.537,5.654-5.655S68.326,7.36,65.208,7.36c-0.129,0-0.257,0.006-0.384,0.016c-1.349-1.938-3.53-3.085-5.896-3.085
		c-3.688,0-6.716,2.743-7.133,6.345c-0.163-0.023-0.32-0.034-0.477-0.034c-2.225,0-4.034,1.81-4.034,4.034s1.81,4.034,4.034,4.034
		h7.152v5.633H54.83v3.84L25.272,14.632l-0.035,0.077c-1.655-0.641-3.446-1.007-5.325-1.007c-8.163,0-14.804,6.642-14.804,14.805
		s6.641,14.805,14.804,14.805c1.839,0,3.594-0.353,5.22-0.968l0.017,0.037l0.472-0.217c0.082-0.034,0.161-0.075,0.242-0.111
		L54.83,28.746v3.964h8.407v-3.627l29.232,9.128l0.007-0.022c1.279,0.553,2.688,0.862,4.167,0.862
		c5.814,0,10.545-4.73,10.545-10.544C107.188,22.692,102.458,17.962,96.644,17.962z M51.319,17.67c-1.673,0-3.034-1.361-3.034-3.034
		s1.361-3.034,3.034-3.034c0.242,0,0.496,0.039,0.799,0.122l0.61,0.168l0.022-0.632c0.119-3.347,2.833-5.969,6.178-5.969
		c2.125,0,4.078,1.077,5.224,2.88l0.169,0.266l0.313-0.037c0.188-0.022,0.38-0.04,0.574-0.04c2.566,0,4.654,2.088,4.654,4.655
		s-2.088,4.655-4.654,4.655h-5.736v-5.608l2.858,3.075l0.731-0.682l-4.089-4.398l-4.089,4.398l0.732,0.682l2.856-3.073v5.606H51.319
		z M6.108,28.507c0-7.612,6.192-13.805,13.804-13.805c7.612,0,13.805,6.193,13.805,13.805c0,5.633-3.395,10.48-8.243,12.625
		l-0.242,0.11c-1.638,0.688-3.435,1.069-5.32,1.069C12.301,42.312,6.108,36.119,6.108,28.507z M30.518,38.814
		c2.594-2.668,4.2-6.302,4.2-10.308c0-4.064-1.648-7.75-4.309-10.428l22.679,10.367L30.518,38.814z M64.882,28.548l24.554-7.717
		c-2.049,1.925-3.337,4.65-3.337,7.676c0,3.053,1.313,5.799,3.394,7.726L64.882,28.548z M96.644,38.051
		c-5.263,0-9.545-4.281-9.545-9.544c0-3.902,2.356-7.26,5.719-8.738l0.037-0.012l-0.002-0.005c1.163-0.506,2.444-0.79,3.791-0.79
		c5.263,0,9.545,4.282,9.545,9.545C106.188,33.77,101.906,38.051,96.644,38.051z"/>
	<path fill="#020203" d="M103.765,26.863l-1.375,1.352c-0.027-3.104-2.559-5.62-5.668-5.62c-3.127,0-5.671,2.544-5.671,5.671v0.5h1
		v-0.5c0-2.576,2.096-4.671,4.671-4.671s4.671,2.096,4.671,4.671v0.022l-1.434-1.457l-0.713,0.701l2.588,2.631l2.632-2.588
		L103.765,26.863z"/>
	<path fill="#020203" d="M9.808,26.355c0,0.492-0.398,0.892-0.89,0.892c-0.492,0-0.891-0.399-0.891-0.892
		c0-0.491,0.399-0.89,0.891-0.89C9.41,25.466,9.808,25.864,9.808,26.355"/>
	<path fill="#020203" d="M11.511,22.213c0,0.492-0.399,0.891-0.891,0.891c-0.491,0-0.89-0.399-0.89-0.891
		c0-0.492,0.399-0.891,0.89-0.891C11.112,21.322,11.511,21.721,11.511,22.213"/>
	<path fill="#020203" d="M14.587,19.121c0,0.492-0.399,0.89-0.891,0.89c-0.491,0-0.89-0.398-0.89-0.89
		c0-0.492,0.399-0.891,0.89-0.891C14.188,18.229,14.587,18.628,14.587,19.121"/>
	<path fill="#020203" d="M18.72,17.395c0,0.492-0.398,0.891-0.891,0.891c-0.491,0-0.89-0.399-0.89-0.891
		c0-0.492,0.399-0.891,0.89-0.891C18.322,16.504,18.72,16.903,18.72,17.395"/>
	<path fill="#020203" d="M23.083,17.383c0,0.492-0.398,0.891-0.89,0.891c-0.492,0-0.891-0.399-0.891-0.891
		c0-0.492,0.399-0.891,0.891-0.891C22.685,16.492,23.083,16.891,23.083,17.383"/>
	<path fill="#020203" d="M27.226,19.086c0,0.492-0.399,0.891-0.891,0.891c-0.491,0-0.89-0.399-0.89-0.891
		c0-0.492,0.399-0.891,0.89-0.891C26.827,18.195,27.226,18.594,27.226,19.086"/>
	<path fill="#020203" d="M30.318,22.162c0,0.492-0.398,0.891-0.891,0.891c-0.491,0-0.89-0.399-0.89-0.891
		c0-0.492,0.399-0.89,0.89-0.89C29.92,21.272,30.318,21.67,30.318,22.162"/>
	<path fill="#020203" d="M9.55,30.762c0,0.492-0.398,0.891-0.89,0.891c-0.492,0-0.891-0.398-0.891-0.891S8.168,29.87,8.66,29.87
		C9.152,29.87,9.55,30.27,9.55,30.762"/>
	<path fill="#020203" d="M11.545,34.852c0,0.492-0.398,0.892-0.891,0.892c-0.491,0-0.89-0.399-0.89-0.892
		c0-0.491,0.399-0.891,0.89-0.891C11.147,33.961,11.545,34.36,11.545,34.852"/>
	<path fill="#020203" d="M14.638,37.928c0,0.492-0.399,0.892-0.891,0.892c-0.491,0-0.89-0.399-0.89-0.892s0.399-0.891,0.89-0.891
		C14.239,37.037,14.638,37.436,14.638,37.928"/>
	<path fill="#020203" d="M18.781,39.631c0,0.492-0.399,0.891-0.891,0.891c-0.491,0-0.89-0.398-0.89-0.891s0.399-0.891,0.89-0.891
		C18.382,38.74,18.781,39.139,18.781,39.631"/>
	<path fill="#020203" d="M32.044,26.296c0,0.492-0.399,0.89-0.891,0.89c-0.491,0-0.89-0.397-0.89-0.89s0.399-0.891,0.89-0.891
		C31.645,25.405,32.044,25.804,32.044,26.296"/>
	<path fill="#020203" d="M32.056,30.658c0,0.492-0.399,0.891-0.891,0.891c-0.491,0-0.89-0.398-0.89-0.891s0.399-0.892,0.89-0.892
		C31.657,29.767,32.056,30.166,32.056,30.658"/>
	<path fill="#020203" d="M30.353,34.801c0,0.492-0.399,0.891-0.891,0.891c-0.491,0-0.89-0.398-0.89-0.891s0.399-0.892,0.89-0.892
		C29.954,33.909,30.353,34.309,30.353,34.801"/>
	<path fill="#020203" d="M27.276,37.894c0,0.492-0.398,0.891-0.89,0.891c-0.492,0-0.891-0.398-0.891-0.891
		c0-0.491,0.399-0.891,0.891-0.891C26.878,37.003,27.276,37.402,27.276,37.894"/>
	<path fill="#020203" d="M22.779,38.9c0.396,0.291,0.483,0.849,0.192,1.245c-0.29,0.396-0.848,0.483-1.244,0.192
		c-0.397-0.291-0.483-0.849-0.193-1.245C21.825,38.695,22.382,38.609,22.779,38.9"/>
	<path fill="#020203" d="M13.789,27.203c0,0.298-0.242,0.54-0.54,0.54c-0.297,0-0.539-0.242-0.539-0.54s0.242-0.54,0.539-0.54
		C13.546,26.663,13.789,26.905,13.789,27.203"/>
	<path fill="#020203" d="M14.821,24.693c0,0.298-0.242,0.54-0.54,0.54c-0.298,0-0.54-0.242-0.54-0.54c0-0.298,0.242-0.54,0.54-0.54
		C14.579,24.153,14.821,24.395,14.821,24.693"/>
	<path fill="#020203" d="M16.685,22.818c0,0.298-0.242,0.54-0.54,0.54s-0.54-0.242-0.54-0.54c0-0.298,0.242-0.54,0.54-0.54
		S16.685,22.52,16.685,22.818"/>
	<path fill="#020203" d="M19.19,21.773c0,0.298-0.242,0.54-0.54,0.54c-0.298,0-0.539-0.242-0.539-0.54
		c0-0.298,0.241-0.54,0.539-0.54C18.948,21.233,19.19,21.475,19.19,21.773"/>
	<path fill="#020203" d="M21.834,21.766c0,0.298-0.242,0.54-0.54,0.54s-0.54-0.242-0.54-0.54c0-0.298,0.242-0.54,0.54-0.54
		S21.834,21.467,21.834,21.766"/>
	<path fill="#020203" d="M24.344,22.798c0,0.298-0.241,0.54-0.54,0.54c-0.297,0-0.539-0.242-0.539-0.54
		c0-0.298,0.242-0.54,0.539-0.54C24.104,22.258,24.344,22.5,24.344,22.798"/>
	<path fill="#020203" d="M26.219,24.662c0,0.298-0.242,0.54-0.54,0.54c-0.297,0-0.539-0.242-0.539-0.54
		c0-0.298,0.242-0.54,0.539-0.54C25.977,24.122,26.219,24.364,26.219,24.662"/>
	<path fill="#020203" d="M13.633,29.873c0,0.298-0.242,0.54-0.54,0.54c-0.298,0-0.54-0.242-0.54-0.54s0.242-0.54,0.54-0.54
		C13.391,29.333,13.633,29.575,13.633,29.873"/>
	<path fill="#020203" d="M14.841,32.353c0,0.298-0.242,0.54-0.54,0.54c-0.297,0-0.539-0.242-0.539-0.54s0.242-0.54,0.539-0.54
		C14.6,31.813,14.841,32.055,14.841,32.353"/>
	<path fill="#020203" d="M16.716,34.217c0,0.298-0.242,0.54-0.54,0.54c-0.297,0-0.539-0.242-0.539-0.54s0.242-0.54,0.539-0.54
		C16.474,33.677,16.716,33.919,16.716,34.217"/>
	<path fill="#020203" d="M19.227,35.248c0,0.298-0.242,0.54-0.54,0.54s-0.539-0.242-0.539-0.54s0.241-0.54,0.539-0.54
		S19.227,34.95,19.227,35.248"/>
	<path fill="#020203" d="M27.265,27.167c0,0.298-0.242,0.54-0.54,0.54s-0.54-0.242-0.54-0.54s0.242-0.54,0.54-0.54
		S27.265,26.869,27.265,27.167"/>
	<path fill="#020203" d="M27.271,29.811c0,0.298-0.241,0.54-0.54,0.54c-0.297,0-0.539-0.242-0.539-0.54s0.242-0.54,0.539-0.54
		C27.03,29.271,27.271,29.513,27.271,29.811"/>
	<path fill="#020203" d="M26.24,32.321c0,0.298-0.242,0.54-0.54,0.54s-0.54-0.242-0.54-0.54s0.242-0.54,0.54-0.54
		S26.24,32.023,26.24,32.321"/>
	<path fill="#020203" d="M24.375,34.195c0,0.298-0.242,0.54-0.54,0.54s-0.54-0.242-0.54-0.54s0.242-0.54,0.54-0.54
		S24.375,33.897,24.375,34.195"/>
	<path fill="#020203" d="M21.649,34.806c0.241,0.177,0.293,0.515,0.117,0.754c-0.177,0.241-0.514,0.293-0.755,0.117
		c-0.24-0.176-0.292-0.514-0.116-0.755C21.071,34.682,21.41,34.63,21.649,34.806"/>
	<path fill="#020203" d="M11.781,28.424c0.075,0.375-0.168,0.74-0.544,0.814c-0.375,0.075-0.74-0.169-0.814-0.544
		c-0.075-0.375,0.168-0.739,0.543-0.813C11.342,27.806,11.706,28.049,11.781,28.424"/>
	<path fill="#020203" d="M12.449,25.005c0.075,0.375-0.168,0.74-0.543,0.814c-0.375,0.076-0.74-0.168-0.815-0.543
		s0.169-0.74,0.544-0.814C12.01,24.386,12.374,24.63,12.449,25.005"/>
	<path fill="#020203" d="M14.324,22.178c0.075,0.375-0.168,0.74-0.543,0.815c-0.375,0.075-0.74-0.169-0.815-0.544
		s0.169-0.74,0.544-0.814C13.885,21.56,14.25,21.803,14.324,22.178"/>
	<path fill="#020203" d="M17.214,20.233c0.075,0.375-0.169,0.74-0.544,0.815c-0.375,0.075-0.74-0.169-0.814-0.544
		c-0.076-0.375,0.168-0.74,0.543-0.814C16.774,19.615,17.139,19.858,17.214,20.233"/>
	<path fill="#020203" d="M20.539,19.561c0.075,0.375-0.168,0.74-0.543,0.815c-0.375,0.075-0.74-0.169-0.815-0.544
		c-0.075-0.375,0.169-0.74,0.544-0.814C20.1,18.941,20.464,19.186,20.539,19.561"/>
	<path fill="#020203" d="M23.958,20.229c0.075,0.375-0.168,0.74-0.544,0.814c-0.375,0.075-0.74-0.168-0.814-0.543
		c-0.075-0.375,0.168-0.74,0.543-0.815C23.519,19.61,23.883,19.854,23.958,20.229"/>
	<path fill="#020203" d="M26.785,22.104c0.075,0.375-0.169,0.74-0.544,0.815c-0.375,0.075-0.74-0.169-0.814-0.544
		c-0.075-0.375,0.168-0.74,0.543-0.814C26.345,21.486,26.71,21.729,26.785,22.104"/>
	<path fill="#020203" d="M12.255,31.823c0.075,0.375-0.168,0.74-0.543,0.813c-0.376,0.075-0.741-0.168-0.815-0.543
		c-0.075-0.375,0.168-0.739,0.544-0.814C11.816,31.204,12.18,31.448,12.255,31.823"/>
	<path fill="#020203" d="M14.398,34.639c0.075,0.375-0.168,0.74-0.543,0.814c-0.376,0.075-0.741-0.168-0.815-0.543
		c-0.075-0.375,0.168-0.74,0.543-0.815C13.959,34.021,14.324,34.264,14.398,34.639"/>
	<path fill="#020203" d="M17.226,36.515c0.075,0.375-0.168,0.74-0.544,0.813c-0.375,0.075-0.74-0.168-0.814-0.543
		c-0.075-0.375,0.168-0.739,0.543-0.814S17.15,36.14,17.226,36.515"/>
	<path fill="#020203" d="M20.644,37.183c0.075,0.375-0.168,0.74-0.543,0.814c-0.375,0.075-0.74-0.169-0.815-0.544
		s0.168-0.739,0.544-0.813C20.205,36.563,20.569,36.808,20.644,37.183"/>
	<path fill="#020203" d="M28.73,24.994c0.075,0.375-0.168,0.74-0.544,0.813c-0.375,0.076-0.74-0.167-0.814-0.542
		c-0.075-0.375,0.168-0.74,0.543-0.815C28.29,24.375,28.655,24.619,28.73,24.994"/>
	<path fill="#020203" d="M29.403,28.319c0.075,0.375-0.168,0.74-0.544,0.813c-0.375,0.075-0.74-0.168-0.814-0.543
		c-0.075-0.375,0.168-0.739,0.543-0.814C28.964,27.7,29.328,27.944,29.403,28.319"/>
	<path fill="#020203" d="M28.734,31.737c0.075,0.375-0.168,0.74-0.543,0.815s-0.74-0.169-0.815-0.544
		c-0.075-0.375,0.169-0.74,0.544-0.814C28.295,31.118,28.659,31.362,28.734,31.737"/>
	<path fill="#020203" d="M26.859,34.564c0.075,0.375-0.168,0.74-0.543,0.814c-0.375,0.076-0.74-0.168-0.815-0.543
		c-0.075-0.375,0.169-0.74,0.544-0.814C26.42,33.946,26.784,34.189,26.859,34.564"/>
	<path fill="#020203" d="M23.582,36.017c0.347,0.161,0.497,0.573,0.336,0.92c-0.161,0.348-0.573,0.497-0.92,0.336
		c-0.347-0.16-0.497-0.572-0.336-0.92C22.823,36.006,23.235,35.855,23.582,36.017"/>
</g>
</svg>
